<?xml version="1.0" encoding="utf-8"?>
<!-- Generator: Adobe Illustrator 26.3.1, SVG Export Plug-In . SVG Version: 6.00 Build 0)  -->
<svg version="1.1" xmlns="http://www.w3.org/2000/svg" xmlns:xlink="http://www.w3.org/1999/xlink" x="0px" y="0px"
	 viewBox="0 0 200 50" style="enable-background:new 0 0 200 50;" xml:space="preserve">
<style type="text/css">
	.st0{display:none;}
	.st1{display:inline;}
	.st2{fill:#FFFFFF;}
</style>
<g id="Gemini" class="st0">
	<g class="st1">
		<a xlink:href="67.836862745098" >
			<polygon id="fullLogo" points="61.5,38.1 78.2,38.1 78.2,34.6 65.2,34.6 65.2,26.7 76.5,26.7 76.5,23.2 65.2,23.2 65.2,15.3 
				78.2,15.3 78.2,11.8 61.5,11.8 			"/>
		</a>
		<a xlink:href="67.836862745098" >
			<polygon id="fullLogo-2" points="109.2,11.8 101.2,32 93.2,11.8 88.2,11.8 85.8,38.1 89.6,38.1 91.4,17.4 99.8,38.1 102.6,38.1 
				111,17.4 112.8,38.1 116.6,38.1 114.1,11.8 			"/>
		</a>
		<a xlink:href="67.836862745098" >
			<rect id="fullLogo-3" x="124.8" y="11.8" width="3.7" height="26.2"/>
		</a>
		<a xlink:href="67.836862745098" >
			<polygon id="fullLogo-4" points="154.9,30.8 141,11.8 137.8,11.8 137.8,38.1 141.6,38.1 141.6,19 155.6,38.1 158.7,38.1 
				158.7,11.8 154.9,11.8 			"/>
		</a>
		<a xlink:href="67.836862745098" >
			<rect id="fullLogo-5" x="168" y="11.8" width="3.7" height="26.2"/>
		</a>
		<g id="logoMark">
			<a xlink:href="41.5035294117647" >
				<path id="logoMark__PathItem_" d="M42.2,26.6c4.7,0.3,8.4,4.1,8.7,8.7h2.6V23.9H42.2V26.6z"/>
			</a>
			<a xlink:href="67.836862745098" >
				<path id="logoMark__PathItem_-2" d="M42.2,38.6v-3.2c-3.6,0-6.7-1.7-8.6-4.3c-1.3-1.7-2-3.8-2-6c0-5.7,4.8-10.3,10.7-10.3
					c2.9,0,5.6,1.1,7.6,3.1l2.3-2.3c-2.6-2.6-6.1-4-9.9-4c-7.7,0-13.9,6.1-13.9,13.6c0,3.7,1.5,7,3.9,9.4
					C34.7,37,38.2,38.6,42.2,38.6z"/>
			</a>
		</g>
	</g>
</g>
<g id="Miovison" class="st0">
	<g class="st1">
		<path class="st2" d="M61.4,37.3c-0.7,0.7-0.7,1.8,0,2.5c0.7,0.7,1.8,0.7,2.5,0s0.7-1.8,0-2.5S62.1,36.6,61.4,37.3z M76.3,12.7
			c0.7-0.7,0.7-1.8,0-2.5c-0.7-0.7-1.8-0.7-2.5,0c-0.7,0.7-0.7,1.8,0,2.5C74.5,13.4,75.6,13.4,76.3,12.7z M73.2,14.6l-4.4,4.4h0
			c3.3,0,6,2.7,6,6c0,1.7-0.7,3.2-1.8,4.3L66.4,36c0.8,0.2,1.6,0.3,2.5,0.3c6.2,0,11.3-5,11.3-11.3C80.1,20.3,77.3,16.3,73.2,14.6z
			 M68.8,31c-3.3,0-6-2.7-6-6c0-1.7,0.7-3.2,1.8-4.3l6.7-6.7c-0.8-0.2-1.6-0.3-2.5-0.3c-6.2,0-11.3,5-11.3,11.3
			c0,4.7,2.8,8.7,6.9,10.4L68.8,31C68.9,31,68.9,31,68.8,31z"/>
		<path class="st2" d="M40.9,35.7V22.2c0-2-0.9-3.4-3.2-3.4c-2,0-3.6,1.3-4.5,2.5v14.5h-5.7V22.2c0-2-0.9-3.4-3.2-3.4
			c-2,0-3.6,1.3-4.5,2.5v14.5h-5.6V14.3h5.7V17c0.9-1.2,3.7-3.3,7-3.3c3.2,0,5.2,1.5,6,3.9c1.2-1.9,4.1-3.9,7.4-3.9
			c3.9,0,6.3,2.1,6.3,6.5v15.5H40.9z"/>
		<path class="st2" d="M49.6,35.7V14.3h5.7v21.5H49.6z"/>
		<path class="st2" d="M87.9,35.7l-8.6-21.5h6.1l5.6,14.9l5.7-14.9h6L94,35.7H87.9z"/>
		<path class="st2" d="M104.1,35.7V14.3h5.7v21.5H104.1z"/>
		<path class="st2" d="M111.4,32.9l2.4-4.1c1.6,1.5,4.8,3,7.4,3c2.4,0,3.6-0.9,3.6-2.3c0-3.5-12.7-0.6-12.7-9.1
			c0-3.6,3.1-6.8,8.8-6.8c3.6,0,6.5,1.2,8.6,2.9l-2.3,4c-1.3-1.3-3.7-2.5-6.3-2.5c-2.1,0-3.4,0.9-3.4,2.1c0,3.2,12.8,0.5,12.8,9.2
			c0,3.9-3.4,6.9-9.3,6.9C117.3,36.3,113.6,35,111.4,32.9z"/>
		<path class="st2" d="M132.7,35.7V14.3h5.7v21.5H132.7z"/>
		<path class="st2" d="M180.1,35.7v-13c0-3-1.5-4-3.9-4c-2.2,0-3.9,1.2-4.9,2.5v14.5h-5.7V14.3h5.7V17c1.4-1.6,4-3.3,7.5-3.3
			c4.8,0,7,2.7,7,6.9v15.2H180.1z"/>
		<path class="st2" d="M152,13.7c-6.2,0-11.3,5-11.3,11.3s5,11.3,11.3,11.3s11.3-5,11.3-11.3C163.2,18.8,158.2,13.7,152,13.7z
			 M152,31c-3.3,0-6-2.7-6-6s2.7-6,6-6c3.3,0,6,2.7,6,6S155.3,31,152,31z"/>
	</g>
</g>
<g id="Oracle" class="st0">
	<g class="st1">
		<path d="M89.3,28.6h11.3l-6-9.7l-11,17.5h-5l13.4-21c0.6-0.8,1.6-1.4,2.6-1.4c1,0,2,0.5,2.6,1.3l13.4,21h-5l-2.4-3.9H91.8
			L89.3,28.6 M141.3,32.5V14.3h-4.3v20c0,0.5,0.2,1.1,0.6,1.5c0.4,0.4,1,0.6,1.5,0.6h19.4l2.5-3.9H141.3 M71,29.3
			c4.1,0,7.5-3.3,7.5-7.5s-3.3-7.5-7.5-7.5H52.4v22.1h4.2V18.2h14.1c2,0,3.6,1.6,3.6,3.6c0,2-1.6,3.6-3.6,3.6l-12,0l12.7,11.1h6.2
			l-8.5-7.2H71 M26.3,36.4h12.8c6.1,0,11-4.9,11-11c0-6.1-4.9-11.1-11-11.1H26.3c-6.1,0-11.1,4.9-11.1,11.1
			C15.2,31.5,20.2,36.4,26.3,36.4 M38.9,32.5H26.6c-3.9,0-7.1-3.2-7.1-7.2c0-4,3.2-7.2,7.1-7.2h12.3c4,0,7.2,3.2,7.2,7.2
			C46,29.3,42.8,32.5,38.9,32.5 M119.6,36.4h13.1l2.5-3.9h-15.3c-4,0-7.2-3.2-7.2-7.2c0-4,3.2-7.2,7.2-7.2h12.5l2.5-3.9h-15.3
			c-6.1,0-11.1,4.9-11.1,11.1C108.5,31.5,113.4,36.4,119.6,36.4 M171.5,32.5c-3.3,0-6-2.2-6.9-5.2h18.2l2.5-3.9h-20.7
			c0.8-3,3.6-5.2,6.9-5.2H184l2.5-3.9h-15.2c-6.1,0-11,4.9-11,11.1c0,6.1,4.9,11,11,11h13.1l2.5-3.9H171.5"/>
	</g>
</g>
<g id="Syngenta">
	<g>
		<path class="st2" d="M153,21.4h-5v8.2c0,2.3,1.2,2.8,2.8,2.8c0.6,0,1.2-0.1,1.8-0.2l0.4,3.7c-1.3,0.2-3,0.4-4.2,0.4
			c-3.4,0-6.5-1.2-6.5-5.4v-9.6h-2.9v-3.6h2.9v-4l5.7-1.6v5.6h5V21.4"/>
		<path class="st2" d="M137.8,36h-5.7V24.3c0-1.7-0.7-2.7-2.7-2.7c-1.5,0-2.4,0.7-3.5,1.5V36h-5.7V17.8h5.5v1.6c1.8-1.2,4-2,6.2-2
			c3.6,0,5.7,2.2,5.7,5.7V36"/>
		<path class="st2" d="M108.9,2.3c-2.9,4.9-1.6,9.2-4.4,12c-2.2,2.3-4.3,2.2-6.8,2.2c-0.9,0-2.5,0.1-3.2,0.6c-0.4-1.3-0.6-2.7-0.6-4
			c0-2.3,0.5-4.4,2.2-6C99.3,3.8,105.1,2.8,108.9,2.3"/>
		<path class="st2" d="M78.3,36h-5.7V24.3c0-1.7-0.7-2.7-2.7-2.7c-1.5,0-2.4,0.7-3.5,1.5V36h-5.7V17.8h5.5v1.6c1.8-1.2,4-2,6.2-2
			c3.6,0,5.7,2.2,5.7,5.7V36"/>
		<path class="st2" d="M59.7,17.8l-9.1,22c-1.4,3.4-4.2,5.9-8,5.9c-1.9,0-2.9-0.2-4.2-0.5l0.8-3.6c1,0.2,1.8,0.3,2.5,0.3
			c2.3,0,3.5-1.9,4.6-4.6l0.5-1.3l-7-18.2h6.1l3.3,9c0.4,1.1,0.6,2.2,0.8,3c0.2-0.8,0.6-2.1,1-3.1l3.4-8.9H59.7"/>
		<path class="st2" d="M39.7,30.2c0,4-3.7,6.1-8,6.1c-2.8,0-5.1-0.5-7.5-1.4l1.5-3.7c1.4,0.6,3.5,1.2,5.2,1.2c1.3,0,3.1-0.2,3.1-1.8
			c0-0.7-0.5-1.1-1.3-1.4c-1.1-0.3-2.7-0.6-3.8-0.9c-2.3-0.6-4.2-1.8-4.2-5.2c0-3.8,3.2-6.1,7.6-6.1c2.9,0,4.7,0.4,6.4,0.9l-1.4,3.7
			c-0.7-0.3-2.7-0.8-4.2-0.8c-1.6,0-2.6,0.6-2.6,1.5c0,0.5,0.3,1.1,1.1,1.3c0.9,0.3,2.3,0.5,3.5,0.8C37.4,25,39.7,26.4,39.7,30.2"/>
		<path class="st2" d="M164.9,31.1v-3.4c-2.6,0-5.1,0.2-5.1,2.7c0,1.5,1.3,2,2.3,2C163.3,32.5,164.2,31.9,164.9,31.1 M170.4,36h-5.3
			v-1.4c-1.4,1.2-3.2,1.8-5.2,1.8c-3.4,0-5.7-1.6-5.7-5.1c0-6,6-7,10.7-7v-0.5c0-1.5-0.6-2.6-3.3-2.6c-1.8,0-3.9,0.9-5.2,1.7
			l-1.4-3.4c2.4-1.3,5.4-2.2,8.2-2.2c4.3,0,7.2,2.1,7.2,5.7V36z"/>
		<path class="st2" d="M112,24.4c0.1-2-0.9-3.3-2.9-3.3c-1.9,0-3,1.4-3.4,3.3H112 M117.9,26.2c0,0.6,0,1.2-0.1,1.9h-12.1
			c0.1,2.6,1.4,4.2,5.2,4.2c1.7,0,3.8-0.8,4.6-1.4l1.5,3.4c-2.5,1.4-5.2,2.1-8.2,2.1c-5.7,0-9.2-3.6-9.2-9.4c0-5.9,4.6-9.6,9.6-9.6
			C115.6,17.3,117.9,21,117.9,26.2z"/>
		<path class="st2" d="M94.1,39c0-1.5-1.2-2-2.4-2h-5c-0.8,0.4-1.9,1.4-1.9,2.6c0,1.6,2.2,2.7,4.7,2.7C92.2,42.2,94.1,41,94.1,39
			 M92.6,23.3c0-1.5-0.8-2.8-2.7-2.8c-1.7,0-2.8,1.5-2.8,2.8c0,1.5,1,2.8,2.7,2.8C91.7,26.1,92.6,24.8,92.6,23.3z M99.8,38.2
			c0,5.3-5.3,7.8-10.5,7.8c-4.6,0-9-1.3-9-5.7c0-2.1,1.8-3.4,2.9-4.2c-0.6-0.4-1.2-0.6-1.7-1.2c-0.5-0.6-0.9-1.4-0.9-2.8
			c0-1.8,1.6-3.4,3.5-4.5c-1.1-0.6-2.5-1.4-2.5-4.4c0-3.9,3.7-5.9,8.5-5.9c4.1,0,8,1,8,5.8c0,4.6-4.3,6.2-8.6,6.2
			c-0.8,0-1.5-0.1-2.2-0.3c-0.5,0.2-1.4,0.9-1.4,1.5c0,1.4,1.9,1.6,2.8,1.6h4.5C97.3,32.2,99.8,34.2,99.8,38.2z"/>
		<path class="st2" d="M174,33.5c0.3,0,0.4,0,0.4-0.3c0-0.3-0.3-0.3-0.5-0.3h-0.4v0.6H174 M173,32.5h1c0.6,0,1,0.2,1,0.8
			c0,0.5-0.3,0.6-0.7,0.7L175,35h-0.6l-0.6-1.1h-0.3V35H173V32.5z M173.9,35.6c0.9,0,1.6-0.7,1.6-1.8c0-1.1-0.7-1.8-1.6-1.8
			c-0.9,0-1.6,0.7-1.6,1.8C172.3,34.8,173,35.6,173.9,35.6z M173.9,31.5c1.3,0,2.3,1,2.3,2.3c0,1.3-1,2.3-2.3,2.3
			c-1.3,0-2.3-1-2.3-2.3C171.6,32.5,172.7,31.5,173.9,31.5z"/>
	</g>
</g>
</svg>
