<?xml version="1.0" encoding="utf-8"?>
<!-- Generator: Adobe Illustrator 26.3.1, SVG Export Plug-In . SVG Version: 6.00 Build 0)  -->
<svg version="1.1" id="Layer_1" xmlns="http://www.w3.org/2000/svg" xmlns:xlink="http://www.w3.org/1999/xlink" x="0px" y="0px"
	 viewBox="0 0 200 50" style="enable-background:new 0 0 200 50;" xml:space="preserve">
<style type="text/css">
	.st0{display:none;}
	.st1{display:inline;}
	.st2{fill:#FFFFFF;}
</style>
<g id="Gemini" class="st0">
	<g class="st1">
		<a xlink:href="67.836862745098" >
			<polygon id="fullLogo" points="61.5,38.1 78.2,38.1 78.2,34.6 65.2,34.6 65.2,26.7 76.5,26.7 76.5,23.2 65.2,23.2 65.2,15.3 
				78.2,15.3 78.2,11.8 61.5,11.8 			"/>
		</a>
		<a xlink:href="67.836862745098" >
			<polygon id="fullLogo-2" points="109.2,11.8 101.2,32 93.2,11.8 88.2,11.8 85.8,38.1 89.6,38.1 91.4,17.4 99.8,38.1 102.6,38.1 
				111,17.4 112.8,38.1 116.6,38.1 114.1,11.8 			"/>
		</a>
		<a xlink:href="67.836862745098" >
			<rect id="fullLogo-3" x="124.8" y="11.8" width="3.7" height="26.2"/>
		</a>
		<a xlink:href="67.836862745098" >
			<polygon id="fullLogo-4" points="154.9,30.8 141,11.8 137.8,11.8 137.8,38.1 141.6,38.1 141.6,19 155.6,38.1 158.7,38.1 
				158.7,11.8 154.9,11.8 			"/>
		</a>
		<a xlink:href="67.836862745098" >
			<rect id="fullLogo-5" x="168" y="11.8" width="3.7" height="26.2"/>
		</a>
		<g id="logoMark">
			<a xlink:href="41.5035294117647" >
				<path id="logoMark__PathItem_" d="M42.2,26.6c4.7,0.3,8.4,4.1,8.7,8.7h2.6V23.9H42.2V26.6z"/>
			</a>
			<a xlink:href="67.836862745098" >
				<path id="logoMark__PathItem_-2" d="M42.2,38.6v-3.2c-3.6,0-6.7-1.7-8.6-4.3c-1.3-1.7-2-3.8-2-6c0-5.7,4.8-10.3,10.7-10.3
					c2.9,0,5.6,1.1,7.6,3.1l2.3-2.3c-2.6-2.6-6.1-4-9.9-4c-7.7,0-13.9,6.1-13.9,13.6c0,3.7,1.5,7,3.9,9.4
					C34.7,37,38.2,38.6,42.2,38.6z"/>
			</a>
		</g>
	</g>
</g>
<g id="Miovison">
	<g>
		<path class="st2" d="M63.2,36.7c-0.7,0.7-0.7,1.7,0,2.4s1.7,0.7,2.4,0s0.7-1.7,0-2.4C64.9,36.1,63.8,36.1,63.2,36.7z M77.4,13.3
			c0.7-0.7,0.7-1.7,0-2.4c-0.7-0.7-1.7-0.7-2.4,0s-0.7,1.7,0,2.4S76.7,13.9,77.4,13.3z M74.4,15.1l-4.2,4.2l0,0
			c3.1,0,5.7,2.6,5.7,5.7c0,1.6-0.7,3.1-1.7,4.1l-6.3,6.4c0.8,0.2,1.5,0.3,2.4,0.3c5.9,0,10.8-4.8,10.8-10.8
			C81,20.5,78.3,16.7,74.4,15.1z M70.2,30.7c-3.1,0-5.7-2.6-5.7-5.7c0-1.6,0.7-3.1,1.7-4.1l6.4-6.4c-0.8-0.2-1.5-0.3-2.4-0.3
			c-5.9,0-10.8,4.8-10.8,10.8c0,4.5,2.7,8.3,6.6,9.9L70.2,30.7C70.3,30.7,70.3,30.7,70.2,30.7z"/>
		<path class="st2" d="M43.6,35.2V22.3c0-1.9-0.9-3.2-3.1-3.2c-1.9,0-3.4,1.2-4.3,2.4v13.8h-5.4v-13c0-1.9-0.9-3.2-3.1-3.2
			c-1.9,0-3.4,1.2-4.3,2.4v13.8h-5.3V14.8h5.4v2.6c0.9-1.1,3.5-3.1,6.7-3.1c3.1,0,5,1.4,5.7,3.7c1.1-1.8,3.9-3.7,7.1-3.7
			c3.7,0,6,2,6,6.2v14.8H43.6z"/>
		<path class="st2" d="M51.9,35.2V14.8h5.4v20.5L51.9,35.2L51.9,35.2z"/>
		<path class="st2" d="M88.5,35.2l-8.2-20.5h5.8l5.3,14.2l5.4-14.2h5.7l-8.3,20.5H88.5z"/>
		<path class="st2" d="M103.9,35.2V14.8h5.4v20.5L103.9,35.2L103.9,35.2z"/>
		<path class="st2" d="M110.9,32.5l2.3-3.9c1.5,1.4,4.6,2.9,7.1,2.9c2.3,0,3.4-0.9,3.4-2.2c0-3.3-12.1-0.6-12.1-8.7
			c0-3.4,3-6.5,8.4-6.5c3.4,0,6.2,1.1,8.2,2.8l-2.2,3.8c-1.2-1.2-3.5-2.4-6-2.4c-2,0-3.2,0.9-3.2,2c0,3.1,12.2,0.5,12.2,8.8
			c0,3.7-3.2,6.6-8.9,6.6C116.5,35.8,113,34.5,110.9,32.5z"/>
		<path class="st2" d="M131.2,35.2V14.8h5.4v20.5L131.2,35.2L131.2,35.2z"/>
		<path class="st2" d="M176.4,35.2V22.8c0-2.9-1.4-3.8-3.7-3.8c-2.1,0-3.7,1.1-4.7,2.4v13.8h-5.4V14.8h5.4v2.6
			c1.3-1.5,3.8-3.1,7.2-3.1c4.6,0,6.7,2.6,6.7,6.6v14.5L176.4,35.2L176.4,35.2z"/>
		<path class="st2" d="M149.6,14.2c-5.9,0-10.8,4.8-10.8,10.8s4.8,10.8,10.8,10.8S160.4,31,160.4,25
			C160.3,19.1,155.5,14.2,149.6,14.2z M149.6,30.7c-3.1,0-5.7-2.6-5.7-5.7s2.6-5.7,5.7-5.7s5.7,2.6,5.7,5.7S152.8,30.7,149.6,30.7z"
			/>
	</g>
</g>
</svg>
