<?xml version="1.0" encoding="utf-8"?>
<!-- Generator: Adobe Illustrator 26.3.1, SVG Export Plug-In . SVG Version: 6.00 Build 0)  -->
<svg version="1.1" xmlns="http://www.w3.org/2000/svg" xmlns:xlink="http://www.w3.org/1999/xlink" x="0px" y="0px"
	 viewBox="0 0 200 50" style="enable-background:new 0 0 200 50;" xml:space="preserve">
<style type="text/css">
	.st0{display:none;}
	.st1{display:inline;}
	.st2{fill:#FFFFFF;}
</style>
<g id="Gemini" class="st0">
	<g class="st1">
		<a xlink:href="67.836862745098" >
			<polygon id="fullLogo" points="61.5,38.1 78.2,38.1 78.2,34.6 65.2,34.6 65.2,26.7 76.5,26.7 76.5,23.2 65.2,23.2 65.2,15.3 
				78.2,15.3 78.2,11.8 61.5,11.8 			"/>
		</a>
		<a xlink:href="67.836862745098" >
			<polygon id="fullLogo-2" points="109.2,11.8 101.2,32 93.2,11.8 88.2,11.8 85.8,38.1 89.6,38.1 91.4,17.4 99.8,38.1 102.6,38.1 
				111,17.4 112.8,38.1 116.6,38.1 114.1,11.8 			"/>
		</a>
		<a xlink:href="67.836862745098" >
			<rect id="fullLogo-3" x="124.8" y="11.8" width="3.7" height="26.2"/>
		</a>
		<a xlink:href="67.836862745098" >
			<polygon id="fullLogo-4" points="154.9,30.8 141,11.8 137.8,11.8 137.8,38.1 141.6,38.1 141.6,19 155.6,38.1 158.7,38.1 
				158.7,11.8 154.9,11.8 			"/>
		</a>
		<a xlink:href="67.836862745098" >
			<rect id="fullLogo-5" x="168" y="11.8" width="3.7" height="26.2"/>
		</a>
		<g id="logoMark">
			<a xlink:href="41.5035294117647" >
				<path id="logoMark__PathItem_" d="M42.2,26.6c4.7,0.3,8.4,4.1,8.7,8.7h2.6V23.9H42.2V26.6z"/>
			</a>
			<a xlink:href="67.836862745098" >
				<path id="logoMark__PathItem_-2" d="M42.2,38.6v-3.2c-3.6,0-6.7-1.7-8.6-4.3c-1.3-1.7-2-3.8-2-6c0-5.7,4.8-10.3,10.7-10.3
					c2.9,0,5.6,1.1,7.6,3.1l2.3-2.3c-2.6-2.6-6.1-4-9.9-4c-7.7,0-13.9,6.1-13.9,13.6c0,3.7,1.5,7,3.9,9.4
					C34.7,37,38.2,38.6,42.2,38.6z"/>
			</a>
		</g>
	</g>
</g>
<g id="Miovison" class="st0">
	<g class="st1">
		<path class="st2" d="M61.4,37.3c-0.7,0.7-0.7,1.8,0,2.5c0.7,0.7,1.8,0.7,2.5,0s0.7-1.8,0-2.5S62.1,36.6,61.4,37.3z M76.3,12.7
			c0.7-0.7,0.7-1.8,0-2.5c-0.7-0.7-1.8-0.7-2.5,0c-0.7,0.7-0.7,1.8,0,2.5C74.5,13.4,75.6,13.4,76.3,12.7z M73.2,14.6l-4.4,4.4h0
			c3.3,0,6,2.7,6,6c0,1.7-0.7,3.2-1.8,4.3L66.4,36c0.8,0.2,1.6,0.3,2.5,0.3c6.2,0,11.3-5,11.3-11.3C80.1,20.3,77.3,16.3,73.2,14.6z
			 M68.8,31c-3.3,0-6-2.7-6-6c0-1.7,0.7-3.2,1.8-4.3l6.7-6.7c-0.8-0.2-1.6-0.3-2.5-0.3c-6.2,0-11.3,5-11.3,11.3
			c0,4.7,2.8,8.7,6.9,10.4L68.8,31C68.9,31,68.9,31,68.8,31z"/>
		<path class="st2" d="M40.9,35.7V22.2c0-2-0.9-3.4-3.2-3.4c-2,0-3.6,1.3-4.5,2.5v14.5h-5.7V22.2c0-2-0.9-3.4-3.2-3.4
			c-2,0-3.6,1.3-4.5,2.5v14.5h-5.6V14.3h5.7V17c0.9-1.2,3.7-3.3,7-3.3c3.2,0,5.2,1.5,6,3.9c1.2-1.9,4.1-3.9,7.4-3.9
			c3.9,0,6.3,2.1,6.3,6.5v15.5H40.9z"/>
		<path class="st2" d="M49.6,35.7V14.3h5.7v21.5H49.6z"/>
		<path class="st2" d="M87.9,35.7l-8.6-21.5h6.1l5.6,14.9l5.7-14.9h6L94,35.7H87.9z"/>
		<path class="st2" d="M104.1,35.7V14.3h5.7v21.5H104.1z"/>
		<path class="st2" d="M111.4,32.9l2.4-4.1c1.6,1.5,4.8,3,7.4,3c2.4,0,3.6-0.9,3.6-2.3c0-3.5-12.7-0.6-12.7-9.1
			c0-3.6,3.1-6.8,8.8-6.8c3.6,0,6.5,1.2,8.6,2.9l-2.3,4c-1.3-1.3-3.7-2.5-6.3-2.5c-2.1,0-3.4,0.9-3.4,2.1c0,3.2,12.8,0.5,12.8,9.2
			c0,3.9-3.4,6.9-9.3,6.9C117.3,36.3,113.6,35,111.4,32.9z"/>
		<path class="st2" d="M132.7,35.7V14.3h5.7v21.5H132.7z"/>
		<path class="st2" d="M180.1,35.7v-13c0-3-1.5-4-3.9-4c-2.2,0-3.9,1.2-4.9,2.5v14.5h-5.7V14.3h5.7V17c1.4-1.6,4-3.3,7.5-3.3
			c4.8,0,7,2.7,7,6.9v15.2H180.1z"/>
		<path class="st2" d="M152,13.7c-6.2,0-11.3,5-11.3,11.3s5,11.3,11.3,11.3s11.3-5,11.3-11.3C163.2,18.8,158.2,13.7,152,13.7z
			 M152,31c-3.3,0-6-2.7-6-6s2.7-6,6-6c3.3,0,6,2.7,6,6S155.3,31,152,31z"/>
	</g>
</g>
<g id="Oracle" class="st0">
	<g class="st1">
		<path d="M89.3,28.6h11.3l-6-9.7l-11,17.5h-5l13.4-21c0.6-0.8,1.6-1.4,2.6-1.4c1,0,2,0.5,2.6,1.3l13.4,21h-5l-2.4-3.9H91.8
			L89.3,28.6 M141.3,32.5V14.3h-4.3v20c0,0.5,0.2,1.1,0.6,1.5c0.4,0.4,1,0.6,1.5,0.6h19.4l2.5-3.9H141.3 M71,29.3
			c4.1,0,7.5-3.3,7.5-7.5s-3.3-7.5-7.5-7.5H52.4v22.1h4.2V18.2h14.1c2,0,3.6,1.6,3.6,3.6c0,2-1.6,3.6-3.6,3.6l-12,0l12.7,11.1h6.2
			l-8.5-7.2H71 M26.3,36.4h12.8c6.1,0,11-4.9,11-11c0-6.1-4.9-11.1-11-11.1H26.3c-6.1,0-11.1,4.9-11.1,11.1
			C15.2,31.5,20.2,36.4,26.3,36.4 M38.9,32.5H26.6c-3.9,0-7.1-3.2-7.1-7.2c0-4,3.2-7.2,7.1-7.2h12.3c4,0,7.2,3.2,7.2,7.2
			C46,29.3,42.8,32.5,38.9,32.5 M119.6,36.4h13.1l2.5-3.9h-15.3c-4,0-7.2-3.2-7.2-7.2c0-4,3.2-7.2,7.2-7.2h12.5l2.5-3.9h-15.3
			c-6.1,0-11.1,4.9-11.1,11.1C108.5,31.5,113.4,36.4,119.6,36.4 M171.5,32.5c-3.3,0-6-2.2-6.9-5.2h18.2l2.5-3.9h-20.7
			c0.8-3,3.6-5.2,6.9-5.2H184l2.5-3.9h-15.2c-6.1,0-11,4.9-11,11.1c0,6.1,4.9,11,11,11h13.1l2.5-3.9H171.5"/>
	</g>
</g>
<g id="Syngenta" class="st0">
	<g class="st1">
		<path class="st2" d="M153,21.4h-5v8.2c0,2.3,1.2,2.8,2.8,2.8c0.6,0,1.2-0.1,1.8-0.2l0.4,3.7c-1.3,0.2-3,0.4-4.2,0.4
			c-3.4,0-6.5-1.2-6.5-5.4v-9.6h-2.9v-3.6h2.9v-4l5.7-1.6v5.6h5V21.4"/>
		<path class="st2" d="M137.8,36h-5.7V24.3c0-1.7-0.7-2.7-2.7-2.7c-1.5,0-2.4,0.7-3.5,1.5V36h-5.7V17.8h5.5v1.6c1.8-1.2,4-2,6.2-2
			c3.6,0,5.7,2.2,5.7,5.7V36"/>
		<path class="st2" d="M108.9,2.3c-2.9,4.9-1.6,9.2-4.4,12c-2.2,2.3-4.3,2.2-6.8,2.2c-0.9,0-2.5,0.1-3.2,0.6c-0.4-1.3-0.6-2.7-0.6-4
			c0-2.3,0.5-4.4,2.2-6C99.3,3.8,105.1,2.8,108.9,2.3"/>
		<path class="st2" d="M78.3,36h-5.7V24.3c0-1.7-0.7-2.7-2.7-2.7c-1.5,0-2.4,0.7-3.5,1.5V36h-5.7V17.8h5.5v1.6c1.8-1.2,4-2,6.2-2
			c3.6,0,5.7,2.2,5.7,5.7V36"/>
		<path class="st2" d="M59.7,17.8l-9.1,22c-1.4,3.4-4.2,5.9-8,5.9c-1.9,0-2.9-0.2-4.2-0.5l0.8-3.6c1,0.2,1.8,0.3,2.5,0.3
			c2.3,0,3.5-1.9,4.6-4.6l0.5-1.3l-7-18.2h6.1l3.3,9c0.4,1.1,0.6,2.2,0.8,3c0.2-0.8,0.6-2.1,1-3.1l3.4-8.9H59.7"/>
		<path class="st2" d="M39.7,30.2c0,4-3.7,6.1-8,6.1c-2.8,0-5.1-0.5-7.5-1.4l1.5-3.7c1.4,0.6,3.5,1.2,5.2,1.2c1.3,0,3.1-0.2,3.1-1.8
			c0-0.7-0.5-1.1-1.3-1.4c-1.1-0.3-2.7-0.6-3.8-0.9c-2.3-0.6-4.2-1.8-4.2-5.2c0-3.8,3.2-6.1,7.6-6.1c2.9,0,4.7,0.4,6.4,0.9l-1.4,3.7
			c-0.7-0.3-2.7-0.8-4.2-0.8c-1.6,0-2.6,0.6-2.6,1.5c0,0.5,0.3,1.1,1.1,1.3c0.9,0.3,2.3,0.5,3.5,0.8C37.4,25,39.7,26.4,39.7,30.2"/>
		<path class="st2" d="M164.9,31.1v-3.4c-2.6,0-5.1,0.2-5.1,2.7c0,1.5,1.3,2,2.3,2C163.3,32.5,164.2,31.9,164.9,31.1 M170.4,36h-5.3
			v-1.4c-1.4,1.2-3.2,1.8-5.2,1.8c-3.4,0-5.7-1.6-5.7-5.1c0-6,6-7,10.7-7v-0.5c0-1.5-0.6-2.6-3.3-2.6c-1.8,0-3.9,0.9-5.2,1.7
			l-1.4-3.4c2.4-1.3,5.4-2.2,8.2-2.2c4.3,0,7.2,2.1,7.2,5.7V36z"/>
		<path class="st2" d="M112,24.4c0.1-2-0.9-3.3-2.9-3.3c-1.9,0-3,1.4-3.4,3.3H112 M117.9,26.2c0,0.6,0,1.2-0.1,1.9h-12.1
			c0.1,2.6,1.4,4.2,5.2,4.2c1.7,0,3.8-0.8,4.6-1.4l1.5,3.4c-2.5,1.4-5.2,2.1-8.2,2.1c-5.7,0-9.2-3.6-9.2-9.4c0-5.9,4.6-9.6,9.6-9.6
			C115.6,17.3,117.9,21,117.9,26.2z"/>
		<path class="st2" d="M94.1,39c0-1.5-1.2-2-2.4-2h-5c-0.8,0.4-1.9,1.4-1.9,2.6c0,1.6,2.2,2.7,4.7,2.7C92.2,42.2,94.1,41,94.1,39
			 M92.6,23.3c0-1.5-0.8-2.8-2.7-2.8c-1.7,0-2.8,1.5-2.8,2.8c0,1.5,1,2.8,2.7,2.8C91.7,26.1,92.6,24.8,92.6,23.3z M99.8,38.2
			c0,5.3-5.3,7.8-10.5,7.8c-4.6,0-9-1.3-9-5.7c0-2.1,1.8-3.4,2.9-4.2c-0.6-0.4-1.2-0.6-1.7-1.2c-0.5-0.6-0.9-1.4-0.9-2.8
			c0-1.8,1.6-3.4,3.5-4.5c-1.1-0.6-2.5-1.4-2.5-4.4c0-3.9,3.7-5.9,8.5-5.9c4.1,0,8,1,8,5.8c0,4.6-4.3,6.2-8.6,6.2
			c-0.8,0-1.5-0.1-2.2-0.3c-0.5,0.2-1.4,0.9-1.4,1.5c0,1.4,1.9,1.6,2.8,1.6h4.5C97.3,32.2,99.8,34.2,99.8,38.2z"/>
		<path class="st2" d="M174,33.5c0.3,0,0.4,0,0.4-0.3c0-0.3-0.3-0.3-0.5-0.3h-0.4v0.6H174 M173,32.5h1c0.6,0,1,0.2,1,0.8
			c0,0.5-0.3,0.6-0.7,0.7L175,35h-0.6l-0.6-1.1h-0.3V35H173V32.5z M173.9,35.6c0.9,0,1.6-0.7,1.6-1.8c0-1.1-0.7-1.8-1.6-1.8
			c-0.9,0-1.6,0.7-1.6,1.8C172.3,34.8,173,35.6,173.9,35.6z M173.9,31.5c1.3,0,2.3,1,2.3,2.3c0,1.3-1,2.3-2.3,2.3
			c-1.3,0-2.3-1-2.3-2.3C171.6,32.5,172.7,31.5,173.9,31.5z"/>
	</g>
</g>
<g id="Axonify" class="st0">
	<g class="st1">
		<polygon points="72.7,15.9 68.8,15.9 63.5,23.7 58.1,15.9 53.7,15.9 61.1,26 54.1,36 58.1,36 63.2,28.4 68.7,36 73.1,36 
			65.7,25.9 		"/>
		<path d="M158.6,26.3c-0.9,3.1-2.1,6.4-3.3,8.5c-3.1-7.7-6.6-18.8-6.6-18.8h-4.1c0,0,4.2,12.3,8.4,22.1c-1.6,2.1-4,3.9-8.1,5.6
			l1.3,3c4-1.6,7.3-3.8,9.7-6.9c2.6-3.3,4.5-7.8,6-12.4c1.4-4.4,2.1-8.2,2.5-11.4h-3.6C160.4,19,159.6,22.9,158.6,26.3z"/>
		<path d="M110.3,15.5c-2.2,0-4.2,0.7-6,2.5v-2.2h-3.6V36h3.6V20.9c1.6-1.6,3.4-2.3,4.9-2.3c2.9,0,4.2,1.8,4.4,4.4
			c0,0.7,0.1,1.6,0.1,2.4V36h3.6v-11c0-2.1-0.1-4.2-0.8-5.7C115.6,16.9,113.4,15.5,110.3,15.5z"/>
		<path d="M137.7,14.4c0-1.2,0-1.8,0.1-2.4c0.4-3.1,2-4.1,4.6-4.1c0.7,0,1.9,0.1,3.2,0.4l0.3-2.8c-1.3-0.4-2.7-0.5-3.7-0.5
			c-3.8,0-6.8,1.7-7.8,5.5c-0.3,1.3-0.4,2.7-0.4,4.7v0.8h-3.3v3.3h3.3V36h3.6V19.2h4.9v-3.3h-4.9V14.4z"/>
		<rect x="123.5" y="15.9" width="3.6" height="20.2"/>
		<path d="M125.3,6.7c-1.4,0-2.5,0.9-2.5,2.4c0,1.5,0.9,2.4,2.4,2.4c1.4,0,2.5-1,2.5-2.4C127.8,7.7,126.8,6.7,125.3,6.7z"/>
		<path d="M37,7.7L37,7.7L26.7,36h3.9l2.7-8h11.6l3,8h4.2L41.3,7.7H37z M34.4,25l4.5-13.3L43.8,25H34.4z"/>
		<polygon points="164.8,8.2 166.1,8.2 166.1,11.8 166.7,11.8 166.7,8.2 168.1,8.2 168.1,7.7 164.8,7.7 		"/>
		<path d="M171.9,7.7l-1,2.9c-0.1,0.3-0.2,0.5-0.2,0.7c0-0.1-0.1-0.3-0.2-0.6l-1-3h-0.8v4.2h0.5V8.3l1.2,3.6h0.5l1.2-3.5v3.5h0.5
			V7.7H171.9z"/>
		<g>
			<path d="M97.1,26c0-5.9-4.8-10.7-10.7-10.7c-5.9,0-10.7,4.8-10.7,10.7c0,2,0.6,3.9,1.5,5.5c0,0,1.5,2.2-1.5,5.2
				c0.8,0,1.5-0.1,2.1-0.4c0.6-0.2,1.1-0.5,1.5-0.7c0.4-0.3,0.7-0.5,1-0.8c1.7,1.2,3.8,1.9,6.1,1.9C92.3,36.7,97.1,31.9,97.1,26z
				 M86.4,33.5c-4.1,0-7.5-3.4-7.5-7.5c0-4.1,3.4-7.5,7.5-7.5c4.1,0,7.5,3.4,7.5,7.5C93.9,30.2,90.5,33.5,86.4,33.5z"/>
			<path d="M99.7,44.1c0.5-0.8,0.7-1.7,0.7-2.7c0-2.9-2.3-5.2-5.2-5.2c-2.9,0-5.2,2.3-5.2,5.2c0,2.9,2.3,5.2,5.2,5.2
				c1.1,0,2.1-0.4,3-0.9c0.1,0.1,0.3,0.3,0.5,0.4c0.2,0.1,0.4,0.2,0.7,0.4c0.3,0.1,0.9,0.2,1.3,0.2C99.2,45.1,99.7,44.1,99.7,44.1z
				 M95.2,44.1c-1.5,0-2.8-1.2-2.8-2.8c0-1.5,1.2-2.8,2.8-2.8c1.5,0,2.8,1.2,2.8,2.8C97.9,42.9,96.7,44.1,95.2,44.1z"/>
		</g>
	</g>
</g>
<g id="RideCo" class="st0">
	<g class="st1">
		<path id="Path_95" class="st2" d="M124.2,23.6c0,2.2,1.8,4.1,4.1,4.1c2.2,0,4.1-1.8,4.1-4.1s-1.8-4.1-4.1-4.1l0,0
			C126,19.5,124.2,21.4,124.2,23.6z"/>
		<path id="Path_96" class="st2" d="M48.8,27.1c0.5-0.3,1.1-0.6,1.5-1c0.6-0.4,1-1,1.4-1.5c0.5-0.7,0.8-1.4,1.1-2.2
			c0.3-0.9,0.4-1.9,0.4-2.9c0-1.1-0.2-2.2-0.6-3.3c-0.4-1-1-1.9-1.7-2.7c-0.8-0.8-1.8-1.4-2.8-1.9c-1.2-0.5-2.5-0.7-3.8-0.7H31V36
			h7.5v-7.8h2.7l3.4,7.8h8.6L48.8,27.1L48.8,27.1z M44.9,21.1c-0.5,0.3-1.1,0.5-1.7,0.5h-4.6v-3.9h4.6c0.6,0,1.2,0.1,1.7,0.5
			c0.5,0.3,0.8,0.9,0.7,1.5C45.6,20.2,45.4,20.7,44.9,21.1L44.9,21.1z"/>
		<rect id="Rectangle_278" x="55.2" y="11" class="st2" width="7.5" height="24.9"/>
		<path id="Path_97" class="st2" d="M166,18.3c-0.7-1.5-1.7-2.9-2.9-4.1c-1.3-1.2-2.7-2-4.3-2.6c-3.5-1.2-7.3-1.2-10.8,0
			c-1.6,0.6-3.1,1.5-4.3,2.6c-1.2,1.1-2.2,2.5-2.9,4.1c-1.4,3.4-1.4,7.1,0,10.5c0.7,1.5,1.6,2.9,2.9,4.1c1.3,1.2,2.7,2,4.3,2.6
			c3.5,1.2,7.3,1.2,10.8,0c1.6-0.6,3.1-1.5,4.3-2.6c1.2-1.1,2.2-2.5,2.9-4.1C167.4,25.4,167.4,21.6,166,18.3z M158.9,26
			c-0.3,0.7-0.7,1.4-1.2,2c-0.5,0.6-1.2,1-1.9,1.3c-1.6,0.6-3.3,0.6-4.9,0c-0.7-0.3-1.4-0.8-1.9-1.3c-0.5-0.6-0.9-1.2-1.2-2
			c-0.6-1.6-0.6-3.3,0-4.9c0.3-0.7,0.7-1.4,1.2-2c0.5-0.6,1.2-1,1.9-1.3c1.6-0.6,3.3-0.6,4.9,0c0.7,0.3,1.4,0.8,1.9,1.3
			c0.5,0.6,0.9,1.2,1.2,2C159.5,22.6,159.5,24.4,158.9,26z"/>
		<path id="Path_98" class="st2" d="M89.4,18.2c-0.7-1.5-1.6-2.8-2.9-3.9c-1.3-1.1-2.7-1.9-4.3-2.4c-1.8-0.6-3.6-0.8-5.5-0.8H65.6
			V36h11.2c1.8,0,3.7-0.3,5.4-0.8c1.6-0.5,3.1-1.3,4.3-2.4c1.2-1.1,2.2-2.4,2.9-3.9C90.8,25.4,90.8,21.6,89.4,18.2L89.4,18.2
			L89.4,18.2z M82.4,25.7c-0.3,0.7-0.7,1.3-1.2,1.9c-0.5,0.6-1.2,1-1.9,1.3c-0.8,0.3-1.7,0.5-2.5,0.5h-3.6V17.6h3.6
			c0.9,0,1.8,0.1,2.6,0.4c0.7,0.3,1.4,0.7,1.9,1.2c0.5,0.5,0.9,1.2,1.1,1.9c0.3,0.7,0.4,1.5,0.4,2.3C82.8,24.2,82.6,25,82.4,25.7
			L82.4,25.7L82.4,25.7z"/>
		<path id="Path_99" class="st2" d="M110.7,17.6c0.8-2.4,2.1-4.7,3.7-6.6H92V36h22.2l-1.7-2.3c0-0.1-0.1-0.1-0.1-0.2
			c-0.2-0.3-0.4-0.6-0.5-0.9l-0.1-0.1c-0.5-1-0.9-2-1.3-3.1H99.5v-2.7h10.4c-0.4-2.2-0.3-4.4,0.1-6.6H99.5v-2.5L110.7,17.6
			L110.7,17.6z"/>
		<path id="Path_100" class="st2" d="M140.3,32.4l-5-4.2c-0.1-0.1-0.3-0.2-0.4-0.2c0,0,0,0,0,0c-0.2,0-0.3,0.1-0.4,0.2
			c-2.5,3.5-7.4,4.3-10.9,1.7c-3.5-2.5-4.3-7.4-1.7-10.9c1.5-2,3.8-3.2,6.3-3.2c2.5,0,4.8,1.2,6.3,3.2c0.1,0.1,0.3,0.2,0.4,0.2h0
			c0.2,0,0.3-0.1,0.4-0.2l4.8-4c0.3-0.3,0.3-0.7,0.1-1c-5.3-6.6-15-7.6-21.7-2.3c-5.7,4.6-7.4,12.5-4,19l0.1,0.1
			c0.1,0.2,0.3,0.5,0.4,0.7c0.2,0.4,1.1,1.6,2.3,3.1c0.3,0.3,10.2,12.7,10.2,12.7c0.2,0.4,0.7,0.5,1,0.3c0.1-0.1,0.2-0.2,0.3-0.3
			l11.6-14C140.6,33,140.6,32.6,140.3,32.4L140.3,32.4z"/>
	</g>
</g>
<g id="Motley" class="st0">
	<g class="st1">
		<g>
			<path class="st2" d="M13,31.2H8.3v-3.4h13v3.4h-4.6v13.7H13C13,44.9,13,31.2,13,31.2z"/>
			<path class="st2" d="M22.3,27.8h3.7V34c0.5-1.1,1.8-1.8,3.5-1.8c2.9,0,4.6,1.9,4.6,5.1v7.5h-3.7v-7.1c0-1.4-0.7-2.3-2.1-2.3
				s-2.3,1-2.3,2.5v7h-3.7V27.8L22.3,27.8z"/>
			<path class="st2" d="M35.2,38.7c0-3.9,2.8-6.5,6.6-6.5s6.3,2.8,6.3,6.3c0,0,0,0.6-0.1,1.2h-9.1c0.1,1.5,1.3,2.4,3.3,2.4
				c2.4,0,3.7-0.7,4.4-1.2v3.2c-1.2,0.7-2.4,1.1-4.6,1.1c-4,0-6.7-2.5-6.7-6.4V38.7z M44.4,37.3c0-1.1-1.1-2-2.6-2
				c-1.5,0-2.8,0.9-2.9,2H44.4L44.4,37.3z"/>
			<path class="st2" d="M55.2,27.2l9,9.9l9-9.9v17.7h-3.6v-8.7l-5.4,6.1l-5.4-6.1v8.7h-3.6L55.2,27.2L55.2,27.2z"/>
			<path class="st2" d="M81.4,32.1c3.8,0,6.9,2.9,6.9,6.6s-3.1,6.6-6.9,6.6c-3.8,0-6.9-2.9-6.9-6.6S77.5,32.1,81.4,32.1L81.4,32.1z
				 M81.4,41.9c1.8,0,3.2-1.4,3.2-3.2c0-1.8-1.4-3.2-3.2-3.2c-1.8,0-3.2,1.4-3.2,3.2S79.6,41.9,81.4,41.9z"/>
			<path class="st2" d="M90.3,35.8h-1.6v-3.3h1.6v-4.7h3.6v4.7h2.7v3.3h-2.7v9.1h-3.6V35.8z"/>
			<path class="st2" d="M97.6,27.8h3.7v17.1h-3.7C97.6,44.9,97.6,27.8,97.6,27.8z"/>
			<path class="st2" d="M102.4,38.7c0-3.9,2.8-6.5,6.6-6.5s6.3,2.8,6.3,6.3c0,0,0,0.6-0.1,1.2h-9.1c0.1,1.5,1.3,2.4,3.3,2.4
				c2.4,0,3.7-0.7,4.4-1.2v3.2c-1.2,0.7-2.4,1.1-4.6,1.1c-4,0-6.7-2.5-6.7-6.4L102.4,38.7L102.4,38.7z M111.6,37.3
				c0-1.1-1.1-2-2.6-2c-1.5,0-2.8,0.9-2.9,2H111.6L111.6,37.3z"/>
			<path class="st2" d="M114.7,32.5h3.8l3.3,8.3l3.3-8.3h3.8l-7.3,17.2h-3.8l2-4.5L114.7,32.5L114.7,32.5z"/>
			<path class="st2" d="M135.1,27.8h11.3v3.4h-7.5v3.5h6.8v3.4h-6.8v6.8h-3.8C135.1,44.9,135.1,27.8,135.1,27.8z"/>
			<path class="st2" d="M153.9,32.1c3.8,0,6.9,2.9,6.9,6.6s-3.1,6.6-6.9,6.6c-3.8,0-6.9-2.9-6.9-6.6S150,32.1,153.9,32.1z
				 M153.9,41.9c1.8,0,3.2-1.4,3.2-3.2c0-1.8-1.4-3.2-3.2-3.2c-1.8,0-3.2,1.4-3.2,3.2S152,41.9,153.9,41.9z"/>
			<path class="st2" d="M168.4,32.1c3.8,0,6.9,2.9,6.9,6.6s-3.1,6.6-6.9,6.6s-6.9-2.9-6.9-6.6S164.5,32.1,168.4,32.1z M168.4,41.9
				c1.8,0,3.2-1.4,3.2-3.2c0-1.8-1.4-3.2-3.2-3.2s-3.2,1.4-3.2,3.2S166.5,41.9,168.4,41.9z"/>
			<path class="st2" d="M176.6,27.8h3.7v17.1h-3.7C176.6,44.9,176.6,27.8,176.6,27.8z"/>
			<g>
				<circle class="st2" cx="189.2" cy="23.4" r="2.5"/>
				<path class="st2" d="M188.9,19c0.2,0,0.3-0.2,0.3-0.4c-1.7-10.9-7.7-19-14.9-19c-4.9,0-10.4,3.7-13.2,9.4
					c-2.8-5.8-8.4-9.4-13.2-9.4c-7.2,0-13.2,8.1-14.9,19c0,0.2,0.1,0.4,0.3,0.4c0.2,0,0.3-0.1,0.4-0.2c1.7-4.2,4.6-6.9,7.9-6.9
					c4.8,0,8.9,5.8,9.4,13.8c0.6,1.3,5.5,2.3,10.1,2.5c4.5-0.2,9.5-1.2,10.1-2.5c0.5-8,4.6-13.8,9.4-13.8c3.3,0,6.2,2.8,7.9,6.9
					C188.6,19,188.8,19.1,188.9,19L188.9,19z"/>
				<path class="st2" d="M133.1,20.9c-1.4,0-2.5,1.1-2.5,2.5c0,1.4,1.1,2.5,2.5,2.5s2.5-1.1,2.5-2.5
					C135.5,22.1,134.4,20.9,133.1,20.9z"/>
			</g>
		</g>
		<path class="st2" d="M182.3,44.1c0-0.7,0.5-1.2,1.2-1.2c0.7,0,1.2,0.5,1.2,1.2s-0.5,1.2-1.2,1.2C182.9,45.3,182.3,44.8,182.3,44.1
			z M184.5,44.1c0-0.6-0.4-1-1-1c-0.6,0-1,0.4-1,1c0,0.6,0.4,1,1,1C184.1,45,184.5,44.6,184.5,44.1z M183.1,43.4h0.5
			c0.3,0,0.4,0.2,0.4,0.4c0,0.2-0.1,0.3-0.2,0.4l0.3,0.5h-0.3l-0.3-0.5h-0.2v0.5h-0.3L183.1,43.4L183.1,43.4z M183.6,44
			c0.1,0,0.2-0.1,0.2-0.2c0-0.1-0.1-0.2-0.2-0.2h-0.2V44L183.6,44L183.6,44z"/>
	</g>
</g>
<g id="Communitech" class="st0">
	<g class="st1">
		<path class="st2" d="M128.2,13.8h14.9v5.1h-4.8v13.5h-5.4V18.9h-4.7L128.2,13.8L128.2,13.8z M117.3,9.4l4,7v-2.6h5.4v12l8.6,14.9
			l8.9-15.5V13.8h6.5l2.6-4.5H117.3L117.3,9.4z"/>
		<path class="st2" d="M10.6,25.5h3.1V26c0,2.3-0.4,3.7-1.2,4.4c-0.8,0.7-2.6,1-5.5,1c-3.2,0-5.2-0.5-5.9-1.6S0,26,0,21.4
			c0-2.7,0.5-4.4,1.5-5.3c1-0.8,3.1-1.3,6.3-1.3c2.3,0,3.9,0.3,4.6,1c0.8,0.7,1.2,2.1,1.2,4.1l0,0.4h-3.1V20c0-1.1-0.2-1.7-0.6-2
			c-0.4-0.3-1.3-0.5-2.7-0.5c-1.9,0-3,0.2-3.4,0.7s-0.6,1.9-0.6,4.2c0,3.1,0.2,4.9,0.5,5.5C4,28.5,5.1,28.7,7,28.7
			c1.5,0,2.5-0.2,3-0.5c0.5-0.3,0.7-1,0.7-2.1L10.6,25.5L10.6,25.5z"/>
		<path class="st2" d="M24.3,17.5c-2.1,0-3.3,0.3-3.6,0.8c-0.3,0.5-0.5,2.4-0.5,5.5c0,2.3,0.2,3.7,0.6,4.2c0.4,0.5,1.6,0.7,3.6,0.7
			s3-0.3,3.4-0.8c0.4-0.5,0.6-2.2,0.6-4.9s-0.2-4.3-0.5-4.8C27.5,17.8,26.3,17.5,24.3,17.5 M24.6,14.9c2.9,0,4.8,0.5,5.7,1.5
			c0.8,1,1.3,3.2,1.3,6.6c0,3.7-0.4,6.1-1.3,7c-0.9,1-2.9,1.5-6.2,1.5c-2.9,0-4.8-0.5-5.7-1.4c-0.9-1-1.3-3.1-1.3-6.3
			c0-3.9,0.4-6.3,1.3-7.3C19.2,15.4,21.3,14.9,24.6,14.9"/>
		<path class="st2" d="M54.8,15v16.2h-3.1v-8.9c0-0.7,0-1.5,0.1-2.4l0.1-1.2l0.1-1.2h-0.1l-0.4,1.1l-0.4,1.1c-0.3,1-0.6,1.8-0.8,2.2
			l-3.6,9.2h-2.8l-3.6-9.1c-0.2-0.5-0.5-1.3-0.8-2.2l-0.4-1.1l-0.4-1.1h-0.1l0.1,1.2l0.1,1.2c0.1,0.9,0.1,1.7,0.1,2.4v8.9h-3.1V15h5
			l2.9,7.5c0.2,0.5,0.5,1.3,0.8,2.2l0.4,1.1l0.4,1.1h0.1l0.3-1.1l0.4-1.1c0.3-0.9,0.5-1.7,0.8-2.2l2.9-7.5L54.8,15L54.8,15z"/>
		<path class="st2" d="M78.8,15v16.2h-3.1v-8.9c0-0.7,0-1.5,0.1-2.4l0.1-1.2l0.1-1.2h-0.1l-0.4,1.1l-0.4,1.1c-0.3,1-0.6,1.8-0.8,2.2
			l-3.6,9.2h-2.8l-3.6-9.1c-0.2-0.5-0.5-1.3-0.8-2.2l-0.4-1.1l-0.4-1.1h-0.1l0.1,1.2l0.1,1.2c0,0.9,0.1,1.7,0.1,2.4v8.9h-3.1V15h5
			l2.9,7.5c0.2,0.5,0.5,1.3,0.8,2.2l0.4,1.1l0.4,1.1h0.1l0.3-1.1l0.4-1.1c0.3-0.9,0.5-1.7,0.8-2.2l2.9-7.5L78.8,15L78.8,15z"/>
		<path class="st2" d="M94.3,15h3.1v10.8c0,2.3-0.4,3.8-1.3,4.5c-0.9,0.7-2.6,1.1-5.3,1.1c-2.8,0-4.7-0.3-5.6-1
			c-0.9-0.7-1.3-2.1-1.3-4.4V15h3.1v11c0,1.2,0.2,1.9,0.6,2.3c0.4,0.3,1.4,0.5,3,0.5s2.7-0.2,3.1-0.5c0.4-0.3,0.6-1.1,0.6-2.4
			L94.3,15L94.3,15z"/>
		<path class="st2" d="M117.4,15v16.2h-5.2l-4.6-8.9c-0.2-0.4-0.6-1.2-1.1-2.3l-0.5-1.2l-0.5-1.2h-0.1l0.1,1.1l0,1.1l0,2.1v9.3h-3.1
			V15h5.2l4.2,8.2c0.4,0.7,0.8,1.6,1.3,2.7l0.6,1.3l0.6,1.3h0.1l0-1l0-1l0-2.1V15H117.4L117.4,15z"/>
		<rect x="122.5" y="15" class="st2" width="3.1" height="16.2"/>
		<polygon class="st2" points="137.1,17.8 137.1,31.3 134.1,31.3 134.1,17.8 129.4,17.8 129.4,15 142,15 142,17.8 		"/>
		<polygon class="st2" points="148.5,17.6 148.5,21.8 156.1,21.8 156.1,24.1 148.5,24.1 148.5,28.7 156.6,28.7 156.6,31.3 
			145.4,31.3 145.4,15 156.5,15 156.5,17.6 		"/>
		<path class="st2" d="M171.1,25.5h3.1V26c0,2.3-0.4,3.7-1.2,4.4c-0.8,0.7-2.6,1-5.5,1c-3.2,0-5.2-0.5-5.9-1.6
			c-0.7-1-1.1-3.8-1.1-8.4c0-2.7,0.5-4.4,1.5-5.3c1-0.8,3.1-1.3,6.3-1.3c2.3,0,3.9,0.3,4.6,1c0.8,0.7,1.2,2.1,1.2,4.1l0,0.4H171V20
			c0-1.1-0.2-1.7-0.6-2c-0.4-0.3-1.3-0.5-2.7-0.5c-1.9,0-3,0.2-3.4,0.7c-0.4,0.5-0.6,1.9-0.6,4.2c0,3.1,0.2,4.9,0.5,5.5
			c0.3,0.6,1.5,0.9,3.3,0.9c1.5,0,2.5-0.2,3-0.5c0.5-0.3,0.7-1,0.7-2.1L171.1,25.5L171.1,25.5z"/>
		<polygon class="st2" points="192.1,15 192.1,31.3 189,31.3 189,24.2 181.4,24.2 181.4,31.3 178.3,31.3 178.3,15 181.4,15 
			181.4,21.7 189,21.7 189,15 		"/>
		<path class="st2" d="M197,15c1.4,0,2.5,1.1,2.5,2.5S198.4,20,197,20s-2.5-1.1-2.5-2.5S195.6,15,197,15 M197,19.6
			c1.1,0,2-0.9,2-2.1c0-1.2-0.9-2.1-2-2.1c-1.1,0-2,0.9-2,2.1S195.8,19.6,197,19.6 M196,16h1.1c0.7,0,1,0.3,1,0.8
			c0,0.5-0.3,0.8-0.7,0.8l0.8,1.3h-0.5l-0.8-1.3h-0.4v1.3H196V16z M196.5,17.3h0.6c0.4,0,0.6-0.1,0.6-0.5c0-0.3-0.3-0.4-0.6-0.4
			h-0.6C196.5,16.4,196.5,17.3,196.5,17.3z"/>
	</g>
</g>
<g id="Daggerwing">
	<g>
		<path class="st2" d="M25.2,36.3H25v-3.7l0,0c-0.7,1.3-1.6,2.2-2.5,2.7s-2.2,0.9-3.7,0.9c-0.9,0-1.8-0.2-2.6-0.6
			c-0.9-0.3-1.6-0.9-2.3-1.7c-0.7-0.8-1.1-1.7-1.6-2.7c-0.3-1-0.6-2.3-0.6-3.8c0-1.4,0.2-2.5,0.7-3.7c0.5-1.1,1-2.1,1.9-2.9
			c0.8-0.8,1.8-1.5,3-1.9c1.1-0.5,2.4-0.7,3.9-0.7c0.7,0,1.5,0,2.1,0.2s1.3,0.2,1.8,0.5c0-0.3,0-0.9,0-1.5c0-0.7,0-1.3,0-1.9v-3.2
			l-3.2-1.1V11l5.8-1.6h0.3v23.9c0.2,0.1,0.6,0.3,1.1,0.5c0.6,0.2,1,0.5,1.5,0.7v0.2L25.2,36.3z M25,22.4c-0.6-1-1.3-1.8-2.1-2.4
			c-0.8-0.6-1.6-0.9-2.3-0.9c-0.9,0-1.7,0.2-2.4,0.7c-0.8,0.3-1.4,0.9-1.8,1.7c-0.5,0.7-0.8,1.6-1,2.5c-0.1,0.9-0.2,1.9-0.2,3
			s0.1,1.9,0.3,3c0.2,0.9,0.6,1.8,1.1,2.5c0.5,0.7,1.1,1.3,1.8,1.7c0.7,0.5,1.6,0.7,2.5,0.7c1,0,1.8-0.3,2.6-1
			c0.7-0.7,1.1-1.6,1.4-2.6V22.4L25,22.4z"/>
		<path class="st2" d="M47.1,33.9c-0.2,0.5-0.5,0.8-0.8,1.1c-0.3,0.3-0.7,0.7-1.1,0.8C44.7,36,44.2,36,43.8,36
			c-0.8,0-1.6-0.2-2.2-0.7c-0.7-0.5-1-1.4-1-2.6h-0.1c-0.2,0.3-0.5,0.7-0.8,1c-0.3,0.5-0.7,0.8-1.1,1.1s-0.9,0.7-1.5,0.8
			c-0.6,0.2-1.1,0.3-1.8,0.3c-0.5,0-0.8,0-1.1-0.2c-0.5-0.1-0.8-0.3-1.1-0.6s-0.6-0.7-0.8-1c-0.2-0.5-0.3-1-0.3-1.6
			c0-0.7,0.2-1.4,0.8-1.9c0.6-0.7,1.3-1.3,2.1-1.7c0.8-0.5,1.5-0.9,2.2-1.4c0.7-0.3,1.1-0.7,1.6-0.9c0.5-0.2,0.9-0.5,1.3-0.7
			c0.3-0.2,0.7-0.3,0.9-0.5v-3.8c0,0,0-0.2-0.1-0.3c-0.1-0.2-0.2-0.3-0.5-0.6c-0.2-0.2-0.5-0.3-0.9-0.6c-0.3-0.1-0.9-0.2-1.5-0.2
			c-0.5,0-0.8,0.1-1.1,0.2c-0.3,0.1-0.7,0.3-1,0.5c-0.3,0.2-0.6,0.5-0.7,0.7c-0.1,0.1-0.1,0.3-0.1,0.5v1.7c0,0.3-0.2,0.7-0.6,0.9
			s-0.7,0.5-1.1,0.5s-0.7-0.1-1-0.5c-0.3-0.2-0.5-0.6-0.5-1c0-0.3,0.1-0.6,0.2-0.8c0.1-0.2,0.3-0.5,0.6-0.7c0.2-0.2,0.5-0.3,0.7-0.5
			c0.2-0.1,0.5-0.2,0.7-0.5c0.7-0.3,1.3-0.7,1.9-1c0.7-0.3,1.3-0.7,1.9-0.9c0.6-0.2,1.1-0.5,1.7-0.6c0.5-0.1,0.9-0.2,1.3-0.2
			c0.7,0,1.3,0.1,1.8,0.5c0.6,0.3,1,0.7,1.3,1.3c0.1,0.2,0.1,0.5,0.2,0.9c0,0.5,0,0.9,0,1.3c0,0.9,0,1.7,0,2.4s0,1.4,0,2.1
			c0,0.7,0,1.4,0,2.1s0,1.5,0,2.3c0,1.1,0.2,1.8,0.6,2.2s0.8,0.6,1.3,0.6c0.6,0,1-0.1,1.3-0.3c0.2-0.2,0.5-0.6,0.6-0.9h0.2
			C47.4,32.9,47.3,33.4,47.1,33.9L47.1,33.9z M40.6,26.1c-0.5,0.3-1,0.7-1.7,1c-0.7,0.3-1.3,0.7-1.9,1.1c-0.7,0.5-1.1,0.9-1.6,1.4
			c-0.5,0.5-0.7,1-0.7,1.7c0,0.7,0.2,1.3,0.7,1.7s1,0.8,1.7,0.8s1.3-0.1,1.7-0.2c0.5-0.1,0.9-0.5,1.4-0.9c0.3-0.2,0.5-0.6,0.5-1
			V26.1L40.6,26.1z"/>
		<path class="st2" d="M66,21.3c-0.2,0.2-0.6,0.5-0.9,0.5c-0.1,0-0.3,0-0.7-0.2c-0.3-0.1-0.7-0.2-1-0.5c-0.3-0.2-0.7-0.3-1-0.6
			s-0.7-0.5-1-0.6L61.2,20c0.3,0.6,0.7,1,0.9,1.6c0.2,0.5,0.3,1.1,0.3,1.9c0,1.9-0.7,3.4-2.1,4.4c-1.4,0.9-3.2,1.5-5.6,1.5
			c-0.3,0-0.7,0-1-0.1c-0.3,0-0.8-0.1-1.3-0.1c-0.8,0-1.4,0.2-1.8,0.6C50.2,30.1,50,30.4,50,31c0,0.5,0.1,0.7,0.3,1
			c0.2,0.2,0.6,0.5,0.9,0.6s0.8,0.2,1.3,0.3c0.5,0,0.9,0.1,1.3,0.1h6c0.9,0,1.6,0.1,2.3,0.5c0.7,0.3,1.3,0.7,1.7,1.1s0.9,1,1.1,1.6
			s0.3,1.3,0.3,2.1c0,0.9-0.2,1.8-0.7,2.7c-0.5,0.9-1.1,1.6-1.9,2.3c-0.9,0.7-1.8,1.1-3,1.6c-1.1,0.3-2.4,0.6-3.9,0.6
			c-2.6,0-4.8-0.5-6.3-1.1c-1.5-0.8-2.2-1.9-2.2-3.3c0-0.5,0.1-1,0.5-1.4c0.2-0.5,0.7-0.8,1-1.1c0.5-0.3,0.9-0.7,1.5-1
			c0.6-0.3,1-0.7,1.6-1v-0.1c-1.3-0.1-2.2-0.5-2.9-1c-0.7-0.6-1-1.3-1-2.3c0-0.5,0.1-0.9,0.3-1.4c0.2-0.5,0.6-0.8,0.9-1.1
			c0.5-0.3,0.9-0.7,1.4-0.9c0.5-0.2,1.1-0.3,1.7-0.5v-0.1c-1-0.5-1.9-1-2.5-1.8c-0.6-0.8-0.9-1.8-0.9-3.1c0-0.8,0.2-1.5,0.6-2.2
			c0.3-0.7,0.9-1.3,1.5-1.8c0.7-0.5,1.4-0.9,2.3-1.1c0.9-0.3,1.8-0.5,2.9-0.5c0.9,0,1.7,0.1,2.5,0.2c0.7,0.2,1.5,0.5,2.3,0.9
			c0.3,0.1,0.6,0.1,0.8,0.2c0.2,0,0.5,0,0.8,0s0.6,0,0.8-0.1s0.5-0.2,0.7-0.3s0.5-0.2,0.7-0.3s0.5-0.1,0.8-0.1c0.5,0,0.8,0.1,1,0.5
			c0.2,0.3,0.5,0.7,0.5,1C66.4,20.7,66.3,21,66,21.3L66,21.3z M62.4,37.9c-0.3-0.5-0.7-0.9-1-1c-0.6-0.2-1.3-0.5-2.1-0.6
			C58.5,36.2,57.4,36,56,36c-0.5,0-1,0-1.6,0.1c-0.6,0-1,0.1-1.4,0.1c-1.1,0.3-1.9,0.8-2.4,1.4C50.2,38.3,50,39,50,39.7
			c0,0.7,0.2,1.5,0.7,2.1c0.5,0.6,0.9,1,1.6,1.5c0.7,0.5,1.3,0.7,2.1,0.9c0.7,0.2,1.4,0.3,2.1,0.3c0.7,0,1.4,0,1.9-0.1
			c0.6-0.1,1-0.2,1.4-0.3c0.9-0.3,1.6-0.9,2.3-1.7c0.7-0.8,1-1.7,1-2.7C62.8,39,62.7,38.3,62.4,37.9L62.4,37.9z M59.3,21.8
			c-0.2-0.6-0.5-1-0.8-1.5c-0.3-0.5-0.8-0.8-1.3-1c-0.5-0.2-1-0.3-1.7-0.3c-0.6,0-1.1,0.1-1.7,0.5c-0.5,0.2-0.9,0.7-1.3,1.1
			s-0.6,1-0.8,1.6s-0.2,1.3-0.2,1.8c0,1.5,0.3,2.6,1.1,3.6c0.8,0.9,1.7,1.4,2.7,1.4c0.7,0,1.3-0.1,1.7-0.5c0.5-0.3,0.9-0.7,1.3-1.1
			s0.6-1,0.8-1.7c0.2-0.7,0.2-1.3,0.2-1.9C59.6,23,59.5,22.4,59.3,21.8z"/>
		<path class="st2" d="M84.4,21.3c-0.2,0.2-0.6,0.5-0.9,0.5c-0.1,0-0.3,0-0.7-0.2c-0.3-0.1-0.7-0.2-1-0.5c-0.3-0.2-0.7-0.3-1-0.6
			s-0.7-0.5-1-0.6L79.6,20c0.3,0.6,0.7,1,0.9,1.6c0.2,0.5,0.3,1.1,0.3,1.9c0,1.9-0.7,3.4-2.1,4.4c-1.4,0.9-3.2,1.5-5.6,1.5
			c-0.3,0-0.7,0-1-0.1c-0.3,0-0.8-0.1-1.3-0.1c-0.8,0-1.4,0.2-1.8,0.6c-0.5,0.3-0.7,0.7-0.7,1.3c0,0.5,0.1,0.7,0.3,1
			c0.2,0.2,0.6,0.5,0.9,0.6c0.3,0.1,0.8,0.2,1.3,0.3c0.5,0,0.9,0.1,1.3,0.1h6c0.9,0,1.6,0.1,2.3,0.5c0.7,0.3,1.3,0.7,1.7,1.1
			s0.9,1,1.1,1.6s0.3,1.3,0.3,2.1c0,0.9-0.2,1.8-0.7,2.7c-0.5,0.9-1.1,1.6-1.9,2.3c-0.9,0.7-1.8,1.1-3,1.6c-1.1,0.3-2.4,0.6-3.9,0.6
			c-2.6,0-4.8-0.5-6.3-1.1c-1.5-0.8-2.2-1.9-2.2-3.3c0-0.5,0.1-1,0.5-1.4c0.2-0.5,0.7-0.8,1-1.1c0.5-0.3,0.9-0.7,1.5-1
			c0.6-0.3,1-0.7,1.6-1v-0.1c-1.3-0.1-2.2-0.5-2.9-1s-1-1.3-1-2.3c0-0.5,0.1-0.9,0.3-1.4c0.2-0.5,0.6-0.8,0.9-1.1
			c0.5-0.3,0.9-0.7,1.4-0.9c0.5-0.2,1.1-0.3,1.7-0.5v-0.1c-1-0.5-1.9-1-2.5-1.8c-0.6-0.8-0.9-1.8-0.9-3.1c0-0.8,0.2-1.5,0.6-2.2
			c0.3-0.7,0.9-1.3,1.5-1.8c0.7-0.5,1.4-0.9,2.3-1.1c0.9-0.3,1.8-0.5,2.9-0.5c0.9,0,1.7,0.1,2.5,0.2c0.7,0.2,1.5,0.5,2.3,0.9
			c0.3,0.1,0.6,0.1,0.8,0.2c0.2,0,0.5,0,0.8,0s0.6,0,0.8-0.1s0.5-0.2,0.7-0.3c0.2-0.1,0.5-0.2,0.7-0.3c0.2-0.1,0.5-0.1,0.8-0.1
			c0.5,0,0.8,0.1,1,0.5c0.2,0.3,0.5,0.7,0.5,1C84.8,20.7,84.7,21,84.4,21.3L84.4,21.3z M80.8,37.9c-0.3-0.5-0.7-0.9-1-1
			c-0.6-0.2-1.3-0.5-2.1-0.6S75.7,36,74.3,36c-0.5,0-1,0-1.6,0.1c-0.6,0-1,0.1-1.4,0.1c-1.1,0.3-1.9,0.8-2.4,1.4
			c-0.5,0.7-0.7,1.4-0.7,2.1c0,0.7,0.2,1.5,0.7,2.1c0.5,0.6,0.9,1,1.6,1.5c0.7,0.5,1.3,0.7,2.1,0.9c0.7,0.2,1.4,0.3,2.1,0.3
			c0.7,0,1.4,0,1.9-0.1c0.6-0.1,1-0.2,1.4-0.3c0.9-0.3,1.6-0.9,2.3-1.7c0.7-0.8,1-1.7,1-2.7C81.2,39,81,38.3,80.8,37.9L80.8,37.9z
			 M77.7,21.8c-0.2-0.6-0.5-1-0.8-1.5c-0.3-0.5-0.8-0.8-1.3-1s-1-0.3-1.7-0.3c-0.6,0-1.1,0.1-1.7,0.5c-0.5,0.2-0.9,0.7-1.3,1.1
			s-0.6,1-0.8,1.6s-0.2,1.3-0.2,1.8c0,1.5,0.3,2.6,1.1,3.6c0.8,0.9,1.7,1.4,2.7,1.4c0.7,0,1.3-0.1,1.7-0.5s0.9-0.7,1.3-1.1
			s0.6-1,0.8-1.7c0.2-0.6,0.2-1.3,0.2-1.9C78,23,77.9,22.4,77.7,21.8z"/>
		<path class="st2" d="M98.9,32.4c-0.3,0.7-0.8,1.3-1.4,1.8c-0.6,0.6-1.3,1-2.2,1.4c-0.8,0.3-1.7,0.6-2.7,0.6
			c-1.3,0-2.4-0.2-3.4-0.7c-1-0.5-1.9-1.1-2.6-1.9c-0.7-0.9-1.3-1.8-1.7-3s-0.6-2.4-0.6-3.7c0-1,0.2-2.1,0.6-3.1
			c0.3-1,0.9-1.9,1.6-2.7s1.5-1.5,2.5-1.9c0.9-0.5,2.1-0.8,3.2-0.8c0.9,0,1.8,0.1,2.7,0.3s1.6,0.7,2.2,1.1s1.1,1.1,1.5,1.9
			c0.5,0.8,0.7,1.7,0.7,2.7H87.4c0,0.2,0,0.5,0,0.7c0,0.2,0,0.6,0,0.8c0,1,0.1,2.1,0.5,3c0.3,0.9,0.7,1.8,1.3,2.5
			c0.6,0.7,1.3,1.3,2.2,1.7s1.8,0.7,3,0.7c1.3,0,2.3-0.3,3.2-0.9c0.9-0.7,1.5-1.4,1.8-2.3l0.3,0.1C99.4,31,99.2,31.7,98.9,32.4
			L98.9,32.4z M94.6,19.9c-0.7-0.7-1.5-1-2.5-1c-0.7,0-1.3,0.2-1.8,0.6c-0.6,0.5-1,0.9-1.5,1.4c-0.5,0.6-0.7,1-0.9,1.6
			c-0.2,0.6-0.3,1-0.5,1.3h1.5c0.5,0,0.9,0,1.3,0c0.5,0,0.9,0,1.4,0c0.5,0,1,0,1.5,0c0.3,0,0.7,0,1,0c0.3,0,0.6-0.1,0.9-0.2
			c0.2-0.2,0.3-0.3,0.3-0.6c0.1-0.2,0.1-0.5,0.1-0.8C95.5,21.4,95.3,20.6,94.6,19.9L94.6,19.9z"/>
		<path class="st2" d="M111.8,21.6c-0.3,0.3-0.7,0.6-1.1,0.6c-0.5,0-0.7-0.1-0.9-0.2c-0.2-0.1-0.5-0.2-0.6-0.5
			c-0.2-0.2-0.3-0.3-0.6-0.5c-0.2-0.1-0.5-0.2-0.8-0.2c-0.3,0-0.6,0.1-0.9,0.3c-0.2,0.2-0.6,0.5-0.8,0.8s-0.5,0.7-0.7,1
			c-0.2,0.5-0.3,0.8-0.5,1.1v10.7c0.1,0.2,0.2,0.5,0.5,0.5c0.2,0.1,0.6,0.2,0.8,0.2c0.3,0,0.7,0.1,0.9,0.1c0.3,0,0.7,0,0.9,0.1V36
			h-8.2v-0.3c0.6,0,1-0.1,1.5-0.3s0.6-0.5,0.6-0.9V22.1c0-0.2,0-0.3,0-0.5c0-0.1-0.1-0.2-0.3-0.3c-0.2-0.1-0.5-0.2-0.8-0.5
			c-0.3-0.2-0.6-0.3-0.9-0.5v-0.2l4.8-1.8h0.2l-0.1,5.2h0.1c0.1-0.3,0.3-0.7,0.6-1.3c0.2-0.6,0.6-1.1,1-1.7c0.5-0.6,0.9-1,1.5-1.5
			c0.6-0.5,1.3-0.7,2.1-0.7c0.6,0,1.1,0.2,1.6,0.6c0.5,0.3,0.7,0.8,0.7,1.4C112.3,20.8,112.1,21.3,111.8,21.6L111.8,21.6z"/>
		<path class="st2" d="M140,19.1c-0.3,0-0.6,0.1-0.9,0.2c-0.3,0.1-0.6,0.3-0.9,0.7c-0.3,0.3-0.6,0.7-0.8,1.1c-0.3,0.7-0.7,1.5-1,2.4
			c-0.5,0.9-0.8,1.9-1.3,2.9c-0.5,1-0.9,2.1-1.3,3s-0.8,1.9-1.1,2.7c-0.2,0.5-0.5,0.9-0.6,1.1c-0.1,0.3-0.2,0.7-0.5,0.9
			c-0.1,0.2-0.2,0.5-0.3,0.8c-0.1,0.2-0.2,0.5-0.3,0.8c-0.1,0.1-0.2,0.2-0.3,0.2c-0.1,0-0.2,0-0.2-0.1c0,0-0.1-0.1-0.1-0.2
			c-0.3-0.9-0.7-1.8-0.9-2.7c-0.3-0.9-0.6-1.7-0.9-2.7c-0.3-0.9-0.7-1.9-1-3.1c-0.3-1.1-0.8-2.4-1.3-3.8l-3.6,9.2
			c-0.3,0.7-0.6,1.3-0.8,1.7s-0.3,0.9-0.7,1.5c-0.1,0.1-0.2,0.2-0.3,0.2c-0.1,0-0.2-0.1-0.3-0.2c-0.9-2.3-1.9-4.6-2.9-6.9
			c-0.9-2.2-1.8-4.6-2.9-7.1c-0.1-0.3-0.3-0.7-0.5-1.1c-0.2-0.5-0.3-0.8-0.6-1c-0.1-0.1-0.3-0.2-0.7-0.5c-0.2-0.2-0.8-0.2-1.6-0.3
			v-0.5h8.2v0.5c-0.2,0-0.3,0-0.6,0.1c-0.2,0-0.5,0.1-0.7,0.1c-0.2,0-0.5,0.1-0.7,0.2c-0.2,0.1-0.3,0.2-0.5,0.3
			c0,0.2,0.2,0.7,0.6,1.6c0.3,0.9,0.7,1.9,1.3,3.1c0.5,1.3,1,2.5,1.6,3.9c0.6,1.4,1,2.6,1.5,3.7c0.2-0.5,0.5-1,0.7-1.7
			c0.2-0.7,0.6-1.5,0.9-2.3c0.3-0.8,0.7-1.7,1-2.6c0.3-0.9,0.7-1.8,1-2.7c-0.2-0.5-0.3-0.9-0.6-1.4c-0.2-0.5-0.5-0.9-0.7-1.4
			c-0.1-0.1-0.1-0.1-0.2-0.2c0-0.1-0.1-0.2-0.3-0.2c-0.1-0.1-0.3-0.1-0.6-0.2c-0.2,0-0.6-0.1-1-0.1v-0.5h8.5v0.5
			c-0.2,0-0.5,0-0.7,0.1c-0.3,0-0.6,0.1-0.9,0.2c-0.2,0.1-0.6,0.2-0.7,0.3c-0.2,0.1-0.3,0.3-0.3,0.6c0,0.1,0.1,0.5,0.2,0.9
			c0.1,0.5,0.3,1,0.6,1.7c0.2,0.7,0.5,1.4,0.8,2.2c0.2,0.8,0.6,1.6,0.9,2.4c0.3,0.8,0.6,1.6,0.9,2.4c0.2,0.8,0.6,1.5,0.8,2.1
			c0.1-0.3,0.3-0.8,0.7-1.4c0.2-0.7,0.6-1.4,0.9-2.1c0.3-0.8,0.7-1.6,0.9-2.4c0.3-0.8,0.7-1.6,0.9-2.3c0.2-0.7,0.5-1.4,0.7-1.9
			s0.2-0.9,0.2-1.1c0-0.3-0.1-0.6-0.2-0.8s-0.3-0.3-0.6-0.5c-0.2-0.1-0.5-0.1-0.8-0.2c-0.3-0.1-0.5,0-0.7-0.1v-0.5h6.8V19
			C140.5,19.1,140.3,19.1,140,19.1L140,19.1z"/>
		<path class="st2" d="M140.5,36.2v-0.3c0.3,0,0.6,0,0.9-0.1c0.3,0,0.6-0.1,0.8-0.2c0.2-0.1,0.5-0.2,0.6-0.3
			c0.1-0.1,0.2-0.3,0.2-0.6V21.9c0-0.2,0-0.3,0-0.5c0-0.1-0.1-0.2-0.3-0.5c-0.2-0.1-0.5-0.3-0.8-0.5c-0.3-0.1-0.7-0.2-1-0.5v-0.2
			l5-1.6h0.2v16.5c0,0.2,0.1,0.5,0.3,0.6c0.1,0.1,0.3,0.2,0.6,0.2c0.2,0,0.5,0.1,0.7,0.1c0.2,0,0.5,0,0.8,0.1v0.3L140.5,36.2
			L140.5,36.2z"/>
		<path class="st2" d="M159.9,36.2v-0.5c0.7,0,1.1-0.1,1.6-0.2c0.5-0.1,0.6-0.3,0.6-0.8v-9.3c0-1.4-0.2-2.6-0.8-3.4
			c-0.6-0.9-1.5-1.3-2.7-1.3c-0.8,0-1.5,0.2-2.1,0.5c-0.6,0.3-1.1,0.9-1.8,1.5v12.1c0,0.2,0.1,0.5,0.2,0.6c0.1,0.1,0.2,0.2,0.5,0.2
			c0.2,0,0.3,0.1,0.6,0.1c0.2,0,0.5,0,0.7,0.1v0.3h-7.1v-0.3c0.6,0,1-0.1,1.5-0.3c0.5-0.2,0.6-0.5,0.6-0.9V21.9c0-0.2,0-0.3,0-0.5
			c0-0.1-0.1-0.2-0.3-0.3c-0.2-0.1-0.5-0.2-0.8-0.5c-0.3-0.1-0.6-0.3-0.9-0.5V20l4.8-1.7h0.2v4h0.1c0.2-0.5,0.6-0.9,1-1.4
			s0.9-0.9,1.4-1.3c0.5-0.5,1-0.7,1.7-1c0.7-0.3,1.3-0.3,1.9-0.3c1.4,0,2.5,0.6,3.2,1.6s1.1,2.4,1.1,4.1v10.9c0,0.2,0.1,0.3,0.2,0.5
			c0.1,0.1,0.3,0.2,0.6,0.2c0.2,0.1,0.5,0.1,0.7,0.1c0.2,0,0.5,0.1,0.7,0.1v0.3H159.9L159.9,36.2z"/>
		<path class="st2" d="M185.9,21.3c-0.2,0.2-0.6,0.5-0.9,0.5c-0.1,0-0.3,0-0.7-0.2c-0.3-0.1-0.7-0.2-1-0.5c-0.3-0.2-0.7-0.3-1-0.6
			c-0.3-0.2-0.7-0.5-1-0.6l-0.1,0.1c0.3,0.6,0.7,1,0.9,1.6c0.2,0.5,0.3,1.1,0.3,1.9c0,1.9-0.7,3.4-2.1,4.4c-1.4,0.9-3.2,1.5-5.6,1.5
			c-0.3,0-0.7,0-1-0.1c-0.3,0-0.8-0.1-1.3-0.1c-0.8,0-1.4,0.2-1.8,0.6c-0.5,0.3-0.7,0.7-0.7,1.3c0,0.5,0.1,0.7,0.3,1
			c0.2,0.2,0.6,0.5,0.9,0.6s0.8,0.2,1.3,0.3c0.5,0,0.9,0.1,1.3,0.1h5.8c0.9,0,1.6,0.1,2.3,0.5c0.7,0.3,1.3,0.7,1.7,1.1
			c0.5,0.5,0.9,1,1.1,1.6c0.2,0.6,0.3,1.3,0.3,2.1c0,0.9-0.2,1.8-0.7,2.7s-1.1,1.6-2.1,2.3c-0.9,0.7-1.8,1.1-3,1.6
			c-1.1,0.3-2.4,0.6-3.9,0.6c-2.6,0-4.8-0.5-6.3-1.1c-1.5-0.8-2.2-1.9-2.2-3.3c0-0.5,0.1-1,0.5-1.4c0.2-0.5,0.7-0.8,1-1.1
			c0.5-0.3,0.9-0.7,1.5-1c0.6-0.3,1-0.7,1.6-1v-0.1c-1.3-0.1-2.2-0.5-2.9-1c-0.7-0.6-1-1.3-1-2.3c0-0.5,0.1-0.9,0.3-1.4
			c0.2-0.5,0.6-0.8,0.9-1.1c0.5-0.3,0.9-0.7,1.4-0.9c0.6-0.2,1.1-0.3,1.7-0.5v-0.1c-1-0.5-1.9-1-2.5-1.8c-0.6-0.8-0.9-1.8-0.9-3.1
			c0-0.8,0.2-1.5,0.6-2.2c0.3-0.7,0.9-1.3,1.5-1.8c0.7-0.5,1.4-0.9,2.3-1.1c0.9-0.3,1.8-0.5,2.9-0.5c0.9,0,1.7,0.1,2.5,0.2
			c0.7,0.2,1.5,0.5,2.3,0.9c0.3,0.1,0.6,0.1,0.8,0.2c0.2,0,0.5,0,0.8,0s0.6,0,0.8-0.1s0.5-0.2,0.7-0.3c0.2-0.1,0.5-0.2,0.7-0.3
			c0.2-0.1,0.5-0.1,0.8-0.1c0.5,0,0.8,0.1,1,0.5c0.2,0.3,0.5,0.7,0.5,1C186.3,20.7,186.2,21,185.9,21.3L185.9,21.3z M182.3,37.9
			c-0.3-0.5-0.7-0.9-1-1c-0.6-0.2-1.3-0.5-2.1-0.6s-1.9-0.2-3.3-0.2c-0.5,0-1,0-1.6,0.1c-0.6,0-1,0.1-1.4,0.1
			c-1.1,0.3-1.9,0.8-2.4,1.4c-0.5,0.7-0.7,1.4-0.7,2.1c0,0.7,0.2,1.5,0.7,2.1c0.5,0.6,0.9,1,1.6,1.5c0.7,0.5,1.3,0.7,2.1,0.9
			c0.7,0.2,1.4,0.3,2.1,0.3c0.7,0,1.4,0,1.9-0.1c0.6-0.1,1-0.2,1.4-0.3c0.9-0.3,1.6-0.9,2.3-1.7c0.7-0.8,1-1.7,1-2.7
			C182.8,39,182.6,38.3,182.3,37.9L182.3,37.9z M179.2,21.8c-0.2-0.6-0.5-1-0.8-1.5c-0.3-0.5-0.8-0.8-1.3-1c-0.5-0.2-1-0.3-1.7-0.3
			c-0.6,0-1.1,0.1-1.7,0.5c-0.5,0.2-0.9,0.7-1.3,1.1s-0.6,1-0.8,1.6s-0.2,1.3-0.2,1.8c0,1.5,0.3,2.6,1.1,3.6
			c0.8,0.9,1.7,1.4,2.7,1.4c0.7,0,1.3-0.1,1.7-0.5c0.5-0.3,0.9-0.7,1.3-1.1s0.6-1,0.8-1.7c0.2-0.7,0.2-1.3,0.2-1.9
			C179.5,23,179.4,22.4,179.2,21.8z"/>
		<path class="st2" d="M149,10c0,2.5-2.1,4.6-4.6,4.6s-4.6-2.1-4.6-4.6s2.1-4.6,4.6-4.6C147.1,5.5,149,7.5,149,10z"/>
		<path class="st2" d="M157.5,8c-0.2-0.2-0.6-0.5-0.9-0.6s-0.7-0.2-1.1-0.2s-0.9,0.1-1.3,0.2c-0.3,0.2-0.7,0.5-0.9,0.7
			c-0.2,0.2-0.5,0.7-0.6,1s-0.2,0.8-0.2,1.1c0,0.5,0.1,0.8,0.2,1.1c0.1,0.3,0.3,0.7,0.6,1c0.2,0.2,0.6,0.5,0.9,0.7s0.8,0.2,1.3,0.2
			s0.8,0,1.1-0.1s0.6-0.2,0.8-0.3v-2.2h-1.7v-0.6h2.4v3.2c-0.3,0.2-0.8,0.5-1.3,0.6s-0.9,0.2-1.4,0.2c-0.6,0-1-0.1-1.5-0.2
			c-0.5-0.2-0.9-0.5-1.1-0.8c-0.3-0.3-0.6-0.7-0.8-1.1s-0.2-0.9-0.2-1.5s0.1-1,0.2-1.5c0.2-0.5,0.5-0.9,0.8-1.1
			c0.3-0.2,0.7-0.6,1.1-0.8s0.9-0.2,1.5-0.2s1,0.1,1.5,0.2c0.5,0.2,0.8,0.5,1,0.7L157.5,8L157.5,8z"/>
		<path class="st2" d="M160.5,13.8h-0.7V6.7h2.2c0.3,0,0.7,0,1,0.1c0.3,0.1,0.6,0.2,0.8,0.3s0.3,0.3,0.5,0.6
			c0.1,0.2,0.2,0.6,0.2,0.9c0,0.2,0,0.5-0.1,0.7s-0.2,0.5-0.3,0.6c-0.1,0.1-0.3,0.2-0.6,0.3c-0.2,0.1-0.5,0.1-0.7,0.2l2.1,3.4h-0.9
			l-1.9-3.3h-1.3v3.2H160.5z M160.5,9.9h1.3c0.6,0,1-0.1,1.4-0.3c0.3-0.2,0.5-0.6,0.5-0.9c0-0.2,0-0.5-0.1-0.6
			c-0.1-0.1-0.2-0.3-0.3-0.5c-0.1-0.1-0.3-0.2-0.6-0.2s-0.5-0.1-0.7-0.1h-1.3L160.5,9.9L160.5,9.9L160.5,9.9z"/>
		<path class="st2" d="M172.7,10.3c0,0.6-0.1,1-0.2,1.5c-0.2,0.5-0.5,0.9-0.8,1.1c-0.3,0.3-0.7,0.6-1.1,0.8s-0.9,0.2-1.5,0.2
			s-1-0.1-1.5-0.2c-0.5-0.2-0.9-0.5-1.1-0.8c-0.3-0.3-0.6-0.7-0.8-1.1s-0.2-0.9-0.2-1.5c0-0.6,0.1-1,0.2-1.5
			c0.2-0.5,0.5-0.9,0.8-1.1c0.3-0.3,0.7-0.6,1.1-0.8c0.5-0.2,0.9-0.2,1.5-0.2s1,0.1,1.5,0.2c0.5,0.2,0.9,0.5,1.1,0.8
			c0.3,0.3,0.6,0.7,0.8,1.1C172.6,9.2,172.7,9.7,172.7,10.3z M171.9,10.3c0-0.5-0.1-0.8-0.2-1.1c-0.1-0.3-0.3-0.7-0.6-1
			c-0.2-0.2-0.6-0.5-0.9-0.7s-0.8-0.2-1.3-0.2c-0.5,0-0.9,0.1-1.3,0.2c-0.3,0.2-0.7,0.5-0.9,0.7c-0.2,0.2-0.5,0.7-0.6,1
			c-0.1,0.3-0.2,0.8-0.2,1.1c0,0.5,0.1,0.8,0.2,1.1c0.1,0.3,0.3,0.7,0.6,1c0.2,0.2,0.6,0.5,0.9,0.7c0.3,0.2,0.8,0.2,1.3,0.2
			c0.5,0,0.9-0.1,1.3-0.2c0.3-0.2,0.7-0.5,0.9-0.7s0.5-0.6,0.6-1C171.8,11.1,171.9,10.7,171.9,10.3z"/>
		<path class="st2" d="M176.5,14c-0.6,0-1-0.1-1.4-0.2c-0.3-0.2-0.7-0.5-0.8-0.7c-0.2-0.2-0.3-0.6-0.5-0.9c-0.1-0.3-0.1-0.7-0.1-0.9
			V6.7h0.7v4.5c0,0.2,0,0.6,0.1,0.8c0.1,0.2,0.2,0.6,0.3,0.7c0.1,0.2,0.3,0.3,0.6,0.5c0.2,0.1,0.6,0.2,0.9,0.2
			c0.3,0,0.7-0.1,0.9-0.2s0.5-0.3,0.6-0.5c0.1-0.2,0.2-0.5,0.3-0.7s0.1-0.6,0.1-0.8V6.7h0.7v4.5c0,0.3,0,0.6-0.1,0.9
			c-0.1,0.3-0.2,0.7-0.5,0.9c-0.2,0.2-0.5,0.6-0.8,0.7C177.4,13.9,177,14,176.5,14L176.5,14z"/>
		<path class="st2" d="M180.7,6.7h2.1c0.3,0,0.7,0,1,0.1c0.3,0.1,0.6,0.2,0.8,0.3s0.3,0.3,0.5,0.6c0.1,0.2,0.2,0.6,0.2,0.9
			s0,0.6-0.2,0.8c-0.1,0.2-0.2,0.5-0.5,0.6s-0.5,0.2-0.8,0.3c-0.3,0.1-0.7,0.1-1,0.1h-1.3v3.3h-0.7L180.7,6.7L180.7,6.7L180.7,6.7z
			 M181.4,9.9h1.3c0.6,0,1-0.1,1.3-0.3c0.3-0.2,0.5-0.6,0.5-1s-0.1-0.8-0.5-1c-0.3-0.2-0.7-0.3-1.3-0.3h-1.3V9.9L181.4,9.9
			L181.4,9.9z"/>
	</g>
</g>
</svg>
