<?xml version="1.0" encoding="utf-8"?>
<!-- Generator: Adobe Illustrator 22.1.0, SVG Export Plug-In . SVG Version: 6.00 Build 0)  -->
<svg version="1.1" id="Horizontal" xmlns="http://www.w3.org/2000/svg" xmlns:xlink="http://www.w3.org/1999/xlink" x="0px" y="0px"
	 viewBox="0 0 446.0016 179" style="enable-background:new 0 0 446.0016 179;" xml:space="preserve">
<style type="text/css">
	.st0{fill:url(#SVGID_1_);}
	.st1{fill:url(#SVGID_2_);}
	.st2{fill:url(#SVGID_3_);}
</style>
<g>
	<linearGradient id="SVGID_1_" gradientUnits="userSpaceOnUse" x1="1.2234" y1="89.5508" x2="1.2234" y2="89.5508">
		<stop  offset="0" style="stop-color:#F89E22"/>
		<stop  offset="0" style="stop-color:#F89B21"/>
		<stop  offset="0" style="stop-color:#F6911E"/>
		<stop  offset="0" style="stop-color:#F68F1E"/>
		<stop  offset="0.3826" style="stop-color:#F7921D"/>
		<stop  offset="0.7021" style="stop-color:#F89D1B"/>
		<stop  offset="0.9986" style="stop-color:#FBAE17"/>
		<stop  offset="1" style="stop-color:#FBAE17"/>
	</linearGradient>
	<path class="st0" d="M1.2234,89.5508"/>
</g>
<g>
	<g>
		<path d="M144.2452,95.3634c-11.7042-2.5089-14.435-5.321-14.435-10.4152c0-4.8587,4.4019-8.6609,11.3205-8.6609
			c5.4754,0,10.4121,1.7522,15.3486,5.7764l3.4998-4.6376c-5.401-4.3321-10.9442-6.5331-18.6973-6.5331
			c-10.1051,0-17.4727,6.0787-17.4727,14.5929c0,8.8108,5.6266,12.7629,17.8562,15.4218
			c11.1698,2.3543,13.8261,5.1687,13.8261,10.1819c0,5.3988-4.7064,9.1187-11.8506,9.1187c-7.3698,0-12.6897-2.509-18.2395-7.5233
			l-3.7211,4.4099c6.3844,5.7,13.2985,8.5065,21.7328,8.5065c10.5654,0,18.1606-5.9231,18.1606-15.1207
			C161.5736,102.2698,156.1048,97.9433,144.2452,95.3634z"/>
		<polygon points="174.3692,77.1994 192.2252,77.1994 192.2252,124.839 198.3094,124.839 198.3094,77.1994 216.1589,77.1994 
			216.1589,71.6518 174.3692,71.6518 		"/>
		<polygon points="311.3134,99.4073 293.3806,71.6518 287.2022,71.6518 308.2013,104.9548 308.2013,124.839 314.2766,124.839 
			314.2766,104.8782 336.3884,71.6518 329.3973,71.6518 		"/>
		<polygon points="370.4197,112.1303 351.4923,71.6518 344.8174,71.6518 370.3409,125.2223 395.8733,71.6518 389.4123,71.6518 		"/>
		<polygon points="444.742,77.1239 444.742,71.6518 407.3271,71.6518 407.3271,124.839 444.742,124.839 444.742,119.3749 
			413.3348,119.3749 413.3348,100.7577 431.669,100.7577 431.669,95.2845 413.3348,95.2845 413.3348,77.1239 		"/>
		<path d="M275.4696,87.987c0-9.0217-7.3136-16.3352-16.3352-16.3352h-25.1127v53.1872h6.0101V77.1994h19.1026v-0.0045
			c5.9603,0,10.7921,4.8318,10.7921,10.7921c0,5.9601-4.8318,10.7918-10.7921,10.7918h-8.1111l4.1923,5.3999h0.0158l15.4183,20.6603
			h7.3719l-15.6645-20.8349C269.8351,102.5081,275.4696,95.9053,275.4696,87.987z"/>
	</g>
	<g>
		<polygon points="21.6435,124.9367 42.3149,124.9367 83.1732,54.2071 62.4792,54.2071 		"/>
		
			<linearGradient id="SVGID_2_" gradientUnits="userSpaceOnUse" x1="37.0825" y1="885.3668" x2="98.4708" y2="779.0392" gradientTransform="matrix(1 0 0 1 0 -716)">
			<stop  offset="0" style="stop-color:#FF8700"/>
			<stop  offset="0.3335" style="stop-color:#FF8A00"/>
			<stop  offset="0.6012" style="stop-color:#FF9400"/>
			<stop  offset="0.8453" style="stop-color:#FFA500"/>
			<stop  offset="1" style="stop-color:#FFB400"/>
		</linearGradient>
		<polygon class="st1" points="83.1732,54.2071 31.9813,142.825 52.4013,178.2111 103.5842,89.5596 		"/>
		
			<linearGradient id="SVGID_3_" gradientUnits="userSpaceOnUse" x1="6.3246" y1="832.0923" x2="67.713" y2="725.7648" gradientTransform="matrix(1 0 0 1 0 -716)">
			<stop  offset="0" style="stop-color:#FF8700"/>
			<stop  offset="0.3335" style="stop-color:#FF8A00"/>
			<stop  offset="0.6012" style="stop-color:#FF9400"/>
			<stop  offset="0.8453" style="stop-color:#FFA500"/>
			<stop  offset="1" style="stop-color:#FFB400"/>
		</linearGradient>
		<polygon class="st2" points="52.4154,0.9327 1.2235,89.5506 21.6435,124.9367 72.8264,36.2852 		"/>
	</g>
</g>
</svg>
