<?xml version="1.0" encoding="UTF-8"?><svg id="Layer_1" xmlns="http://www.w3.org/2000/svg" viewBox="0 0 157.65 37.87"><defs><style>.cls-1,.cls-2{fill:#fff;}.cls-2{fill-rule:evenodd;}</style></defs><path class="cls-1" d="M70.7,34.33c-6.14,2.21-13.94,3.5-22.44,3.55,8.8-.51,17.15-2.19,22.63-4.82-.07,.42-.13,.84-.19,1.27"/><path class="cls-1" d="M48.95,37.58c-2.79,.16-6.4,.04-7.17,.01,13.71-.16,23.55-3.32,29.61-7.12-.14,.63-.28,1.27-.39,1.93-5.47,2.64-13.24,4.67-22.05,5.17"/><path class="cls-1" d="M42.41,37.29c-1.38-.02-3.09-.13-3.77-.17,14.6,.15,28.18-4.92,33.63-9.86-.24,.74-.46,1.5-.66,2.3-6.87,4.43-17.99,7.88-29.2,7.73"/><path class="cls-1" d="M74.07,22.94c-.5,.95-.97,2-1.39,3.14-3.94,3.98-15.57,9.66-29.15,10.55-2.95,.19-7.09,.12-7.77,.08,1.11-.03,2.21-.09,3.29-.18,15.38-1.1,28.33-6.3,34.86-13.46,.1-.08,.15-.12,.16-.12"/><path class="cls-1" d="M75.83,30.51c.08,.3,.42,1.33,.49,1.52-.7,.34-1.34,.62-2.08,.94-.04-.42-.13-.98-.14-1.41,.29-.17,1.43-.87,1.72-1.05"/><path class="cls-1" d="M80.2,27.3c.55,.55,1.15,1.04,1.8,1.46-.51,.35-1.1,.73-1.64,1.07-.42-.46-1.01-1.01-1.35-1.51,.39-.31,.83-.7,1.19-1.02"/><path class="cls-1" d="M75.27,27.68c.08,.72,.21,1.42,.37,2.1-.55,.36-1.09,.7-1.67,1.04,0-.14-.04-1.61,.03-2.14,0,0,.9-.68,1.28-.99"/><path class="cls-1" d="M75.85,27.16c.33-.29,.72-.64,1.04-.94,.24,.71,.54,1.39,.9,2.03-.48,.38-.98,.74-1.5,1.1-.19-.71-.36-1.45-.43-2.19"/><path class="cls-1" d="M79.63,26.7c-.36,.33-.73,.65-1.11,.96-.42-.64-.8-1.37-1.04-2.06,.27-.28,.53-.57,.78-.86,.4,.68,.9,1.39,1.36,1.95"/><path class="cls-1" d="M77.86,24.01c-.23,.28-.47,.56-.72,.83-.16-.58-.41-1.69-.49-2.2,.15-.21,.32-.49,.45-.71,.18,.61,.53,1.54,.76,2.08"/><path class="cls-1" d="M75.74,23.81c.17-.2,.33-.41,.48-.61,.08,.76,.22,1.5,.41,2.21-.29,.29-.63,.62-.93,.9-.03-.4-.04-1.55,.04-2.5"/><path class="cls-1" d="M75.18,26.75c-.37,.33-.81,.72-1.21,1.04,.11-.78,.27-1.78,.49-2.54,.24-.25,.47-.5,.7-.75-.01,.26,0,2.04,.02,2.26"/><path class="cls-1" d="M74.59,24.21c.25-1.09,.86-2.82,1.05-3.15-.18,.77-.32,1.56-.4,2.38-.19,.23-.45,.55-.65,.78"/><path class="cls-1" d="M76.19,20.26c.01,.7-.04,1.45-.01,1.99-.13,.19-.27,.37-.41,.56,.09-.84,.43-2.64,.43-2.55"/><path class="cls-1" d="M76.51,21.77c-.05-.67,.11-1.98,.2-2.33,.04,.53,.11,1.19,.21,1.7-.13,.21-.27,.42-.41,.63"/><path class="cls-1" d="M78.15,28.94c.2,.31,1.01,1.32,1.17,1.5-.72,.42-1.47,.82-2.24,1.21-.13-.32-.57-1.47-.6-1.55,.55-.36,1.15-.78,1.67-1.16"/><path class="cls-1" d="M73.49,33.26c-.66,.27-1.41,.57-2.09,.82,.05-.43,.11-.86,.17-1.28,.43-.2,1.69-.8,1.85-.89,.01,.45,.04,.9,.08,1.35"/><path class="cls-1" d="M73.4,31.13c-.53,.29-1.17,.65-1.72,.92,.12-.7,.25-1.39,.4-2.06,.43-.28,.99-.65,1.39-.93-.04,.64-.07,2.07-.07,2.07"/><path class="cls-1" d="M73.55,28.1c-.38,.29-.84,.65-1.24,.92,.2-.81,.42-1.6,.67-2.35,.28-.25,.69-.64,.91-.86-.14,.74-.26,1.5-.34,2.28"/><path class="cls-1" d="M74.83,22.27c-.26,.86-.48,1.56-.7,2.43-.18,.18-.47,.46-.71,.68,.42-1.13,.89-2.17,1.41-3.11"/><path class="cls-1" d="M82.68,3.55C88.82,1.33,96.62,.04,105.11,0c-8.8,.51-17.15,2.19-22.63,4.82,.07-.42,.13-.84,.19-1.27"/><path class="cls-1" d="M104.42,.29c2.79-.16,6.4-.04,7.17-.01-13.71,.16-23.55,3.32-29.61,7.12,.14-.63,.28-1.28,.39-1.94,5.47-2.64,13.24-4.67,22.05-5.17"/><path class="cls-1" d="M110.96,.58c1.38,.02,3.09,.13,3.77,.17-14.6-.15-28.18,4.92-33.63,9.86,.24-.74,.46-1.5,.66-2.3C88.63,3.88,99.75,.43,110.96,.58"/><path class="cls-1" d="M79.3,14.93c.5-.95,.97-2,1.39-3.14,3.94-3.98,15.57-9.66,29.15-10.55,2.95-.19,7.09-.12,7.77-.08-1.11,.03-2.21,.09-3.29,.18-15.38,1.1-28.33,6.3-34.86,13.46-.1,.08-.15,.12-.16,.12"/><path class="cls-1" d="M77.55,7.36c-.08-.3-.42-1.33-.49-1.52,.7-.34,1.34-.62,2.08-.94,.04,.42,.13,.98,.14,1.41-.29,.17-1.43,.87-1.72,1.05"/><path class="cls-1" d="M73.17,10.57c-.55-.55-1.15-1.04-1.8-1.46,.51-.35,1.1-.73,1.65-1.07,.42,.46,1.01,1.01,1.35,1.51-.39,.31-.83,.7-1.19,1.02"/><path class="cls-1" d="M78.11,10.19c-.08-.72-.21-1.42-.37-2.1,.55-.36,1.09-.7,1.67-1.04,0,.14,.04,1.61-.03,2.14,0,0-.9,.68-1.28,.99"/><path class="cls-1" d="M77.52,10.71c-.33,.29-.72,.64-1.04,.94-.24-.71-.54-1.39-.89-2.03,.48-.38,.98-.74,1.5-1.1,.19,.71,.36,1.45,.43,2.19"/><path class="cls-1" d="M73.75,11.18c.36-.33,.73-.65,1.11-.96,.42,.64,.8,1.37,1.04,2.06-.27,.28-.53,.57-.78,.86-.4-.68-.9-1.39-1.36-1.95"/><path class="cls-1" d="M75.51,13.86c.23-.28,.47-.56,.72-.83,.16,.58,.41,1.68,.49,2.2-.15,.21-.32,.49-.45,.71-.18-.61-.53-1.54-.76-2.08"/><path class="cls-1" d="M77.63,14.07c-.17,.2-.33,.41-.48,.61-.08-.76-.21-1.5-.41-2.21,.28-.29,.63-.62,.93-.9,.03,.4,.04,1.55-.04,2.5"/><path class="cls-1" d="M78.19,11.12c.37-.33,.81-.72,1.21-1.04-.11,.78-.27,1.78-.49,2.54-.24,.25-.47,.5-.7,.75,.01-.26,0-2.04-.02-2.26"/><path class="cls-1" d="M78.78,13.67c-.25,1.09-.86,2.82-1.05,3.15,.18-.77,.32-1.56,.4-2.38,.19-.23,.45-.55,.65-.77"/><path class="cls-1" d="M77.18,17.61c-.01-.7,.04-1.45,.01-1.99,.13-.19,.27-.37,.41-.56-.09,.84-.43,2.64-.43,2.55"/><path class="cls-1" d="M76.86,16.1c.05,.67-.11,1.98-.2,2.33-.04-.53-.11-1.19-.21-1.7,.13-.21,.27-.42,.41-.63"/><path class="cls-1" d="M75.22,8.93c-.2-.31-1.01-1.32-1.17-1.5,.72-.42,1.47-.82,2.24-1.21,.13,.32,.57,1.47,.6,1.55-.55,.36-1.15,.78-1.67,1.16"/><path class="cls-1" d="M79.89,4.61c.66-.27,1.41-.57,2.1-.82-.05,.43-.11,.86-.17,1.28-.43,.2-1.69,.8-1.85,.89-.01-.45-.04-.9-.08-1.35"/><path class="cls-1" d="M79.98,6.74c.53-.29,1.17-.65,1.72-.92-.12,.7-.25,1.39-.4,2.06-.43,.28-.99,.65-1.39,.93,.04-.64,.07-2.07,.07-2.07"/><path class="cls-1" d="M79.83,9.77c.38-.29,.84-.65,1.24-.92-.2,.81-.42,1.59-.67,2.35-.28,.25-.69,.64-.91,.86,.14-.74,.26-1.5,.34-2.28"/><path class="cls-1" d="M78.54,15.61c.26-.86,.48-1.56,.7-2.43,.18-.18,.47-.46,.71-.68-.42,1.13-.89,2.17-1.41,3.11"/><path class="cls-1" d="M91.57,18.63h-2.2l-.05,2.98c-.15,.1-.48,.21-.88,.2-1.66,0-2.64-1.25-2.64-2.83,0-1.68,1.24-2.78,2.9-2.78,.54,0,1.35,.18,1.82,.46l.7-1.64c-.58-.37-1.56-.63-2.74-.63-3.19,0-5.02,1.82-5.02,4.55s1.78,4.71,4.73,4.71c1.16,0,2.29-.14,3.35-.62l.05-4.39Z"/><polygon class="cls-1" points="95.24 23.39 101.28 23.39 101.28 21.56 97.54 21.56 97.57 19.88 101.32 19.88 101.32 18.14 97.58 18.14 97.6 16.46 101.36 16.46 101.36 14.64 95.32 14.64 95.24 23.39"/><polygon class="cls-1" points="104.93 23.39 106.99 23.39 107.04 17.65 107.06 17.65 110.21 23.39 112.84 23.39 112.92 14.64 110.86 14.64 110.81 20.38 110.78 20.38 107.76 14.64 105 14.64 104.93 23.39"/><polygon class="cls-1" points="116.59 23.39 122.63 23.39 122.63 21.56 118.89 21.56 118.91 19.88 122.67 19.88 122.67 18.14 118.93 18.14 118.95 16.46 122.71 16.46 122.71 14.64 116.66 14.64 116.59 23.39"/><polygon class="cls-1" points="125.4 16.46 127.92 16.46 127.84 23.39 130.12 23.39 130.19 16.46 132.56 16.46 132.56 14.64 125.4 14.64 125.4 16.46"/><polygon class="cls-1" points="135.56 23.39 137.84 23.39 137.92 14.64 135.64 14.64 135.56 23.39"/><path class="cls-1" d="M148.65,15.01c-.58-.37-1.55-.63-2.74-.63-3.19,0-5.02,1.82-5.02,4.55s1.78,4.71,4.73,4.71c1.26,0,2.28-.3,2.9-.65l-.67-1.63c-.7,.23-1.06,.46-1.96,.46-1.65,0-2.64-1.25-2.64-2.83,0-1.68,1.24-2.78,2.9-2.78,.54,0,1.32,.15,1.82,.46l.7-1.64Z"/><path class="cls-1" d="M151.25,23.15c.86,.29,1.81,.49,2.72,.49,1.95,0,3.68-.82,3.68-2.98,0-1.23-.61-2.12-2.85-2.63-1.01-.22-1.27-.52-1.27-.87,0-.56,.41-.95,1.49-.95,.47,0,1.27,.15,1.85,.37l.65-1.62c-.9-.34-1.81-.57-2.78-.57-1.66,0-3.55,.87-3.55,2.76,0,1.7,1.04,2.23,2.06,2.53,1.02,.3,2.05,.38,2.05,1.19s-.75,.96-1.45,.96c-.62,0-1.49-.22-2.02-.38l-.57,1.71Z"/><polygon class="cls-1" points="0 23.39 2.29 23.39 2.34 19.9 5.34 19.9 5.29 23.39 7.58 23.39 7.65 14.64 5.36 14.64 5.31 18 2.33 18 2.36 14.64 .08 14.64 0 23.39"/><polygon class="cls-1" points="11.49 23.39 17.54 23.39 17.54 21.56 13.8 21.56 13.82 19.88 17.58 19.88 17.58 18.14 13.83 18.14 13.86 16.46 17.62 16.46 17.62 14.64 11.57 14.64 11.49 23.39"/><polygon class="cls-1" points="21.31 23.39 23.37 23.39 23.42 17.65 23.44 17.65 26.59 23.39 29.22 23.39 29.3 14.64 27.24 14.64 27.19 20.38 27.16 20.38 24.14 14.64 21.38 14.64 21.31 23.39"/><path class="cls-2" d="M33.1,23.39h3.89c2.32,0,4.71-1.16,4.71-4.53,0-2.85-2.14-4.22-4.71-4.22h-3.83l-.06,8.75Zm2.34-7.08h.87c1.68,0,3.04,.64,3.04,2.67,0,1.82-1.14,2.74-2.94,2.74h-1.03l.06-5.41Z"/><path class="cls-2" d="M47.38,20.05h.34c.51,0,.72,.38,.99,.91l1.25,2.43h2.57l-1.53-2.73c-.32-.57-.7-1.11-1.2-1.26v-.03c1.25-.05,2.14-1.01,2.1-2.26,0-1.98-1.53-2.47-3.35-2.47h-3.44l-.08,8.75h2.3l.05-3.34Zm-.04-3.74h.92c.91,0,1.35,.32,1.35,1.04,0,.88-.76,1.04-1.3,1.04h-1.03l.05-2.07Z"/><polygon class="cls-1" points="55.54 23.39 57.82 23.39 57.89 14.64 55.62 14.64 55.54 23.39"/><polygon class="cls-1" points="60.8 23.39 63.42 23.39 64.91 20.47 66.45 23.39 69.12 23.39 66.41 18.86 69.03 14.64 66.57 14.64 65.02 17.33 63.69 14.64 61.13 14.64 63.56 18.83 60.8 23.39"/></svg>