<?xml version="1.0" encoding="utf-8"?>
<!-- Generator: Adobe Illustrator 26.3.1, SVG Export Plug-In . SVG Version: 6.00 Build 0)  -->
<svg version="1.1" id="Layer_1" xmlns="http://www.w3.org/2000/svg" xmlns:xlink="http://www.w3.org/1999/xlink" x="0px" y="0px"
	 viewBox="0 0 200 50" style="enable-background:new 0 0 200 50;" xml:space="preserve">
<style type="text/css">
	.st0{display:none;}
	.st1{display:inline;}
	.st2{fill:#FFFFFF;}
</style>
<g id="Gemini" class="st0">
	<g class="st1">
		<a xlink:href="67.836862745098" >
			<polygon id="fullLogo" points="61.5,38.1 78.2,38.1 78.2,34.6 65.2,34.6 65.2,26.7 76.5,26.7 76.5,23.2 65.2,23.2 65.2,15.3 
				78.2,15.3 78.2,11.8 61.5,11.8 			"/>
		</a>
		<a xlink:href="67.836862745098" >
			<polygon id="fullLogo-2" points="109.2,11.8 101.2,32 93.2,11.8 88.2,11.8 85.8,38.1 89.6,38.1 91.4,17.4 99.8,38.1 102.6,38.1 
				111,17.4 112.8,38.1 116.6,38.1 114.1,11.8 			"/>
		</a>
		<a xlink:href="67.836862745098" >
			<rect id="fullLogo-3" x="124.8" y="11.8" width="3.7" height="26.2"/>
		</a>
		<a xlink:href="67.836862745098" >
			<polygon id="fullLogo-4" points="154.9,30.8 141,11.8 137.8,11.8 137.8,38.1 141.6,38.1 141.6,19 155.6,38.1 158.7,38.1 
				158.7,11.8 154.9,11.8 			"/>
		</a>
		<a xlink:href="67.836862745098" >
			<rect id="fullLogo-5" x="168" y="11.8" width="3.7" height="26.2"/>
		</a>
		<g id="logoMark">
			<a xlink:href="41.5035294117647" >
				<path id="logoMark__PathItem_" d="M42.2,26.6c4.7,0.3,8.4,4.1,8.7,8.7h2.6V23.9H42.2V26.6z"/>
			</a>
			<a xlink:href="67.836862745098" >
				<path id="logoMark__PathItem_-2" d="M42.2,38.6v-3.2c-3.6,0-6.7-1.7-8.6-4.3c-1.3-1.7-2-3.8-2-6c0-5.7,4.8-10.3,10.7-10.3
					c2.9,0,5.6,1.1,7.6,3.1l2.3-2.3c-2.6-2.6-6.1-4-9.9-4c-7.7,0-13.9,6.1-13.9,13.6c0,3.7,1.5,7,3.9,9.4
					C34.7,37,38.2,38.6,42.2,38.6z"/>
			</a>
		</g>
	</g>
</g>
<g id="Miovison" class="st0">
	<g class="st1">
		<path class="st2" d="M61.4,37.3c-0.7,0.7-0.7,1.8,0,2.5s1.8,0.7,2.5,0c0.7-0.7,0.7-1.8,0-2.5S62.1,36.6,61.4,37.3z M76.3,12.7
			c0.7-0.7,0.7-1.8,0-2.5s-1.8-0.7-2.5,0s-0.7,1.8,0,2.5S75.6,13.4,76.3,12.7z M73.2,14.6L68.8,19l0,0c3.3,0,6,2.7,6,6
			c0,1.7-0.7,3.2-1.8,4.3L66.4,36c0.8,0.2,1.6,0.3,2.5,0.3c6.2,0,11.3-5,11.3-11.3C80.1,20.3,77.3,16.3,73.2,14.6z M68.8,31
			c-3.3,0-6-2.7-6-6c0-1.7,0.7-3.2,1.8-4.3l6.7-6.7c-0.8-0.2-1.6-0.3-2.5-0.3c-6.2,0-11.3,5-11.3,11.3c0,4.7,2.8,8.7,6.9,10.4
			L68.8,31C68.9,31,68.9,31,68.8,31z"/>
		<path class="st2" d="M40.9,35.7V22.2c0-2-0.9-3.4-3.2-3.4c-2,0-3.6,1.3-4.5,2.5v14.5h-5.7V22.2c0-2-0.9-3.4-3.2-3.4
			c-2,0-3.6,1.3-4.5,2.5v14.5h-5.6V14.3h5.7V17c0.9-1.2,3.7-3.3,7-3.3c3.2,0,5.2,1.5,6,3.9c1.2-1.9,4.1-3.9,7.4-3.9
			c3.9,0,6.3,2.1,6.3,6.5v15.5H40.9z"/>
		<path class="st2" d="M49.6,35.7V14.3h5.7v21.5L49.6,35.7L49.6,35.7z"/>
		<path class="st2" d="M87.9,35.7l-8.6-21.5h6.1L91,29.1l5.7-14.9h6L94,35.7H87.9z"/>
		<path class="st2" d="M104.1,35.7V14.3h5.7v21.5L104.1,35.7L104.1,35.7z"/>
		<path class="st2" d="M111.4,32.9l2.4-4.1c1.6,1.5,4.8,3,7.4,3c2.4,0,3.6-0.9,3.6-2.3c0-3.5-12.7-0.6-12.7-9.1
			c0-3.6,3.1-6.8,8.8-6.8c3.6,0,6.5,1.2,8.6,2.9l-2.3,4c-1.3-1.3-3.7-2.5-6.3-2.5c-2.1,0-3.4,0.9-3.4,2.1c0,3.2,12.8,0.5,12.8,9.2
			c0,3.9-3.4,6.9-9.3,6.9C117.3,36.3,113.6,35,111.4,32.9z"/>
		<path class="st2" d="M132.7,35.7V14.3h5.7v21.5L132.7,35.7L132.7,35.7z"/>
		<path class="st2" d="M180.1,35.7v-13c0-3-1.5-4-3.9-4c-2.2,0-3.9,1.2-4.9,2.5v14.5h-5.7V14.3h5.7V17c1.4-1.6,4-3.3,7.5-3.3
			c4.8,0,7,2.7,7,6.9v15.2L180.1,35.7L180.1,35.7z"/>
		<path class="st2" d="M152,13.7c-6.2,0-11.3,5-11.3,11.3s5,11.3,11.3,11.3s11.3-5,11.3-11.3C163.2,18.8,158.2,13.7,152,13.7z
			 M152,31c-3.3,0-6-2.7-6-6s2.7-6,6-6s6,2.7,6,6S155.3,31,152,31z"/>
	</g>
</g>
<g id="Oracle" class="st0">
	<g class="st1">
		<path d="M89.3,28.6h11.3l-6-9.7l-11,17.5h-5l13.4-21c0.6-0.8,1.6-1.4,2.6-1.4s2,0.5,2.6,1.3l13.4,21h-5l-2.4-3.9H91.8L89.3,28.6
			 M141.3,32.5V14.3H137v20c0,0.5,0.2,1.1,0.6,1.5c0.4,0.4,1,0.6,1.5,0.6h19.4l2.5-3.9L141.3,32.5 M71,29.3c4.1,0,7.5-3.3,7.5-7.5
			s-3.3-7.5-7.5-7.5H52.4v22.1h4.2V18.2h14.1c2,0,3.6,1.6,3.6,3.6s-1.6,3.6-3.6,3.6h-12l12.7,11.1h6.2l-8.5-7.2H71 M26.3,36.4h12.8
			c6.1,0,11-4.9,11-11s-4.9-11.1-11-11.1H26.3c-6.1,0-11.1,4.9-11.1,11.1C15.2,31.5,20.2,36.4,26.3,36.4 M38.9,32.5H26.6
			c-3.9,0-7.1-3.2-7.1-7.2s3.2-7.2,7.1-7.2h12.3c4,0,7.2,3.2,7.2,7.2C46,29.3,42.8,32.5,38.9,32.5 M119.6,36.4h13.1l2.5-3.9h-15.3
			c-4,0-7.2-3.2-7.2-7.2s3.2-7.2,7.2-7.2h12.5l2.5-3.9h-15.3c-6.1,0-11.1,4.9-11.1,11.1C108.5,31.5,113.4,36.4,119.6,36.4
			 M171.5,32.5c-3.3,0-6-2.2-6.9-5.2h18.2l2.5-3.9h-20.7c0.8-3,3.6-5.2,6.9-5.2H184l2.5-3.9h-15.2c-6.1,0-11,4.9-11,11.1
			c0,6.1,4.9,11,11,11h13.1l2.5-3.9H171.5"/>
	</g>
</g>
<g id="Syngenta" class="st0">
	<g class="st1">
		<path class="st2" d="M153,21.4h-5v8.2c0,2.3,1.2,2.8,2.8,2.8c0.6,0,1.2-0.1,1.8-0.2l0.4,3.7c-1.3,0.2-3,0.4-4.2,0.4
			c-3.4,0-6.5-1.2-6.5-5.4v-9.6h-2.9v-3.6h2.9v-4l5.7-1.6v5.6h5V21.4"/>
		<path class="st2" d="M137.8,36h-5.7V24.3c0-1.7-0.7-2.7-2.7-2.7c-1.5,0-2.4,0.7-3.5,1.5V36h-5.7V17.8h5.5v1.6c1.8-1.2,4-2,6.2-2
			c3.6,0,5.7,2.2,5.7,5.7V36"/>
		<path class="st2" d="M108.9,2.3c-2.9,4.9-1.6,9.2-4.4,12c-2.2,2.3-4.3,2.2-6.8,2.2c-0.9,0-2.5,0.1-3.2,0.6c-0.4-1.3-0.6-2.7-0.6-4
			c0-2.3,0.5-4.4,2.2-6C99.3,3.8,105.1,2.8,108.9,2.3"/>
		<path class="st2" d="M78.3,36h-5.7V24.3c0-1.7-0.7-2.7-2.7-2.7c-1.5,0-2.4,0.7-3.5,1.5V36h-5.7V17.8h5.5v1.6c1.8-1.2,4-2,6.2-2
			c3.6,0,5.7,2.2,5.7,5.7V36"/>
		<path class="st2" d="M59.7,17.8l-9.1,22c-1.4,3.4-4.2,5.9-8,5.9c-1.9,0-2.9-0.2-4.2-0.5l0.8-3.6c1,0.2,1.8,0.3,2.5,0.3
			c2.3,0,3.5-1.9,4.6-4.6l0.5-1.3l-7-18.2h6.1l3.3,9c0.4,1.1,0.6,2.2,0.8,3c0.2-0.8,0.6-2.1,1-3.1l3.4-8.9L59.7,17.8"/>
		<path class="st2" d="M39.7,30.2c0,4-3.7,6.1-8,6.1c-2.8,0-5.1-0.5-7.5-1.4l1.5-3.7c1.4,0.6,3.5,1.2,5.2,1.2c1.3,0,3.1-0.2,3.1-1.8
			c0-0.7-0.5-1.1-1.3-1.4c-1.1-0.3-2.7-0.6-3.8-0.9c-2.3-0.6-4.2-1.8-4.2-5.2c0-3.8,3.2-6.1,7.6-6.1c2.9,0,4.7,0.4,6.4,0.9l-1.4,3.7
			c-0.7-0.3-2.7-0.8-4.2-0.8c-1.6,0-2.6,0.6-2.6,1.5c0,0.5,0.3,1.1,1.1,1.3c0.9,0.3,2.3,0.5,3.5,0.8C37.4,25,39.7,26.4,39.7,30.2"/>
		<path class="st2" d="M164.9,31.1v-3.4c-2.6,0-5.1,0.2-5.1,2.7c0,1.5,1.3,2,2.3,2C163.3,32.5,164.2,31.9,164.9,31.1 M170.4,36h-5.3
			v-1.4c-1.4,1.2-3.2,1.8-5.2,1.8c-3.4,0-5.7-1.6-5.7-5.1c0-6,6-7,10.7-7v-0.5c0-1.5-0.6-2.6-3.3-2.6c-1.8,0-3.9,0.9-5.2,1.7
			l-1.4-3.4c2.4-1.3,5.4-2.2,8.2-2.2c4.3,0,7.2,2.1,7.2,5.7V36z"/>
		<path class="st2" d="M112,24.4c0.1-2-0.9-3.3-2.9-3.3c-1.9,0-3,1.4-3.4,3.3H112 M117.9,26.2c0,0.6,0,1.2-0.1,1.9h-12.1
			c0.1,2.6,1.4,4.2,5.2,4.2c1.7,0,3.8-0.8,4.6-1.4l1.5,3.4c-2.5,1.4-5.2,2.1-8.2,2.1c-5.7,0-9.2-3.6-9.2-9.4c0-5.9,4.6-9.6,9.6-9.6
			C115.6,17.3,117.9,21,117.9,26.2z"/>
		<path class="st2" d="M94.1,39c0-1.5-1.2-2-2.4-2h-5c-0.8,0.4-1.9,1.4-1.9,2.6c0,1.6,2.2,2.7,4.7,2.7C92.2,42.2,94.1,41,94.1,39
			 M92.6,23.3c0-1.5-0.8-2.8-2.7-2.8c-1.7,0-2.8,1.5-2.8,2.8c0,1.5,1,2.8,2.7,2.8C91.7,26.1,92.6,24.8,92.6,23.3z M99.8,38.2
			c0,5.3-5.3,7.8-10.5,7.8c-4.6,0-9-1.3-9-5.7c0-2.1,1.8-3.4,2.9-4.2c-0.6-0.4-1.2-0.6-1.7-1.2c-0.5-0.6-0.9-1.4-0.9-2.8
			c0-1.8,1.6-3.4,3.5-4.5c-1.1-0.6-2.5-1.4-2.5-4.4c0-3.9,3.7-5.9,8.5-5.9c4.1,0,8,1,8,5.8c0,4.6-4.3,6.2-8.6,6.2
			c-0.8,0-1.5-0.1-2.2-0.3c-0.5,0.2-1.4,0.9-1.4,1.5c0,1.4,1.9,1.6,2.8,1.6h4.5C97.3,32.2,99.8,34.2,99.8,38.2z"/>
		<path class="st2" d="M174,33.5c0.3,0,0.4,0,0.4-0.3s-0.3-0.3-0.5-0.3h-0.4v0.6H174 M173,32.5h1c0.6,0,1,0.2,1,0.8
			c0,0.5-0.3,0.6-0.7,0.7l0.7,1h-0.6l-0.6-1.1h-0.3V35H173V32.5z M173.9,35.6c0.9,0,1.6-0.7,1.6-1.8s-0.7-1.8-1.6-1.8
			c-0.9,0-1.6,0.7-1.6,1.8C172.3,34.8,173,35.6,173.9,35.6z M173.9,31.5c1.3,0,2.3,1,2.3,2.3s-1,2.3-2.3,2.3s-2.3-1-2.3-2.3
			C171.6,32.5,172.7,31.5,173.9,31.5z"/>
	</g>
</g>
<g id="Axonify" class="st0">
	<g class="st1">
		<polygon points="72.7,15.9 68.8,15.9 63.5,23.7 58.1,15.9 53.7,15.9 61.1,26 54.1,36 58.1,36 63.2,28.4 68.7,36 73.1,36 
			65.7,25.9 		"/>
		<path d="M158.6,26.3c-0.9,3.1-2.1,6.4-3.3,8.5c-3.1-7.7-6.6-18.8-6.6-18.8h-4.1c0,0,4.2,12.3,8.4,22.1c-1.6,2.1-4,3.9-8.1,5.6
			l1.3,3c4-1.6,7.3-3.8,9.7-6.9c2.6-3.3,4.5-7.8,6-12.4c1.4-4.4,2.1-8.2,2.5-11.4h-3.6C160.4,19,159.6,22.9,158.6,26.3z"/>
		<path d="M110.3,15.5c-2.2,0-4.2,0.7-6,2.5v-2.2h-3.6V36h3.6V20.9c1.6-1.6,3.4-2.3,4.9-2.3c2.9,0,4.2,1.8,4.4,4.4
			c0,0.7,0.1,1.6,0.1,2.4V36h3.6V25c0-2.1-0.1-4.2-0.8-5.7C115.6,16.9,113.4,15.5,110.3,15.5z"/>
		<path d="M137.7,14.4c0-1.2,0-1.8,0.1-2.4c0.4-3.1,2-4.1,4.6-4.1c0.7,0,1.9,0.1,3.2,0.4l0.3-2.8c-1.3-0.4-2.7-0.5-3.7-0.5
			c-3.8,0-6.8,1.7-7.8,5.5c-0.3,1.3-0.4,2.7-0.4,4.7V16h-3.3v3.3h3.3V36h3.6V19.2h4.9v-3.3h-4.9L137.7,14.4L137.7,14.4z"/>
		<rect x="123.5" y="15.9" width="3.6" height="20.2"/>
		<path d="M125.3,6.7c-1.4,0-2.5,0.9-2.5,2.4s0.9,2.4,2.4,2.4c1.4,0,2.5-1,2.5-2.4C127.8,7.7,126.8,6.7,125.3,6.7z"/>
		<path d="M37,7.7L37,7.7L26.7,36h3.9l2.7-8h11.6l3,8h4.2L41.3,7.7H37z M34.4,25l4.5-13.3L43.8,25H34.4z"/>
		<polygon points="164.8,8.2 166.1,8.2 166.1,11.8 166.7,11.8 166.7,8.2 168.1,8.2 168.1,7.7 164.8,7.7 		"/>
		<path d="M171.9,7.7l-1,2.9c-0.1,0.3-0.2,0.5-0.2,0.7c0-0.1-0.1-0.3-0.2-0.6l-1-3h-0.8v4.2h0.5V8.3l1.2,3.6h0.5l1.2-3.5v3.5h0.5
			V7.7H171.9z"/>
		<g>
			<path d="M97.1,26c0-5.9-4.8-10.7-10.7-10.7c-5.9,0-10.7,4.8-10.7,10.7c0,2,0.6,3.9,1.5,5.5c0,0,1.5,2.2-1.5,5.2
				c0.8,0,1.5-0.1,2.1-0.4c0.6-0.2,1.1-0.5,1.5-0.7c0.4-0.3,0.7-0.5,1-0.8c1.7,1.2,3.8,1.9,6.1,1.9C92.3,36.7,97.1,31.9,97.1,26z
				 M86.4,33.5c-4.1,0-7.5-3.4-7.5-7.5s3.4-7.5,7.5-7.5s7.5,3.4,7.5,7.5C93.9,30.2,90.5,33.5,86.4,33.5z"/>
			<path d="M99.7,44.1c0.5-0.8,0.7-1.7,0.7-2.7c0-2.9-2.3-5.2-5.2-5.2c-2.9,0-5.2,2.3-5.2,5.2s2.3,5.2,5.2,5.2c1.1,0,2.1-0.4,3-0.9
				c0.1,0.1,0.3,0.3,0.5,0.4c0.2,0.1,0.4,0.2,0.7,0.4c0.3,0.1,0.9,0.2,1.3,0.2C99.2,45.1,99.7,44.1,99.7,44.1z M95.2,44.1
				c-1.5,0-2.8-1.2-2.8-2.8c0-1.5,1.2-2.8,2.8-2.8c1.5,0,2.8,1.2,2.8,2.8C97.9,42.9,96.7,44.1,95.2,44.1z"/>
		</g>
	</g>
</g>
<g id="RideCo" class="st0">
	<g class="st1">
		<path id="Path_95" class="st2" d="M124.2,23.6c0,2.2,1.8,4.1,4.1,4.1c2.2,0,4.1-1.8,4.1-4.1s-1.8-4.1-4.1-4.1l0,0
			C126,19.5,124.2,21.4,124.2,23.6z"/>
		<path id="Path_96" class="st2" d="M48.8,27.1c0.5-0.3,1.1-0.6,1.5-1c0.6-0.4,1-1,1.4-1.5c0.5-0.7,0.8-1.4,1.1-2.2
			c0.3-0.9,0.4-1.9,0.4-2.9c0-1.1-0.2-2.2-0.6-3.3c-0.4-1-1-1.9-1.7-2.7c-0.8-0.8-1.8-1.4-2.8-1.9c-1.2-0.5-2.5-0.7-3.8-0.7H31V36
			h7.5v-7.8h2.7l3.4,7.8h8.6L48.8,27.1L48.8,27.1z M44.9,21.1c-0.5,0.3-1.1,0.5-1.7,0.5h-4.6v-3.9h4.6c0.6,0,1.2,0.1,1.7,0.5
			c0.5,0.3,0.8,0.9,0.7,1.5C45.6,20.2,45.4,20.7,44.9,21.1L44.9,21.1z"/>
		<rect id="Rectangle_278" x="55.2" y="11" class="st2" width="7.5" height="24.9"/>
		<path id="Path_97" class="st2" d="M166,18.3c-0.7-1.5-1.7-2.9-2.9-4.1c-1.3-1.2-2.7-2-4.3-2.6c-3.5-1.2-7.3-1.2-10.8,0
			c-1.6,0.6-3.1,1.5-4.3,2.6s-2.2,2.5-2.9,4.1c-1.4,3.4-1.4,7.1,0,10.5c0.7,1.5,1.6,2.9,2.9,4.1c1.3,1.2,2.7,2,4.3,2.6
			c3.5,1.2,7.3,1.2,10.8,0c1.6-0.6,3.1-1.5,4.3-2.6c1.2-1.1,2.2-2.5,2.9-4.1C167.4,25.4,167.4,21.6,166,18.3z M158.9,26
			c-0.3,0.7-0.7,1.4-1.2,2s-1.2,1-1.9,1.3c-1.6,0.6-3.3,0.6-4.9,0c-0.7-0.3-1.4-0.8-1.9-1.3c-0.5-0.6-0.9-1.2-1.2-2
			c-0.6-1.6-0.6-3.3,0-4.9c0.3-0.7,0.7-1.4,1.2-2s1.2-1,1.9-1.3c1.6-0.6,3.3-0.6,4.9,0c0.7,0.3,1.4,0.8,1.9,1.3
			c0.5,0.6,0.9,1.2,1.2,2C159.5,22.6,159.5,24.4,158.9,26z"/>
		<path id="Path_98" class="st2" d="M89.4,18.2c-0.7-1.5-1.6-2.8-2.9-3.9s-2.7-1.9-4.3-2.4c-1.8-0.6-3.6-0.8-5.5-0.8H65.6V36h11.2
			c1.8,0,3.7-0.3,5.4-0.8c1.6-0.5,3.1-1.3,4.3-2.4c1.2-1.1,2.2-2.4,2.9-3.9C90.8,25.4,90.8,21.6,89.4,18.2L89.4,18.2L89.4,18.2z
			 M82.4,25.7c-0.3,0.7-0.7,1.3-1.2,1.9s-1.2,1-1.9,1.3c-0.8,0.3-1.7,0.5-2.5,0.5h-3.6V17.6h3.6c0.9,0,1.8,0.1,2.6,0.4
			c0.7,0.3,1.4,0.7,1.9,1.2s0.9,1.2,1.1,1.9c0.3,0.7,0.4,1.5,0.4,2.3C82.8,24.2,82.6,25,82.4,25.7L82.4,25.7L82.4,25.7z"/>
		<path id="Path_99" class="st2" d="M110.7,17.6c0.8-2.4,2.1-4.7,3.7-6.6H92v25h22.2l-1.7-2.3c0-0.1-0.1-0.1-0.1-0.2
			c-0.2-0.3-0.4-0.6-0.5-0.9l-0.1-0.1c-0.5-1-0.9-2-1.3-3.1h-11v-2.7h10.4c-0.4-2.2-0.3-4.4,0.1-6.6H99.5v-2.5L110.7,17.6
			L110.7,17.6z"/>
		<path id="Path_100" class="st2" d="M140.3,32.4l-5-4.2c-0.1-0.1-0.3-0.2-0.4-0.2l0,0c-0.2,0-0.3,0.1-0.4,0.2
			c-2.5,3.5-7.4,4.3-10.9,1.7c-3.5-2.5-4.3-7.4-1.7-10.9c1.5-2,3.8-3.2,6.3-3.2c2.5,0,4.8,1.2,6.3,3.2c0.1,0.1,0.3,0.2,0.4,0.2l0,0
			c0.2,0,0.3-0.1,0.4-0.2l4.8-4c0.3-0.3,0.3-0.7,0.1-1c-5.3-6.6-15-7.6-21.7-2.3c-5.7,4.6-7.4,12.5-4,19l0.1,0.1
			c0.1,0.2,0.3,0.5,0.4,0.7c0.2,0.4,1.1,1.6,2.3,3.1c0.3,0.3,10.2,12.7,10.2,12.7c0.2,0.4,0.7,0.5,1,0.3c0.1-0.1,0.2-0.2,0.3-0.3
			l11.6-14C140.6,33,140.6,32.6,140.3,32.4L140.3,32.4z"/>
	</g>
</g>
<g id="Motley" class="st0">
	<g class="st1">
		<g>
			<path class="st2" d="M13,31.2H8.3v-3.4h13v3.4h-4.6v13.7H13V31.2z"/>
			<path class="st2" d="M22.3,27.8H26V34c0.5-1.1,1.8-1.8,3.5-1.8c2.9,0,4.6,1.9,4.6,5.1v7.5h-3.7v-7.1c0-1.4-0.7-2.3-2.1-2.3
				s-2.3,1-2.3,2.5v7h-3.7L22.3,27.8L22.3,27.8z"/>
			<path class="st2" d="M35.2,38.7c0-3.9,2.8-6.5,6.6-6.5s6.3,2.8,6.3,6.3c0,0,0,0.6-0.1,1.2h-9.1c0.1,1.5,1.3,2.4,3.3,2.4
				c2.4,0,3.7-0.7,4.4-1.2v3.2c-1.2,0.7-2.4,1.1-4.6,1.1c-4,0-6.7-2.5-6.7-6.4v-0.1H35.2z M44.4,37.3c0-1.1-1.1-2-2.6-2
				s-2.8,0.9-2.9,2H44.4L44.4,37.3z"/>
			<path class="st2" d="M55.2,27.2l9,9.9l9-9.9v17.7h-3.6v-8.7l-5.4,6.1l-5.4-6.1v8.7h-3.6L55.2,27.2L55.2,27.2z"/>
			<path class="st2" d="M81.4,32.1c3.8,0,6.9,2.9,6.9,6.6s-3.1,6.6-6.9,6.6s-6.9-2.9-6.9-6.6S77.5,32.1,81.4,32.1L81.4,32.1z
				 M81.4,41.9c1.8,0,3.2-1.4,3.2-3.2s-1.4-3.2-3.2-3.2c-1.8,0-3.2,1.4-3.2,3.2S79.6,41.9,81.4,41.9z"/>
			<path class="st2" d="M90.3,35.8h-1.6v-3.3h1.6v-4.7h3.6v4.7h2.7v3.3h-2.7v9.1h-3.6V35.8z"/>
			<path class="st2" d="M97.6,27.8h3.7v17.1h-3.7V27.8z"/>
			<path class="st2" d="M102.4,38.7c0-3.9,2.8-6.5,6.6-6.5s6.3,2.8,6.3,6.3c0,0,0,0.6-0.1,1.2h-9.1c0.1,1.5,1.3,2.4,3.3,2.4
				c2.4,0,3.7-0.7,4.4-1.2v3.2c-1.2,0.7-2.4,1.1-4.6,1.1c-4,0-6.7-2.5-6.7-6.4L102.4,38.7L102.4,38.7z M111.6,37.3
				c0-1.1-1.1-2-2.6-2s-2.8,0.9-2.9,2H111.6L111.6,37.3z"/>
			<path class="st2" d="M114.7,32.5h3.8l3.3,8.3l3.3-8.3h3.8l-7.3,17.2h-3.8l2-4.5L114.7,32.5L114.7,32.5z"/>
			<path class="st2" d="M135.1,27.8h11.3v3.4h-7.5v3.5h6.8v3.4h-6.8v6.8h-3.8C135.1,44.9,135.1,27.8,135.1,27.8z"/>
			<path class="st2" d="M153.9,32.1c3.8,0,6.9,2.9,6.9,6.6s-3.1,6.6-6.9,6.6c-3.8,0-6.9-2.9-6.9-6.6S150,32.1,153.9,32.1z
				 M153.9,41.9c1.8,0,3.2-1.4,3.2-3.2s-1.4-3.2-3.2-3.2s-3.2,1.4-3.2,3.2S152,41.9,153.9,41.9z"/>
			<path class="st2" d="M168.4,32.1c3.8,0,6.9,2.9,6.9,6.6s-3.1,6.6-6.9,6.6s-6.9-2.9-6.9-6.6S164.5,32.1,168.4,32.1z M168.4,41.9
				c1.8,0,3.2-1.4,3.2-3.2s-1.4-3.2-3.2-3.2s-3.2,1.4-3.2,3.2S166.5,41.9,168.4,41.9z"/>
			<path class="st2" d="M176.6,27.8h3.7v17.1h-3.7V27.8z"/>
			<g>
				<circle class="st2" cx="189.2" cy="23.4" r="2.5"/>
				<path class="st2" d="M188.9,19c0.2,0,0.3-0.2,0.3-0.4c-1.7-10.9-7.7-19-14.9-19c-4.9,0-10.4,3.7-13.2,9.4
					c-2.8-5.8-8.4-9.4-13.2-9.4c-7.2,0-13.2,8.1-14.9,19c0,0.2,0.1,0.4,0.3,0.4s0.3-0.1,0.4-0.2c1.7-4.2,4.6-6.9,7.9-6.9
					c4.8,0,8.9,5.8,9.4,13.8c0.6,1.3,5.5,2.3,10.1,2.5c4.5-0.2,9.5-1.2,10.1-2.5c0.5-8,4.6-13.8,9.4-13.8c3.3,0,6.2,2.8,7.9,6.9
					C188.6,19,188.8,19.1,188.9,19L188.9,19z"/>
				<path class="st2" d="M133.1,20.9c-1.4,0-2.5,1.1-2.5,2.5s1.1,2.5,2.5,2.5s2.5-1.1,2.5-2.5C135.5,22.1,134.4,20.9,133.1,20.9z"/>
			</g>
		</g>
		<path class="st2" d="M182.3,44.1c0-0.7,0.5-1.2,1.2-1.2s1.2,0.5,1.2,1.2s-0.5,1.2-1.2,1.2C182.9,45.3,182.3,44.8,182.3,44.1z
			 M184.5,44.1c0-0.6-0.4-1-1-1s-1,0.4-1,1s0.4,1,1,1C184.1,45,184.5,44.6,184.5,44.1z M183.1,43.4h0.5c0.3,0,0.4,0.2,0.4,0.4
			s-0.1,0.3-0.2,0.4l0.3,0.5h-0.3l-0.3-0.5h-0.2v0.5H183L183.1,43.4L183.1,43.4z M183.6,44c0.1,0,0.2-0.1,0.2-0.2
			c0-0.1-0.1-0.2-0.2-0.2h-0.2V44H183.6L183.6,44z"/>
	</g>
</g>
<g id="Communitech" class="st0">
	<g class="st1">
		<path class="st2" d="M128.2,13.8h14.9v5.1h-4.8v13.5h-5.4V18.9h-4.7V13.8L128.2,13.8z M117.3,9.4l4,7v-2.6h5.4v12l8.6,14.9
			l8.9-15.5V13.8h6.5l2.6-4.5L117.3,9.4L117.3,9.4z"/>
		<path class="st2" d="M10.6,25.5h3.1V26c0,2.3-0.4,3.7-1.2,4.4c-0.8,0.7-2.6,1-5.5,1c-3.2,0-5.2-0.5-5.9-1.6S0,26,0,21.4
			c0-2.7,0.5-4.4,1.5-5.3c1-0.8,3.1-1.3,6.3-1.3c2.3,0,3.9,0.3,4.6,1c0.8,0.7,1.2,2.1,1.2,4.1v0.4h-3.1V20c0-1.1-0.2-1.7-0.6-2
			c-0.4-0.3-1.3-0.5-2.7-0.5c-1.9,0-3,0.2-3.4,0.7s-0.6,1.9-0.6,4.2c0,3.1,0.2,4.9,0.5,5.5C4,28.5,5.1,28.7,7,28.7
			c1.5,0,2.5-0.2,3-0.5s0.7-1,0.7-2.1L10.6,25.5L10.6,25.5z"/>
		<path class="st2" d="M24.3,17.5c-2.1,0-3.3,0.3-3.6,0.8c-0.3,0.5-0.5,2.4-0.5,5.5c0,2.3,0.2,3.7,0.6,4.2s1.6,0.7,3.6,0.7
			s3-0.3,3.4-0.8s0.6-2.2,0.6-4.9s-0.2-4.3-0.5-4.8C27.5,17.8,26.3,17.5,24.3,17.5 M24.6,14.9c2.9,0,4.8,0.5,5.7,1.5
			c0.8,1,1.3,3.2,1.3,6.6c0,3.7-0.4,6.1-1.3,7c-0.9,1-2.9,1.5-6.2,1.5c-2.9,0-4.8-0.5-5.7-1.4c-0.9-1-1.3-3.1-1.3-6.3
			c0-3.9,0.4-6.3,1.3-7.3C19.2,15.4,21.3,14.9,24.6,14.9"/>
		<path class="st2" d="M54.8,15v16.2h-3.1v-8.9c0-0.7,0-1.5,0.1-2.4l0.1-1.2l0.1-1.2h-0.1l-0.4,1.1l-0.4,1.1c-0.3,1-0.6,1.8-0.8,2.2
			l-3.6,9.2h-2.8L40.3,22c-0.2-0.5-0.5-1.3-0.8-2.2l-0.4-1.1l-0.4-1.1h-0.1l0.1,1.2l0.1,1.2c0.1,0.9,0.1,1.7,0.1,2.4v8.9h-3.1V15h5
			l2.9,7.5c0.2,0.5,0.5,1.3,0.8,2.2l0.4,1.1l0.4,1.1h0.1l0.3-1.1l0.4-1.1c0.3-0.9,0.5-1.7,0.8-2.2l2.9-7.5H54.8L54.8,15z"/>
		<path class="st2" d="M78.8,15v16.2h-3.1v-8.9c0-0.7,0-1.5,0.1-2.4l0.1-1.2l0.1-1.2h-0.1l-0.4,1.1l-0.4,1.1c-0.3,1-0.6,1.8-0.8,2.2
			l-3.6,9.2h-2.8L64.3,22c-0.2-0.5-0.5-1.3-0.8-2.2l-0.4-1.1l-0.4-1.1h-0.1l0.1,1.2l0.1,1.2c0,0.9,0.1,1.7,0.1,2.4v8.9h-3.1V15h5
			l2.9,7.5c0.2,0.5,0.5,1.3,0.8,2.2l0.4,1.1l0.4,1.1h0.1l0.3-1.1l0.4-1.1c0.3-0.9,0.5-1.7,0.8-2.2l2.9-7.5H78.8L78.8,15z"/>
		<path class="st2" d="M94.3,15h3.1v10.8c0,2.3-0.4,3.8-1.3,4.5s-2.6,1.1-5.3,1.1c-2.8,0-4.7-0.3-5.6-1s-1.3-2.1-1.3-4.4V15H87v11
			c0,1.2,0.2,1.9,0.6,2.3c0.4,0.3,1.4,0.5,3,0.5s2.7-0.2,3.1-0.5s0.6-1.1,0.6-2.4L94.3,15L94.3,15z"/>
		<path class="st2" d="M117.4,15v16.2h-5.2l-4.6-8.9c-0.2-0.4-0.6-1.2-1.1-2.3l-0.5-1.2l-0.5-1.2h-0.1l0.1,1.1v1.1v2.1v9.3h-3.1V15
			h5.2l4.2,8.2c0.4,0.7,0.8,1.6,1.3,2.7l0.6,1.3l0.6,1.3h0.1v-1v-1v-2.1V15H117.4L117.4,15z"/>
		<rect x="122.5" y="15" class="st2" width="3.1" height="16.2"/>
		<polygon class="st2" points="137.1,17.8 137.1,31.3 134.1,31.3 134.1,17.8 129.4,17.8 129.4,15 142,15 142,17.8 		"/>
		<polygon class="st2" points="148.5,17.6 148.5,21.8 156.1,21.8 156.1,24.1 148.5,24.1 148.5,28.7 156.6,28.7 156.6,31.3 
			145.4,31.3 145.4,15 156.5,15 156.5,17.6 		"/>
		<path class="st2" d="M171.1,25.5h3.1V26c0,2.3-0.4,3.7-1.2,4.4c-0.8,0.7-2.6,1-5.5,1c-3.2,0-5.2-0.5-5.9-1.6
			c-0.7-1-1.1-3.8-1.1-8.4c0-2.7,0.5-4.4,1.5-5.3c1-0.8,3.1-1.3,6.3-1.3c2.3,0,3.9,0.3,4.6,1c0.8,0.7,1.2,2.1,1.2,4.1v0.4H171V20
			c0-1.1-0.2-1.7-0.6-2c-0.4-0.3-1.3-0.5-2.7-0.5c-1.9,0-3,0.2-3.4,0.7s-0.6,1.9-0.6,4.2c0,3.1,0.2,4.9,0.5,5.5s1.5,0.9,3.3,0.9
			c1.5,0,2.5-0.2,3-0.5s0.7-1,0.7-2.1L171.1,25.5L171.1,25.5z"/>
		<polygon class="st2" points="192.1,15 192.1,31.3 189,31.3 189,24.2 181.4,24.2 181.4,31.3 178.3,31.3 178.3,15 181.4,15 
			181.4,21.7 189,21.7 189,15 		"/>
		<path class="st2" d="M197,15c1.4,0,2.5,1.1,2.5,2.5S198.4,20,197,20s-2.5-1.1-2.5-2.5S195.6,15,197,15 M197,19.6
			c1.1,0,2-0.9,2-2.1s-0.9-2.1-2-2.1s-2,0.9-2,2.1S195.8,19.6,197,19.6 M196,16h1.1c0.7,0,1,0.3,1,0.8s-0.3,0.8-0.7,0.8l0.8,1.3
			h-0.5l-0.8-1.3h-0.4v1.3H196V16z M196.5,17.3h0.6c0.4,0,0.6-0.1,0.6-0.5c0-0.3-0.3-0.4-0.6-0.4h-0.6V17.3z"/>
	</g>
</g>
<g>
	<path class="st2" d="M12.8,33.9c-0.5,0.2-5.2,1.3-8.2-0.2c-0.1-0.1-0.3-0.2-0.4-0.3h9.4C13.6,33.4,13.3,33.6,12.8,33.9"/>
	<path class="st2" d="M8.3,35.3c3.5,0,5.4-1.1,8.2-1.4c0.7-0.1,1.8-0.2,2.5-0.1c0.1,0-0.4,0.4-0.5,0.4c-3.4,2.1-7,2.6-10.5,1.4
		c0,0-0.7-0.2-0.7-0.3C7.4,35.2,8.3,35.3,8.3,35.3"/>
	<path class="st2" d="M11.2,20.2l1.2,12.2c0,0,0,0.1,0.1,0.1c0,0,1.1,0,1.1-0.1l-0.1-0.1c-0.7-1.6-0.7-4,1.6-5.4
		c0.1-0.1,0,0.2,0,0.2c-0.4,0.6-0.7,1.2-0.8,1.9c0.6-0.9,0.9-1.1,1.4-1.3c0.5-0.2,1.2-0.2,1.8,0.1c-1,0.2-2.2,0.8-2.3,1.9
		c0.3-0.5,0.8-0.7,0.9-0.7c0.4-0.2,0.9-0.1,1.2,0c0.6,0.1,1.3,0.8,0.9,1.9c-0.1-0.5-0.4-1-0.9-1.1c-0.6-0.2-1.2,0.2-1.3,0.9
		c-0.2,1.4,1.4,2.4,2.7,2.2c2.6-0.4,3.9-2.9,4.5-5.1c0.5-1.7,0.6-3.9,0.3-5.1c0,0-11-3.4-11.1-3.4h0.1c-0.1,0-0.1-0.2-0.1-0.2V17
		c0-0.1,0.1-0.1,0.1-0.1l6.8-1.6l-0.1-0.1c-5-4.4-13-3.5-17.1,2.1c-2.7,3.6-3.3,8.5-1,12.8c0.7,1.3,1.4,2.1,2,2.4
		c0.4,0.2,1.6,0.2,2.2,0.1l2-12.2c-0.5,0-0.7,0-0.7-0.1v-0.8c0,0,0-0.1,0.1-0.1h0.5c0,0,0.1,0,0.1-0.1v-2.9c0,0,0-0.1-0.1-0.1H6.9
		c-0.1,0,0-0.1,0-0.1l2.5-1.5l2.4,1.5c0,0,0.1,0.1,0,0.1h-1.3c0,0-0.1,0-0.1,0.1v2.8c0,0,0,0.1,0.2,0.1H12c0,0,0.1,0,0.1,0.2v0.7
		c0,0,0,0.1-0.1,0.1L11.2,20.2"/>
	<path class="st2" d="M23.9,32.8c0.3,0.3,0.4,0.6,0.4,0.9s-0.1,0.7-0.4,0.9C23.7,34.9,23.3,35,23,35c-0.4,0-0.7-0.1-0.9-0.4
		c-0.2-0.3-0.4-0.6-0.4-0.9s0.1-0.7,0.4-0.9s0.6-0.4,0.9-0.4S23.6,32.5,23.9,32.8 M24,32.6c-0.3-0.3-0.6-0.4-1.1-0.4
		s-0.8,0.1-1.1,0.4c-0.3,0.3-0.4,0.6-0.4,1.1s0.1,0.8,0.4,1.1s0.6,0.4,1.1,0.4c0.4,0,0.8-0.1,1.1-0.4c0.3-0.3,0.4-0.6,0.4-1.1
		S24.3,32.9,24,32.6 M23.1,33.6c0,0-0.1,0-0.3,0h-0.3V33h0.2c0.2,0,0.3,0,0.4,0.1c0.1,0,0.1,0.1,0.1,0.2
		C23.3,33.5,23.3,33.6,23.1,33.6 M22.3,34.5h0.3v-0.6h0.2c0.1,0,0.3,0,0.3,0.1c0.1,0.1,0.2,0.2,0.2,0.4v0.2l0,0l0,0h0.3v-0.1v-0.1
		v-0.1c0-0.1,0-0.2-0.1-0.3s-0.1-0.1-0.3-0.2c0.1,0,0.2,0,0.2-0.1c0.1-0.1,0.2-0.2,0.2-0.3c0-0.2-0.1-0.4-0.3-0.4
		c-0.1,0-0.2-0.1-0.4-0.1h-0.6L22.3,34.5L22.3,34.5z"/>
	<path class="st2" d="M199.4,21.2c0.2,0.3,0.4,0.6,0.4,0.9s-0.1,0.7-0.4,0.9c-0.3,0.3-0.6,0.4-0.9,0.4c-0.4,0-0.7-0.1-0.9-0.4
		s-0.4-0.6-0.4-0.9c0-0.4,0.1-0.7,0.4-0.9c0.3-0.3,0.6-0.4,0.9-0.4C198.8,20.8,199.1,20.9,199.4,21.2 M199.5,21
		c-0.3-0.3-0.6-0.4-1.1-0.4c-0.4,0-0.8,0.1-1.1,0.4s-0.4,0.6-0.4,1.1s0.1,0.8,0.4,1.1c0.3,0.3,0.6,0.4,1.1,0.4
		c0.4,0,0.8-0.1,1.1-0.4s0.4-0.6,0.4-1.1C199.9,21.7,199.8,21.3,199.5,21 M198.7,22c0,0-0.1,0-0.3,0h-0.3v-0.6h0.2
		c0.2,0,0.3,0,0.4,0.1c0.1,0,0.1,0.1,0.1,0.2S198.8,22,198.7,22 M197.9,22.9h0.3v-0.6h0.2c0.1,0,0.3,0,0.3,0.1
		c0.1,0.1,0.1,0.2,0.1,0.4V23l0,0l0,0h0.3v-0.1v-0.1v-0.1c0-0.1,0-0.2-0.1-0.3c-0.1-0.1-0.1-0.1-0.3-0.2c0.1,0,0.2,0,0.2-0.1
		c0.1-0.1,0.2-0.2,0.2-0.3c0-0.2-0.1-0.4-0.3-0.4c-0.1,0-0.2-0.1-0.4-0.1h-0.6L197.9,22.9L197.9,22.9z"/>
	<path class="st2" d="M30.5,33.2c1.7,0,1.7-0.2,1.7-1.2v-8.4c0-0.9,0-1.2-1.7-1.2v-0.6h9.3v3h-0.9c-0.1-2.2-0.1-2.4-2.3-2.4h-2.9
		v4.7H35c1.5,0,1.8-0.1,1.8-1.8h0.8v4.1h-0.8c-0.2-1.3,0.3-1.8-1.8-1.8h-1.3v5.2h3.1c1.8,0,1.9-0.3,2.1-2.8h0.9v3.5h-9.3L30.5,33.2"
		/>
	<path class="st2" d="M46,30.9c-0.1,1.6-0.5,2.5-2.2,2.5c-1.9,0-2.1-1.9-2.1-3.4s0.1-3.7,2.2-3.7c1.3,0,2.1,0.6,2.2,1.9v2.7
		 M46,36.4c0,1.2-0.3,1.1-1.5,1.2v0.6c0.7,0,1.5,0,2.2,0c0.8,0,1.5,0,2.2,0v-0.6c-1.5,0-1.5-0.2-1.5-1.2V25.7l-1.5,0.6
		c-0.9-0.4-1.3-0.6-2.3-0.6c-2.7,0-3.6,1.8-3.6,4.3c0,2.1,0.9,4,3.2,4c1,0,1.9-0.2,2.7-0.9C46,33,46,36.4,46,36.4z"/>
	<path class="st2" d="M54.6,32.9c-0.5,0.7-1.8,1.1-2.7,1.1c-1.5,0-2.6-0.5-2.6-2.2v-4.3c0-1-0.1-1.2-1.5-1.2v-0.5h2.9v5.1
		c0,1.4,0.1,2.4,1.7,2.4c2,0,2.1-1.3,2.1-2.9v-2.8c0-0.9-0.1-1.2-1.4-1.2v-0.5H56v6.3c0,1,0.1,1.2,1.5,1.2V34c-0.5,0-1,0-1.5,0
		s-0.9,0-1.4,0V32.9"/>
	<path class="st2" d="M60.8,32.1c0,1,0.1,1.2,1.5,1.2v0.6c-0.7,0-1.5,0-2.2,0c-0.8,0-1.5,0-2.2,0v-0.6c1.5,0,1.5-0.2,1.5-1.2v-4.5
		c0-1.1-0.1-1.1-1.5-1.2v-0.5h2.9V32.1 M59.1,22.8c0-0.6,0.4-1.1,1-1.1s1,0.5,1,1.1s-0.4,1.1-1,1.1S59.1,23.5,59.1,22.8"/>
	<path class="st2" d="M64.8,26.5v4.9c0,0.8,0.1,1.9,1.1,1.9c0.3,0,0.5-0.1,0.8-0.2L67,33l0.2,0.5c-0.5,0.3-1.4,0.5-2,0.5
		c-1.8,0-1.8-1.2-1.8-2.6v-4.9h-1.3v-0.6h1.3v-2.3l1.4-0.6v2.9h1.9v0.6H64.8"/>
	<path class="st2" d="M72.1,29.8v1.7c0,1.3-0.4,1.9-1.9,1.9c-1.1,0-1.5-0.8-1.5-1.7c0-1.7,1-1.8,2.4-1.8h1 M72.1,29.3
		c-1.9,0-4.8-0.4-4.8,2.3c0,1.9,1,2.4,2.8,2.4c0.8,0,1.6-0.3,2.2-0.8v0.7c0.4,0,0.9,0,1.3,0c0.5,0,1,0,1.4,0v-0.6
		c-1.2-0.1-1.4-0.1-1.4-1.2v-3.7c0-2-0.7-2.7-2.8-2.7c-1.3,0-2.8,0.3-3,1.8c-0.1,0.5,0.1,0.9,0.5,0.9c0.3,0,0.7-0.1,0.7-0.4
		c0-1.1,0.1-1.7,1.6-1.7c0.9,0,1.6,0.3,1.6,1.3C72.1,27.5,72.1,29.3,72.1,29.3z"/>
	<path class="st2" d="M76.7,28.9c0-1.5,0.5-2.6,2.2-2.6c2.1,0,2.2,2.1,2.2,3.7s-0.3,3.4-2.3,3.4s-2.2-1.4-2.2-3v-1.5 M76.7,21h-2.9
		v0.6c1.4,0.1,1.5,0.1,1.5,1.2V34l1.4-0.6c0.8,0.5,1.7,0.6,2.6,0.6c2.7,0,3.3-2.2,3.3-4.4c0-2.5-0.8-3.9-3.4-3.9
		c-0.9,0-1.8,0.3-2.4,1L76.7,21L76.7,21z"/>
	<path class="st2" d="M84,22.8c0-1-0.1-1.2-1.5-1.2V21h2.9v11.1c0,1,0.1,1.2,1.5,1.2v0.6c-0.7,0-1.5,0-2.2,0s-1.5,0-2.2,0v-0.6
		c1.4,0,1.5-0.2,1.5-1.2L84,22.8"/>
	<path class="st2" d="M88.1,29.3c0-1.5,0.3-3.1,2-3.1s2,1.5,2,3.1H88.1 M93.6,29.8c0.1-2.5-0.7-4.2-3.3-4.2c-2.3,0-3.7,1.3-3.7,3.7
		c0,2.6,0.6,4.6,3.5,4.6c1.8,0,3.1-0.7,3.4-2.6c0-0.3-0.3-0.3-0.5-0.3c-0.3,0-0.6,0-0.6,0.3c-0.2,0.8-0.2,2-2,2
		c-2.2,0-2.2-2-2.2-3.5L93.6,29.8L93.6,29.8z"/>
	<path class="st2" d="M97.3,33.3c1.7,0,1.7-0.2,1.7-1.2v-8.4c0-0.9,0-1.2-1.7-1.2v-0.6c0.8,0,1.6,0,2.4,0s1.6,0,2.4,0v0.6
		c-1.6,0-1.7,0.2-1.7,1.2v9.4h3c1.8,0,1.9-0.3,2.2-2.8h0.9v3.5h-9.3L97.3,33.3"/>
	<path class="st2" d="M109.5,32.1c0,1,0.1,1.2,1.5,1.2v0.6c-0.7,0-1.5,0-2.2,0c-0.8,0-1.5,0-2.2,0v-0.6c1.5,0,1.5-0.2,1.5-1.2v-4.5
		c0-1.1-0.1-1.1-1.5-1.2v-0.5h2.9L109.5,32.1 M107.8,22.8c0-0.6,0.4-1.1,1-1.1s1,0.5,1,1.1s-0.4,1.1-1,1.1
		C108.1,24,107.8,23.5,107.8,22.8"/>
	<path class="st2" d="M116.3,25.8v0.6h-2.1V32c0,1,0.1,1.2,1.7,1.2v0.6c-0.9,0-1.6,0-2.4,0s-1.5,0-2.2,0v-0.6c1.3-0.1,1.5,0,1.5-1.2
		v-5.6h-1.5v-0.6h1.5v-2.1c0-1.6,0.8-2.7,2.5-2.7c1,0,1.8,0.3,2,1.5c0,0.2,0.1,0.7-0.4,0.6h-0.6c-0.4,0.1-0.3-0.3-0.3-0.6
		c0,0,0.1-1-0.8-1c-1.1,0.1-1,1.1-1,1.7v2.6H116.3"/>
	<path class="st2" d="M117.6,29.3c0-1.5,0.3-3.1,2-3.1s2,1.5,2,3.1H117.6 M123.1,29.8c0.1-2.5-0.7-4.2-3.3-4.2
		c-2.3,0-3.7,1.3-3.7,3.7c0,2.6,0.6,4.6,3.5,4.6c1.8,0,3.1-0.7,3.4-2.6c0-0.3-0.3-0.3-0.5-0.3c-0.3,0-0.6,0-0.6,0.3
		c-0.2,0.8-0.2,2-2,2c-2.2,0-2.2-2-2.2-3.5L123.1,29.8L123.1,29.8z"/>
	<path class="st2" d="M131.6,26.2c2.2,0,2.4,1.8,2.4,3.6c0,1.8-0.1,3.6-2.4,3.6c-2.2,0-2.4-1.8-2.4-3.6S129.3,26.2,131.6,26.2
		 M131.6,25.7c-2.7,0-3.9,1.3-3.9,4.2c0,2.6,0.9,4.2,3.9,4.2s3.9-1.6,3.9-4.2C135.5,27,134.3,25.7,131.6,25.7"/>
	<path class="st2" d="M140.6,25.8v0.6h-2.1V32c0,1,0.1,1.2,1.7,1.2v0.6c-0.9,0-1.6,0-2.4,0c-0.8,0-1.5,0-2.2,0v-0.6
		c1.3-0.1,1.5,0,1.5-1.2v-5.6h-1.5v-0.6h1.5v-2.1c0-1.6,0.8-2.7,2.5-2.7c1,0,1.8,0.3,2,1.5c0,0.2,0.1,0.7-0.4,0.6h-0.6
		c-0.4,0.1-0.3-0.3-0.3-0.6c0,0,0.1-1-0.8-1c-1.1,0.1-1,1.1-1,1.7v2.6H140.6"/>
	<path class="st2" d="M155.6,30.3v3c-0.8,0.4-3.8,0.7-4.6,0.7c-4.2,0-5.6-2.2-5.6-6.2s1.8-6.1,5.9-6.1c1.6,0,2.7,0.2,4.2,0.7v2.8
		h-0.9l-0.1-0.5c-0.2-1.9-1.1-2.3-3.2-2.3c-3.2,0-4.1,2.3-4.1,5.2c0,3.1,0.6,5.9,4.2,5.9c2.6,0,2.9-0.7,3.1-3.1L155.6,30.3"/>
	<path class="st2" d="M160.8,29.8v1.7c0,1.3-0.4,1.9-1.9,1.9c-1.1,0-1.5-0.8-1.5-1.7c0-1.7,1-1.8,2.4-1.8h1 M160.8,29.3
		c-1.9,0-4.8-0.4-4.8,2.3c0,1.9,1,2.4,2.8,2.4c0.8,0,1.6-0.3,2.1-0.8v0.7c0.4,0,0.9,0,1.3,0c0.5,0,1,0,1.4,0v-0.6
		c-1.2-0.1-1.4-0.1-1.4-1.2v-3.7c0-2-0.7-2.7-2.8-2.7c-1.2,0-2.8,0.3-3,1.8c-0.1,0.5,0.1,0.9,0.5,0.9c0.3,0,0.7-0.1,0.7-0.4
		c0-1.1,0.1-1.7,1.6-1.7c0.9,0,1.6,0.3,1.6,1.3L160.8,29.3L160.8,29.3z"/>
	<path class="st2" d="M166.3,26.8c1-0.8,1.5-1.1,2.9-1.1c2.2,0,2.4,1.1,2.4,2.9v3.5c0,1,0.1,1.2,1.5,1.2v0.6c-0.7,0-1.4,0-2.2,0
		s-1.5,0-2.2,0v-0.6c1.3-0.1,1.5,0,1.5-1.2v-3c0-1.4,0-2.6-1.7-2.6s-2.1,1-2.1,2.5v3.1c0,1,0.1,1.2,1.5,1.2v0.6c-0.7,0-1.4,0-2.2,0
		s-1.5,0-2.2,0v-0.6c1.3-0.1,1.5,0,1.5-1.2v-4.5c0-1.1-0.1-1.2-1.5-1.2v-0.5h2.9L166.3,26.8"/>
	<path class="st2" d="M177.7,29.8v1.7c0,1.3-0.4,1.9-1.9,1.9c-1.1,0-1.5-0.8-1.5-1.7c0-1.7,1-1.8,2.4-1.8h1 M177.7,29.3
		c-1.9,0-4.8-0.4-4.8,2.3c0,1.9,1,2.4,2.8,2.4c0.8,0,1.6-0.3,2.1-0.8v0.7c0.4,0,0.9,0,1.3,0c0.5,0,1,0,1.4,0v-0.6
		c-1.2-0.1-1.4-0.1-1.4-1.2v-3.7c0-2-0.7-2.7-2.8-2.7c-1.2,0-2.8,0.3-3,1.8c-0.1,0.5,0.1,0.9,0.5,0.9c0.3,0,0.7-0.1,0.7-0.4
		c0-1.1,0.1-1.7,1.6-1.7c0.9,0,1.6,0.3,1.6,1.3L177.7,29.3L177.7,29.3z"/>
	<path class="st2" d="M186.2,30.6c0,1.6-0.5,2.7-2.3,2.7s-2.2-1.7-2.2-3.2c0-1.7,0-3.9,2.2-3.9s2.2,1.4,2.2,3.2L186.2,30.6
		 M186.2,26.6c-0.7-0.7-1.5-0.9-2.5-0.9c-2.8,0-3.6,2-3.6,4.5c0,2.3,1.1,3.8,3.5,3.8c1.1,0,1.8-0.3,2.5-1.1v1c0.5,0,0.9,0,1.4,0
		s1,0,1.5,0v-0.6c-1.5,0-1.5-0.2-1.5-1.2V21h-2.9v0.6c1.4,0.1,1.5,0.1,1.5,1.2L186.2,26.6L186.2,26.6z"/>
	<path class="st2" d="M193.7,29.8v1.7c0,1.3-0.4,1.9-1.9,1.9c-1.1,0-1.5-0.8-1.5-1.7c0-1.7,1-1.8,2.4-1.8h1 M193.7,29.3
		c-1.9,0-4.8-0.4-4.8,2.3c0,1.9,1,2.4,2.8,2.4c0.8,0,1.6-0.3,2.2-0.8v0.7c0.4,0,0.9,0,1.3,0c0.5,0,1,0,1.4,0v-0.6
		c-1.2-0.1-1.4-0.1-1.4-1.2v-3.7c0-2-0.7-2.7-2.8-2.7c-1.3,0-2.8,0.3-3,1.8c-0.1,0.5,0.1,0.9,0.5,0.9c0.3,0,0.7-0.1,0.7-0.4
		c0-1.1,0.1-1.7,1.6-1.7c0.9,0,1.6,0.3,1.6,1.3L193.7,29.3L193.7,29.3z"/>
</g>
</svg>
