<?xml version="1.0" encoding="utf-8"?>
<!-- Generator: Adobe Illustrator 26.3.1, SVG Export Plug-In . SVG Version: 6.00 Build 0)  -->
<svg version="1.1" xmlns="http://www.w3.org/2000/svg" xmlns:xlink="http://www.w3.org/1999/xlink" x="0px" y="0px"
	 viewBox="0 0 200 50" style="enable-background:new 0 0 200 50;" xml:space="preserve">
<style type="text/css">
	.st0{display:none;}
	.st1{display:inline;}
	.st2{fill:#FFFFFF;}
	.st3{clip-path:url(#SVGID_00000047042878797550727160000007599775100100992166_);}
	.st4{fill:#919191;}
	.st5{fill:#D8D8D8;}
	.st6{fill:#AEAEAE;}
</style>
<g id="Gemini" class="st0">
	<g class="st1">
		<a xlink:href="67.836862745098" >
			<polygon id="fullLogo" points="61.5,38.1 78.2,38.1 78.2,34.6 65.2,34.6 65.2,26.7 76.5,26.7 76.5,23.2 65.2,23.2 65.2,15.3 
				78.2,15.3 78.2,11.8 61.5,11.8 			"/>
		</a>
		<a xlink:href="67.836862745098" >
			<polygon id="fullLogo-2" points="109.2,11.8 101.2,32 93.2,11.8 88.2,11.8 85.8,38.1 89.6,38.1 91.4,17.4 99.8,38.1 102.6,38.1 
				111,17.4 112.8,38.1 116.6,38.1 114.1,11.8 			"/>
		</a>
		<a xlink:href="67.836862745098" >
			<rect id="fullLogo-3" x="124.8" y="11.8" width="3.7" height="26.2"/>
		</a>
		<a xlink:href="67.836862745098" >
			<polygon id="fullLogo-4" points="154.9,30.8 141,11.8 137.8,11.8 137.8,38.1 141.6,38.1 141.6,19 155.6,38.1 158.7,38.1 
				158.7,11.8 154.9,11.8 			"/>
		</a>
		<a xlink:href="67.836862745098" >
			<rect id="fullLogo-5" x="168" y="11.8" width="3.7" height="26.2"/>
		</a>
		<g id="logoMark">
			<a xlink:href="41.5035294117647" >
				<path id="logoMark__PathItem_" d="M42.2,26.6c4.7,0.3,8.4,4.1,8.7,8.7h2.6V23.9H42.2V26.6z"/>
			</a>
			<a xlink:href="67.836862745098" >
				<path id="logoMark__PathItem_-2" d="M42.2,38.6v-3.2c-3.6,0-6.7-1.7-8.6-4.3c-1.3-1.7-2-3.8-2-6c0-5.7,4.8-10.3,10.7-10.3
					c2.9,0,5.6,1.1,7.6,3.1l2.3-2.3c-2.6-2.6-6.1-4-9.9-4c-7.7,0-13.9,6.1-13.9,13.6c0,3.7,1.5,7,3.9,9.4
					C34.7,37,38.2,38.6,42.2,38.6z"/>
			</a>
		</g>
	</g>
</g>
<g id="Miovison" class="st0">
	<g class="st1">
		<path class="st2" d="M61.4,37.3c-0.7,0.7-0.7,1.8,0,2.5c0.7,0.7,1.8,0.7,2.5,0s0.7-1.8,0-2.5S62.1,36.6,61.4,37.3z M76.3,12.7
			c0.7-0.7,0.7-1.8,0-2.5c-0.7-0.7-1.8-0.7-2.5,0c-0.7,0.7-0.7,1.8,0,2.5C74.5,13.4,75.6,13.4,76.3,12.7z M73.2,14.6l-4.4,4.4h0
			c3.3,0,6,2.7,6,6c0,1.7-0.7,3.2-1.8,4.3L66.4,36c0.8,0.2,1.6,0.3,2.5,0.3c6.2,0,11.3-5,11.3-11.3C80.1,20.3,77.3,16.3,73.2,14.6z
			 M68.8,31c-3.3,0-6-2.7-6-6c0-1.7,0.7-3.2,1.8-4.3l6.7-6.7c-0.8-0.2-1.6-0.3-2.5-0.3c-6.2,0-11.3,5-11.3,11.3
			c0,4.7,2.8,8.7,6.9,10.4L68.8,31C68.9,31,68.9,31,68.8,31z"/>
		<path class="st2" d="M40.9,35.7V22.2c0-2-0.9-3.4-3.2-3.4c-2,0-3.6,1.3-4.5,2.5v14.5h-5.7V22.2c0-2-0.9-3.4-3.2-3.4
			c-2,0-3.6,1.3-4.5,2.5v14.5h-5.6V14.3h5.7V17c0.9-1.2,3.7-3.3,7-3.3c3.2,0,5.2,1.5,6,3.9c1.2-1.9,4.1-3.9,7.4-3.9
			c3.9,0,6.3,2.1,6.3,6.5v15.5H40.9z"/>
		<path class="st2" d="M49.6,35.7V14.3h5.7v21.5H49.6z"/>
		<path class="st2" d="M87.9,35.7l-8.6-21.5h6.1l5.6,14.9l5.7-14.9h6L94,35.7H87.9z"/>
		<path class="st2" d="M104.1,35.7V14.3h5.7v21.5H104.1z"/>
		<path class="st2" d="M111.4,32.9l2.4-4.1c1.6,1.5,4.8,3,7.4,3c2.4,0,3.6-0.9,3.6-2.3c0-3.5-12.7-0.6-12.7-9.1
			c0-3.6,3.1-6.8,8.8-6.8c3.6,0,6.5,1.2,8.6,2.9l-2.3,4c-1.3-1.3-3.7-2.5-6.3-2.5c-2.1,0-3.4,0.9-3.4,2.1c0,3.2,12.8,0.5,12.8,9.2
			c0,3.9-3.4,6.9-9.3,6.9C117.3,36.3,113.6,35,111.4,32.9z"/>
		<path class="st2" d="M132.7,35.7V14.3h5.7v21.5H132.7z"/>
		<path class="st2" d="M180.1,35.7v-13c0-3-1.5-4-3.9-4c-2.2,0-3.9,1.2-4.9,2.5v14.5h-5.7V14.3h5.7V17c1.4-1.6,4-3.3,7.5-3.3
			c4.8,0,7,2.7,7,6.9v15.2H180.1z"/>
		<path class="st2" d="M152,13.7c-6.2,0-11.3,5-11.3,11.3s5,11.3,11.3,11.3s11.3-5,11.3-11.3C163.2,18.8,158.2,13.7,152,13.7z
			 M152,31c-3.3,0-6-2.7-6-6s2.7-6,6-6c3.3,0,6,2.7,6,6S155.3,31,152,31z"/>
	</g>
</g>
<g id="Oracle" class="st0">
	<g class="st1">
		<path d="M89.3,28.6h11.3l-6-9.7l-11,17.5h-5l13.4-21c0.6-0.8,1.6-1.4,2.6-1.4c1,0,2,0.5,2.6,1.3l13.4,21h-5l-2.4-3.9H91.8
			L89.3,28.6 M141.3,32.5V14.3h-4.3v20c0,0.5,0.2,1.1,0.6,1.5c0.4,0.4,1,0.6,1.5,0.6h19.4l2.5-3.9H141.3 M71,29.3
			c4.1,0,7.5-3.3,7.5-7.5s-3.3-7.5-7.5-7.5H52.4v22.1h4.2V18.2h14.1c2,0,3.6,1.6,3.6,3.6c0,2-1.6,3.6-3.6,3.6l-12,0l12.7,11.1h6.2
			l-8.5-7.2H71 M26.3,36.4h12.8c6.1,0,11-4.9,11-11c0-6.1-4.9-11.1-11-11.1H26.3c-6.1,0-11.1,4.9-11.1,11.1
			C15.2,31.5,20.2,36.4,26.3,36.4 M38.9,32.5H26.6c-3.9,0-7.1-3.2-7.1-7.2c0-4,3.2-7.2,7.1-7.2h12.3c4,0,7.2,3.2,7.2,7.2
			C46,29.3,42.8,32.5,38.9,32.5 M119.6,36.4h13.1l2.5-3.9h-15.3c-4,0-7.2-3.2-7.2-7.2c0-4,3.2-7.2,7.2-7.2h12.5l2.5-3.9h-15.3
			c-6.1,0-11.1,4.9-11.1,11.1C108.5,31.5,113.4,36.4,119.6,36.4 M171.5,32.5c-3.3,0-6-2.2-6.9-5.2h18.2l2.5-3.9h-20.7
			c0.8-3,3.6-5.2,6.9-5.2H184l2.5-3.9h-15.2c-6.1,0-11,4.9-11,11.1c0,6.1,4.9,11,11,11h13.1l2.5-3.9H171.5"/>
	</g>
</g>
<g id="Syngenta" class="st0">
	<g class="st1">
		<path class="st2" d="M153,21.4h-5v8.2c0,2.3,1.2,2.8,2.8,2.8c0.6,0,1.2-0.1,1.8-0.2l0.4,3.7c-1.3,0.2-3,0.4-4.2,0.4
			c-3.4,0-6.5-1.2-6.5-5.4v-9.6h-2.9v-3.6h2.9v-4l5.7-1.6v5.6h5V21.4"/>
		<path class="st2" d="M137.8,36h-5.7V24.3c0-1.7-0.7-2.7-2.7-2.7c-1.5,0-2.4,0.7-3.5,1.5V36h-5.7V17.8h5.5v1.6c1.8-1.2,4-2,6.2-2
			c3.6,0,5.7,2.2,5.7,5.7V36"/>
		<path class="st2" d="M108.9,2.3c-2.9,4.9-1.6,9.2-4.4,12c-2.2,2.3-4.3,2.2-6.8,2.2c-0.9,0-2.5,0.1-3.2,0.6c-0.4-1.3-0.6-2.7-0.6-4
			c0-2.3,0.5-4.4,2.2-6C99.3,3.8,105.1,2.8,108.9,2.3"/>
		<path class="st2" d="M78.3,36h-5.7V24.3c0-1.7-0.7-2.7-2.7-2.7c-1.5,0-2.4,0.7-3.5,1.5V36h-5.7V17.8h5.5v1.6c1.8-1.2,4-2,6.2-2
			c3.6,0,5.7,2.2,5.7,5.7V36"/>
		<path class="st2" d="M59.7,17.8l-9.1,22c-1.4,3.4-4.2,5.9-8,5.9c-1.9,0-2.9-0.2-4.2-0.5l0.8-3.6c1,0.2,1.8,0.3,2.5,0.3
			c2.3,0,3.5-1.9,4.6-4.6l0.5-1.3l-7-18.2h6.1l3.3,9c0.4,1.1,0.6,2.2,0.8,3c0.2-0.8,0.6-2.1,1-3.1l3.4-8.9H59.7"/>
		<path class="st2" d="M39.7,30.2c0,4-3.7,6.1-8,6.1c-2.8,0-5.1-0.5-7.5-1.4l1.5-3.7c1.4,0.6,3.5,1.2,5.2,1.2c1.3,0,3.1-0.2,3.1-1.8
			c0-0.7-0.5-1.1-1.3-1.4c-1.1-0.3-2.7-0.6-3.8-0.9c-2.3-0.6-4.2-1.8-4.2-5.2c0-3.8,3.2-6.1,7.6-6.1c2.9,0,4.7,0.4,6.4,0.9l-1.4,3.7
			c-0.7-0.3-2.7-0.8-4.2-0.8c-1.6,0-2.6,0.6-2.6,1.5c0,0.5,0.3,1.1,1.1,1.3c0.9,0.3,2.3,0.5,3.5,0.8C37.4,25,39.7,26.4,39.7,30.2"/>
		<path class="st2" d="M164.9,31.1v-3.4c-2.6,0-5.1,0.2-5.1,2.7c0,1.5,1.3,2,2.3,2C163.3,32.5,164.2,31.9,164.9,31.1 M170.4,36h-5.3
			v-1.4c-1.4,1.2-3.2,1.8-5.2,1.8c-3.4,0-5.7-1.6-5.7-5.1c0-6,6-7,10.7-7v-0.5c0-1.5-0.6-2.6-3.3-2.6c-1.8,0-3.9,0.9-5.2,1.7
			l-1.4-3.4c2.4-1.3,5.4-2.2,8.2-2.2c4.3,0,7.2,2.1,7.2,5.7V36z"/>
		<path class="st2" d="M112,24.4c0.1-2-0.9-3.3-2.9-3.3c-1.9,0-3,1.4-3.4,3.3H112 M117.9,26.2c0,0.6,0,1.2-0.1,1.9h-12.1
			c0.1,2.6,1.4,4.2,5.2,4.2c1.7,0,3.8-0.8,4.6-1.4l1.5,3.4c-2.5,1.4-5.2,2.1-8.2,2.1c-5.7,0-9.2-3.6-9.2-9.4c0-5.9,4.6-9.6,9.6-9.6
			C115.6,17.3,117.9,21,117.9,26.2z"/>
		<path class="st2" d="M94.1,39c0-1.5-1.2-2-2.4-2h-5c-0.8,0.4-1.9,1.4-1.9,2.6c0,1.6,2.2,2.7,4.7,2.7C92.2,42.2,94.1,41,94.1,39
			 M92.6,23.3c0-1.5-0.8-2.8-2.7-2.8c-1.7,0-2.8,1.5-2.8,2.8c0,1.5,1,2.8,2.7,2.8C91.7,26.1,92.6,24.8,92.6,23.3z M99.8,38.2
			c0,5.3-5.3,7.8-10.5,7.8c-4.6,0-9-1.3-9-5.7c0-2.1,1.8-3.4,2.9-4.2c-0.6-0.4-1.2-0.6-1.7-1.2c-0.5-0.6-0.9-1.4-0.9-2.8
			c0-1.8,1.6-3.4,3.5-4.5c-1.1-0.6-2.5-1.4-2.5-4.4c0-3.9,3.7-5.9,8.5-5.9c4.1,0,8,1,8,5.8c0,4.6-4.3,6.2-8.6,6.2
			c-0.8,0-1.5-0.1-2.2-0.3c-0.5,0.2-1.4,0.9-1.4,1.5c0,1.4,1.9,1.6,2.8,1.6h4.5C97.3,32.2,99.8,34.2,99.8,38.2z"/>
		<path class="st2" d="M174,33.5c0.3,0,0.4,0,0.4-0.3c0-0.3-0.3-0.3-0.5-0.3h-0.4v0.6H174 M173,32.5h1c0.6,0,1,0.2,1,0.8
			c0,0.5-0.3,0.6-0.7,0.7L175,35h-0.6l-0.6-1.1h-0.3V35H173V32.5z M173.9,35.6c0.9,0,1.6-0.7,1.6-1.8c0-1.1-0.7-1.8-1.6-1.8
			c-0.9,0-1.6,0.7-1.6,1.8C172.3,34.8,173,35.6,173.9,35.6z M173.9,31.5c1.3,0,2.3,1,2.3,2.3c0,1.3-1,2.3-2.3,2.3
			c-1.3,0-2.3-1-2.3-2.3C171.6,32.5,172.7,31.5,173.9,31.5z"/>
	</g>
</g>
<g id="Axonify" class="st0">
	<g class="st1">
		<polygon points="72.7,15.9 68.8,15.9 63.5,23.7 58.1,15.9 53.7,15.9 61.1,26 54.1,36 58.1,36 63.2,28.4 68.7,36 73.1,36 
			65.7,25.9 		"/>
		<path d="M158.6,26.3c-0.9,3.1-2.1,6.4-3.3,8.5c-3.1-7.7-6.6-18.8-6.6-18.8h-4.1c0,0,4.2,12.3,8.4,22.1c-1.6,2.1-4,3.9-8.1,5.6
			l1.3,3c4-1.6,7.3-3.8,9.7-6.9c2.6-3.3,4.5-7.8,6-12.4c1.4-4.4,2.1-8.2,2.5-11.4h-3.6C160.4,19,159.6,22.9,158.6,26.3z"/>
		<path d="M110.3,15.5c-2.2,0-4.2,0.7-6,2.5v-2.2h-3.6V36h3.6V20.9c1.6-1.6,3.4-2.3,4.9-2.3c2.9,0,4.2,1.8,4.4,4.4
			c0,0.7,0.1,1.6,0.1,2.4V36h3.6v-11c0-2.1-0.1-4.2-0.8-5.7C115.6,16.9,113.4,15.5,110.3,15.5z"/>
		<path d="M137.7,14.4c0-1.2,0-1.8,0.1-2.4c0.4-3.1,2-4.1,4.6-4.1c0.7,0,1.9,0.1,3.2,0.4l0.3-2.8c-1.3-0.4-2.7-0.5-3.7-0.5
			c-3.8,0-6.8,1.7-7.8,5.5c-0.3,1.3-0.4,2.7-0.4,4.7v0.8h-3.3v3.3h3.3V36h3.6V19.2h4.9v-3.3h-4.9V14.4z"/>
		<rect x="123.5" y="15.9" width="3.6" height="20.2"/>
		<path d="M125.3,6.7c-1.4,0-2.5,0.9-2.5,2.4c0,1.5,0.9,2.4,2.4,2.4c1.4,0,2.5-1,2.5-2.4C127.8,7.7,126.8,6.7,125.3,6.7z"/>
		<path d="M37,7.7L37,7.7L26.7,36h3.9l2.7-8h11.6l3,8h4.2L41.3,7.7H37z M34.4,25l4.5-13.3L43.8,25H34.4z"/>
		<polygon points="164.8,8.2 166.1,8.2 166.1,11.8 166.7,11.8 166.7,8.2 168.1,8.2 168.1,7.7 164.8,7.7 		"/>
		<path d="M171.9,7.7l-1,2.9c-0.1,0.3-0.2,0.5-0.2,0.7c0-0.1-0.1-0.3-0.2-0.6l-1-3h-0.8v4.2h0.5V8.3l1.2,3.6h0.5l1.2-3.5v3.5h0.5
			V7.7H171.9z"/>
		<g>
			<path d="M97.1,26c0-5.9-4.8-10.7-10.7-10.7c-5.9,0-10.7,4.8-10.7,10.7c0,2,0.6,3.9,1.5,5.5c0,0,1.5,2.2-1.5,5.2
				c0.8,0,1.5-0.1,2.1-0.4c0.6-0.2,1.1-0.5,1.5-0.7c0.4-0.3,0.7-0.5,1-0.8c1.7,1.2,3.8,1.9,6.1,1.9C92.3,36.7,97.1,31.9,97.1,26z
				 M86.4,33.5c-4.1,0-7.5-3.4-7.5-7.5c0-4.1,3.4-7.5,7.5-7.5c4.1,0,7.5,3.4,7.5,7.5C93.9,30.2,90.5,33.5,86.4,33.5z"/>
			<path d="M99.7,44.1c0.5-0.8,0.7-1.7,0.7-2.7c0-2.9-2.3-5.2-5.2-5.2c-2.9,0-5.2,2.3-5.2,5.2c0,2.9,2.3,5.2,5.2,5.2
				c1.1,0,2.1-0.4,3-0.9c0.1,0.1,0.3,0.3,0.5,0.4c0.2,0.1,0.4,0.2,0.7,0.4c0.3,0.1,0.9,0.2,1.3,0.2C99.2,45.1,99.7,44.1,99.7,44.1z
				 M95.2,44.1c-1.5,0-2.8-1.2-2.8-2.8c0-1.5,1.2-2.8,2.8-2.8c1.5,0,2.8,1.2,2.8,2.8C97.9,42.9,96.7,44.1,95.2,44.1z"/>
		</g>
	</g>
</g>
<g id="RideCo" class="st0">
	<g class="st1">
		<path id="Path_95" class="st2" d="M124.2,23.6c0,2.2,1.8,4.1,4.1,4.1c2.2,0,4.1-1.8,4.1-4.1s-1.8-4.1-4.1-4.1l0,0
			C126,19.5,124.2,21.4,124.2,23.6z"/>
		<path id="Path_96" class="st2" d="M48.8,27.1c0.5-0.3,1.1-0.6,1.5-1c0.6-0.4,1-1,1.4-1.5c0.5-0.7,0.8-1.4,1.1-2.2
			c0.3-0.9,0.4-1.9,0.4-2.9c0-1.1-0.2-2.2-0.6-3.3c-0.4-1-1-1.9-1.7-2.7c-0.8-0.8-1.8-1.4-2.8-1.9c-1.2-0.5-2.5-0.7-3.8-0.7H31V36
			h7.5v-7.8h2.7l3.4,7.8h8.6L48.8,27.1L48.8,27.1z M44.9,21.1c-0.5,0.3-1.1,0.5-1.7,0.5h-4.6v-3.9h4.6c0.6,0,1.2,0.1,1.7,0.5
			c0.5,0.3,0.8,0.9,0.7,1.5C45.6,20.2,45.4,20.7,44.9,21.1L44.9,21.1z"/>
		<rect id="Rectangle_278" x="55.2" y="11" class="st2" width="7.5" height="24.9"/>
		<path id="Path_97" class="st2" d="M166,18.3c-0.7-1.5-1.7-2.9-2.9-4.1c-1.3-1.2-2.7-2-4.3-2.6c-3.5-1.2-7.3-1.2-10.8,0
			c-1.6,0.6-3.1,1.5-4.3,2.6c-1.2,1.1-2.2,2.5-2.9,4.1c-1.4,3.4-1.4,7.1,0,10.5c0.7,1.5,1.6,2.9,2.9,4.1c1.3,1.2,2.7,2,4.3,2.6
			c3.5,1.2,7.3,1.2,10.8,0c1.6-0.6,3.1-1.5,4.3-2.6c1.2-1.1,2.2-2.5,2.9-4.1C167.4,25.4,167.4,21.6,166,18.3z M158.9,26
			c-0.3,0.7-0.7,1.4-1.2,2c-0.5,0.6-1.2,1-1.9,1.3c-1.6,0.6-3.3,0.6-4.9,0c-0.7-0.3-1.4-0.8-1.9-1.3c-0.5-0.6-0.9-1.2-1.2-2
			c-0.6-1.6-0.6-3.3,0-4.9c0.3-0.7,0.7-1.4,1.2-2c0.5-0.6,1.2-1,1.9-1.3c1.6-0.6,3.3-0.6,4.9,0c0.7,0.3,1.4,0.8,1.9,1.3
			c0.5,0.6,0.9,1.2,1.2,2C159.5,22.6,159.5,24.4,158.9,26z"/>
		<path id="Path_98" class="st2" d="M89.4,18.2c-0.7-1.5-1.6-2.8-2.9-3.9c-1.3-1.1-2.7-1.9-4.3-2.4c-1.8-0.6-3.6-0.8-5.5-0.8H65.6
			V36h11.2c1.8,0,3.7-0.3,5.4-0.8c1.6-0.5,3.1-1.3,4.3-2.4c1.2-1.1,2.2-2.4,2.9-3.9C90.8,25.4,90.8,21.6,89.4,18.2L89.4,18.2
			L89.4,18.2z M82.4,25.7c-0.3,0.7-0.7,1.3-1.2,1.9c-0.5,0.6-1.2,1-1.9,1.3c-0.8,0.3-1.7,0.5-2.5,0.5h-3.6V17.6h3.6
			c0.9,0,1.8,0.1,2.6,0.4c0.7,0.3,1.4,0.7,1.9,1.2c0.5,0.5,0.9,1.2,1.1,1.9c0.3,0.7,0.4,1.5,0.4,2.3C82.8,24.2,82.6,25,82.4,25.7
			L82.4,25.7L82.4,25.7z"/>
		<path id="Path_99" class="st2" d="M110.7,17.6c0.8-2.4,2.1-4.7,3.7-6.6H92V36h22.2l-1.7-2.3c0-0.1-0.1-0.1-0.1-0.2
			c-0.2-0.3-0.4-0.6-0.5-0.9l-0.1-0.1c-0.5-1-0.9-2-1.3-3.1H99.5v-2.7h10.4c-0.4-2.2-0.3-4.4,0.1-6.6H99.5v-2.5L110.7,17.6
			L110.7,17.6z"/>
		<path id="Path_100" class="st2" d="M140.3,32.4l-5-4.2c-0.1-0.1-0.3-0.2-0.4-0.2c0,0,0,0,0,0c-0.2,0-0.3,0.1-0.4,0.2
			c-2.5,3.5-7.4,4.3-10.9,1.7c-3.5-2.5-4.3-7.4-1.7-10.9c1.5-2,3.8-3.2,6.3-3.2c2.5,0,4.8,1.2,6.3,3.2c0.1,0.1,0.3,0.2,0.4,0.2h0
			c0.2,0,0.3-0.1,0.4-0.2l4.8-4c0.3-0.3,0.3-0.7,0.1-1c-5.3-6.6-15-7.6-21.7-2.3c-5.7,4.6-7.4,12.5-4,19l0.1,0.1
			c0.1,0.2,0.3,0.5,0.4,0.7c0.2,0.4,1.1,1.6,2.3,3.1c0.3,0.3,10.2,12.7,10.2,12.7c0.2,0.4,0.7,0.5,1,0.3c0.1-0.1,0.2-0.2,0.3-0.3
			l11.6-14C140.6,33,140.6,32.6,140.3,32.4L140.3,32.4z"/>
	</g>
</g>
<g id="Motley" class="st0">
	<g class="st1">
		<g>
			<path class="st2" d="M13,31.2H8.3v-3.4h13v3.4h-4.6v13.7H13C13,44.9,13,31.2,13,31.2z"/>
			<path class="st2" d="M22.3,27.8h3.7V34c0.5-1.1,1.8-1.8,3.5-1.8c2.9,0,4.6,1.9,4.6,5.1v7.5h-3.7v-7.1c0-1.4-0.7-2.3-2.1-2.3
				s-2.3,1-2.3,2.5v7h-3.7V27.8L22.3,27.8z"/>
			<path class="st2" d="M35.2,38.7c0-3.9,2.8-6.5,6.6-6.5s6.3,2.8,6.3,6.3c0,0,0,0.6-0.1,1.2h-9.1c0.1,1.5,1.3,2.4,3.3,2.4
				c2.4,0,3.7-0.7,4.4-1.2v3.2c-1.2,0.7-2.4,1.1-4.6,1.1c-4,0-6.7-2.5-6.7-6.4V38.7z M44.4,37.3c0-1.1-1.1-2-2.6-2
				c-1.5,0-2.8,0.9-2.9,2H44.4L44.4,37.3z"/>
			<path class="st2" d="M55.2,27.2l9,9.9l9-9.9v17.7h-3.6v-8.7l-5.4,6.1l-5.4-6.1v8.7h-3.6L55.2,27.2L55.2,27.2z"/>
			<path class="st2" d="M81.4,32.1c3.8,0,6.9,2.9,6.9,6.6s-3.1,6.6-6.9,6.6c-3.8,0-6.9-2.9-6.9-6.6S77.5,32.1,81.4,32.1L81.4,32.1z
				 M81.4,41.9c1.8,0,3.2-1.4,3.2-3.2c0-1.8-1.4-3.2-3.2-3.2c-1.8,0-3.2,1.4-3.2,3.2S79.6,41.9,81.4,41.9z"/>
			<path class="st2" d="M90.3,35.8h-1.6v-3.3h1.6v-4.7h3.6v4.7h2.7v3.3h-2.7v9.1h-3.6V35.8z"/>
			<path class="st2" d="M97.6,27.8h3.7v17.1h-3.7C97.6,44.9,97.6,27.8,97.6,27.8z"/>
			<path class="st2" d="M102.4,38.7c0-3.9,2.8-6.5,6.6-6.5s6.3,2.8,6.3,6.3c0,0,0,0.6-0.1,1.2h-9.1c0.1,1.5,1.3,2.4,3.3,2.4
				c2.4,0,3.7-0.7,4.4-1.2v3.2c-1.2,0.7-2.4,1.1-4.6,1.1c-4,0-6.7-2.5-6.7-6.4L102.4,38.7L102.4,38.7z M111.6,37.3
				c0-1.1-1.1-2-2.6-2c-1.5,0-2.8,0.9-2.9,2H111.6L111.6,37.3z"/>
			<path class="st2" d="M114.7,32.5h3.8l3.3,8.3l3.3-8.3h3.8l-7.3,17.2h-3.8l2-4.5L114.7,32.5L114.7,32.5z"/>
			<path class="st2" d="M135.1,27.8h11.3v3.4h-7.5v3.5h6.8v3.4h-6.8v6.8h-3.8C135.1,44.9,135.1,27.8,135.1,27.8z"/>
			<path class="st2" d="M153.9,32.1c3.8,0,6.9,2.9,6.9,6.6s-3.1,6.6-6.9,6.6c-3.8,0-6.9-2.9-6.9-6.6S150,32.1,153.9,32.1z
				 M153.9,41.9c1.8,0,3.2-1.4,3.2-3.2c0-1.8-1.4-3.2-3.2-3.2c-1.8,0-3.2,1.4-3.2,3.2S152,41.9,153.9,41.9z"/>
			<path class="st2" d="M168.4,32.1c3.8,0,6.9,2.9,6.9,6.6s-3.1,6.6-6.9,6.6s-6.9-2.9-6.9-6.6S164.5,32.1,168.4,32.1z M168.4,41.9
				c1.8,0,3.2-1.4,3.2-3.2c0-1.8-1.4-3.2-3.2-3.2s-3.2,1.4-3.2,3.2S166.5,41.9,168.4,41.9z"/>
			<path class="st2" d="M176.6,27.8h3.7v17.1h-3.7C176.6,44.9,176.6,27.8,176.6,27.8z"/>
			<g>
				<circle class="st2" cx="189.2" cy="23.4" r="2.5"/>
				<path class="st2" d="M188.9,19c0.2,0,0.3-0.2,0.3-0.4c-1.7-10.9-7.7-19-14.9-19c-4.9,0-10.4,3.7-13.2,9.4
					c-2.8-5.8-8.4-9.4-13.2-9.4c-7.2,0-13.2,8.1-14.9,19c0,0.2,0.1,0.4,0.3,0.4c0.2,0,0.3-0.1,0.4-0.2c1.7-4.2,4.6-6.9,7.9-6.9
					c4.8,0,8.9,5.8,9.4,13.8c0.6,1.3,5.5,2.3,10.1,2.5c4.5-0.2,9.5-1.2,10.1-2.5c0.5-8,4.6-13.8,9.4-13.8c3.3,0,6.2,2.8,7.9,6.9
					C188.6,19,188.8,19.1,188.9,19L188.9,19z"/>
				<path class="st2" d="M133.1,20.9c-1.4,0-2.5,1.1-2.5,2.5c0,1.4,1.1,2.5,2.5,2.5s2.5-1.1,2.5-2.5
					C135.5,22.1,134.4,20.9,133.1,20.9z"/>
			</g>
		</g>
		<path class="st2" d="M182.3,44.1c0-0.7,0.5-1.2,1.2-1.2c0.7,0,1.2,0.5,1.2,1.2s-0.5,1.2-1.2,1.2C182.9,45.3,182.3,44.8,182.3,44.1
			z M184.5,44.1c0-0.6-0.4-1-1-1c-0.6,0-1,0.4-1,1c0,0.6,0.4,1,1,1C184.1,45,184.5,44.6,184.5,44.1z M183.1,43.4h0.5
			c0.3,0,0.4,0.2,0.4,0.4c0,0.2-0.1,0.3-0.2,0.4l0.3,0.5h-0.3l-0.3-0.5h-0.2v0.5h-0.3L183.1,43.4L183.1,43.4z M183.6,44
			c0.1,0,0.2-0.1,0.2-0.2c0-0.1-0.1-0.2-0.2-0.2h-0.2V44L183.6,44L183.6,44z"/>
	</g>
</g>
<g id="Communitech" class="st0">
	<g class="st1">
		<path class="st2" d="M128.2,13.8h14.9v5.1h-4.8v13.5h-5.4V18.9h-4.7L128.2,13.8L128.2,13.8z M117.3,9.4l4,7v-2.6h5.4v12l8.6,14.9
			l8.9-15.5V13.8h6.5l2.6-4.5H117.3L117.3,9.4z"/>
		<path class="st2" d="M10.6,25.5h3.1V26c0,2.3-0.4,3.7-1.2,4.4c-0.8,0.7-2.6,1-5.5,1c-3.2,0-5.2-0.5-5.9-1.6S0,26,0,21.4
			c0-2.7,0.5-4.4,1.5-5.3c1-0.8,3.1-1.3,6.3-1.3c2.3,0,3.9,0.3,4.6,1c0.8,0.7,1.2,2.1,1.2,4.1l0,0.4h-3.1V20c0-1.1-0.2-1.7-0.6-2
			c-0.4-0.3-1.3-0.5-2.7-0.5c-1.9,0-3,0.2-3.4,0.7s-0.6,1.9-0.6,4.2c0,3.1,0.2,4.9,0.5,5.5C4,28.5,5.1,28.7,7,28.7
			c1.5,0,2.5-0.2,3-0.5c0.5-0.3,0.7-1,0.7-2.1L10.6,25.5L10.6,25.5z"/>
		<path class="st2" d="M24.3,17.5c-2.1,0-3.3,0.3-3.6,0.8c-0.3,0.5-0.5,2.4-0.5,5.5c0,2.3,0.2,3.7,0.6,4.2c0.4,0.5,1.6,0.7,3.6,0.7
			s3-0.3,3.4-0.8c0.4-0.5,0.6-2.2,0.6-4.9s-0.2-4.3-0.5-4.8C27.5,17.8,26.3,17.5,24.3,17.5 M24.6,14.9c2.9,0,4.8,0.5,5.7,1.5
			c0.8,1,1.3,3.2,1.3,6.6c0,3.7-0.4,6.1-1.3,7c-0.9,1-2.9,1.5-6.2,1.5c-2.9,0-4.8-0.5-5.7-1.4c-0.9-1-1.3-3.1-1.3-6.3
			c0-3.9,0.4-6.3,1.3-7.3C19.2,15.4,21.3,14.9,24.6,14.9"/>
		<path class="st2" d="M54.8,15v16.2h-3.1v-8.9c0-0.7,0-1.5,0.1-2.4l0.1-1.2l0.1-1.2h-0.1l-0.4,1.1l-0.4,1.1c-0.3,1-0.6,1.8-0.8,2.2
			l-3.6,9.2h-2.8l-3.6-9.1c-0.2-0.5-0.5-1.3-0.8-2.2l-0.4-1.1l-0.4-1.1h-0.1l0.1,1.2l0.1,1.2c0.1,0.9,0.1,1.7,0.1,2.4v8.9h-3.1V15h5
			l2.9,7.5c0.2,0.5,0.5,1.3,0.8,2.2l0.4,1.1l0.4,1.1h0.1l0.3-1.1l0.4-1.1c0.3-0.9,0.5-1.7,0.8-2.2l2.9-7.5L54.8,15L54.8,15z"/>
		<path class="st2" d="M78.8,15v16.2h-3.1v-8.9c0-0.7,0-1.5,0.1-2.4l0.1-1.2l0.1-1.2h-0.1l-0.4,1.1l-0.4,1.1c-0.3,1-0.6,1.8-0.8,2.2
			l-3.6,9.2h-2.8l-3.6-9.1c-0.2-0.5-0.5-1.3-0.8-2.2l-0.4-1.1l-0.4-1.1h-0.1l0.1,1.2l0.1,1.2c0,0.9,0.1,1.7,0.1,2.4v8.9h-3.1V15h5
			l2.9,7.5c0.2,0.5,0.5,1.3,0.8,2.2l0.4,1.1l0.4,1.1h0.1l0.3-1.1l0.4-1.1c0.3-0.9,0.5-1.7,0.8-2.2l2.9-7.5L78.8,15L78.8,15z"/>
		<path class="st2" d="M94.3,15h3.1v10.8c0,2.3-0.4,3.8-1.3,4.5c-0.9,0.7-2.6,1.1-5.3,1.1c-2.8,0-4.7-0.3-5.6-1
			c-0.9-0.7-1.3-2.1-1.3-4.4V15h3.1v11c0,1.2,0.2,1.9,0.6,2.3c0.4,0.3,1.4,0.5,3,0.5s2.7-0.2,3.1-0.5c0.4-0.3,0.6-1.1,0.6-2.4
			L94.3,15L94.3,15z"/>
		<path class="st2" d="M117.4,15v16.2h-5.2l-4.6-8.9c-0.2-0.4-0.6-1.2-1.1-2.3l-0.5-1.2l-0.5-1.2h-0.1l0.1,1.1l0,1.1l0,2.1v9.3h-3.1
			V15h5.2l4.2,8.2c0.4,0.7,0.8,1.6,1.3,2.7l0.6,1.3l0.6,1.3h0.1l0-1l0-1l0-2.1V15H117.4L117.4,15z"/>
		<rect x="122.5" y="15" class="st2" width="3.1" height="16.2"/>
		<polygon class="st2" points="137.1,17.8 137.1,31.3 134.1,31.3 134.1,17.8 129.4,17.8 129.4,15 142,15 142,17.8 		"/>
		<polygon class="st2" points="148.5,17.6 148.5,21.8 156.1,21.8 156.1,24.1 148.5,24.1 148.5,28.7 156.6,28.7 156.6,31.3 
			145.4,31.3 145.4,15 156.5,15 156.5,17.6 		"/>
		<path class="st2" d="M171.1,25.5h3.1V26c0,2.3-0.4,3.7-1.2,4.4c-0.8,0.7-2.6,1-5.5,1c-3.2,0-5.2-0.5-5.9-1.6
			c-0.7-1-1.1-3.8-1.1-8.4c0-2.7,0.5-4.4,1.5-5.3c1-0.8,3.1-1.3,6.3-1.3c2.3,0,3.9,0.3,4.6,1c0.8,0.7,1.2,2.1,1.2,4.1l0,0.4H171V20
			c0-1.1-0.2-1.7-0.6-2c-0.4-0.3-1.3-0.5-2.7-0.5c-1.9,0-3,0.2-3.4,0.7c-0.4,0.5-0.6,1.9-0.6,4.2c0,3.1,0.2,4.9,0.5,5.5
			c0.3,0.6,1.5,0.9,3.3,0.9c1.5,0,2.5-0.2,3-0.5c0.5-0.3,0.7-1,0.7-2.1L171.1,25.5L171.1,25.5z"/>
		<polygon class="st2" points="192.1,15 192.1,31.3 189,31.3 189,24.2 181.4,24.2 181.4,31.3 178.3,31.3 178.3,15 181.4,15 
			181.4,21.7 189,21.7 189,15 		"/>
		<path class="st2" d="M197,15c1.4,0,2.5,1.1,2.5,2.5S198.4,20,197,20s-2.5-1.1-2.5-2.5S195.6,15,197,15 M197,19.6
			c1.1,0,2-0.9,2-2.1c0-1.2-0.9-2.1-2-2.1c-1.1,0-2,0.9-2,2.1S195.8,19.6,197,19.6 M196,16h1.1c0.7,0,1,0.3,1,0.8
			c0,0.5-0.3,0.8-0.7,0.8l0.8,1.3h-0.5l-0.8-1.3h-0.4v1.3H196V16z M196.5,17.3h0.6c0.4,0,0.6-0.1,0.6-0.5c0-0.3-0.3-0.4-0.6-0.4
			h-0.6C196.5,16.4,196.5,17.3,196.5,17.3z"/>
	</g>
</g>
<g id="Daggerwing" class="st0">
	<g class="st1">
		<path class="st2" d="M25.2,36.3H25v-3.7l0,0c-0.7,1.3-1.6,2.2-2.5,2.7s-2.2,0.9-3.7,0.9c-0.9,0-1.8-0.2-2.6-0.6
			c-0.9-0.3-1.6-0.9-2.3-1.7c-0.7-0.8-1.1-1.7-1.6-2.7c-0.3-1-0.6-2.3-0.6-3.8c0-1.4,0.2-2.5,0.7-3.7c0.5-1.1,1-2.1,1.9-2.9
			c0.8-0.8,1.8-1.5,3-1.9c1.1-0.5,2.4-0.7,3.9-0.7c0.7,0,1.5,0,2.1,0.2s1.3,0.2,1.8,0.5c0-0.3,0-0.9,0-1.5c0-0.7,0-1.3,0-1.9v-3.2
			l-3.2-1.1V11l5.8-1.6h0.3v23.9c0.2,0.1,0.6,0.3,1.1,0.5c0.6,0.2,1,0.5,1.5,0.7v0.2L25.2,36.3z M25,22.4c-0.6-1-1.3-1.8-2.1-2.4
			c-0.8-0.6-1.6-0.9-2.3-0.9c-0.9,0-1.7,0.2-2.4,0.7c-0.8,0.3-1.4,0.9-1.8,1.7c-0.5,0.7-0.8,1.6-1,2.5c-0.1,0.9-0.2,1.9-0.2,3
			s0.1,1.9,0.3,3c0.2,0.9,0.6,1.8,1.1,2.5c0.5,0.7,1.1,1.3,1.8,1.7c0.7,0.5,1.6,0.7,2.5,0.7c1,0,1.8-0.3,2.6-1
			c0.7-0.7,1.1-1.6,1.4-2.6V22.4L25,22.4z"/>
		<path class="st2" d="M47.1,33.9c-0.2,0.5-0.5,0.8-0.8,1.1c-0.3,0.3-0.7,0.7-1.1,0.8C44.7,36,44.2,36,43.8,36
			c-0.8,0-1.6-0.2-2.2-0.7c-0.7-0.5-1-1.4-1-2.6h-0.1c-0.2,0.3-0.5,0.7-0.8,1c-0.3,0.5-0.7,0.8-1.1,1.1s-0.9,0.7-1.5,0.8
			c-0.6,0.2-1.1,0.3-1.8,0.3c-0.5,0-0.8,0-1.1-0.2c-0.5-0.1-0.8-0.3-1.1-0.6s-0.6-0.7-0.8-1c-0.2-0.5-0.3-1-0.3-1.6
			c0-0.7,0.2-1.4,0.8-1.9c0.6-0.7,1.3-1.3,2.1-1.7c0.8-0.5,1.5-0.9,2.2-1.4c0.7-0.3,1.1-0.7,1.6-0.9c0.5-0.2,0.9-0.5,1.3-0.7
			c0.3-0.2,0.7-0.3,0.9-0.5v-3.8c0,0,0-0.2-0.1-0.3c-0.1-0.2-0.2-0.3-0.5-0.6c-0.2-0.2-0.5-0.3-0.9-0.6c-0.3-0.1-0.9-0.2-1.5-0.2
			c-0.5,0-0.8,0.1-1.1,0.2c-0.3,0.1-0.7,0.3-1,0.5c-0.3,0.2-0.6,0.5-0.7,0.7c-0.1,0.1-0.1,0.3-0.1,0.5v1.7c0,0.3-0.2,0.7-0.6,0.9
			s-0.7,0.5-1.1,0.5s-0.7-0.1-1-0.5c-0.3-0.2-0.5-0.6-0.5-1c0-0.3,0.1-0.6,0.2-0.8c0.1-0.2,0.3-0.5,0.6-0.7c0.2-0.2,0.5-0.3,0.7-0.5
			c0.2-0.1,0.5-0.2,0.7-0.5c0.7-0.3,1.3-0.7,1.9-1c0.7-0.3,1.3-0.7,1.9-0.9c0.6-0.2,1.1-0.5,1.7-0.6c0.5-0.1,0.9-0.2,1.3-0.2
			c0.7,0,1.3,0.1,1.8,0.5c0.6,0.3,1,0.7,1.3,1.3c0.1,0.2,0.1,0.5,0.2,0.9c0,0.5,0,0.9,0,1.3c0,0.9,0,1.7,0,2.4s0,1.4,0,2.1
			c0,0.7,0,1.4,0,2.1s0,1.5,0,2.3c0,1.1,0.2,1.8,0.6,2.2s0.8,0.6,1.3,0.6c0.6,0,1-0.1,1.3-0.3c0.2-0.2,0.5-0.6,0.6-0.9h0.2
			C47.4,32.9,47.3,33.4,47.1,33.9L47.1,33.9z M40.6,26.1c-0.5,0.3-1,0.7-1.7,1c-0.7,0.3-1.3,0.7-1.9,1.1c-0.7,0.5-1.1,0.9-1.6,1.4
			c-0.5,0.5-0.7,1-0.7,1.7c0,0.7,0.2,1.3,0.7,1.7s1,0.8,1.7,0.8s1.3-0.1,1.7-0.2c0.5-0.1,0.9-0.5,1.4-0.9c0.3-0.2,0.5-0.6,0.5-1
			V26.1L40.6,26.1z"/>
		<path class="st2" d="M66,21.3c-0.2,0.2-0.6,0.5-0.9,0.5c-0.1,0-0.3,0-0.7-0.2c-0.3-0.1-0.7-0.2-1-0.5c-0.3-0.2-0.7-0.3-1-0.6
			s-0.7-0.5-1-0.6L61.2,20c0.3,0.6,0.7,1,0.9,1.6c0.2,0.5,0.3,1.1,0.3,1.9c0,1.9-0.7,3.4-2.1,4.4c-1.4,0.9-3.2,1.5-5.6,1.5
			c-0.3,0-0.7,0-1-0.1c-0.3,0-0.8-0.1-1.3-0.1c-0.8,0-1.4,0.2-1.8,0.6C50.2,30.1,50,30.4,50,31c0,0.5,0.1,0.7,0.3,1
			c0.2,0.2,0.6,0.5,0.9,0.6s0.8,0.2,1.3,0.3c0.5,0,0.9,0.1,1.3,0.1h6c0.9,0,1.6,0.1,2.3,0.5c0.7,0.3,1.3,0.7,1.7,1.1s0.9,1,1.1,1.6
			s0.3,1.3,0.3,2.1c0,0.9-0.2,1.8-0.7,2.7c-0.5,0.9-1.1,1.6-1.9,2.3c-0.9,0.7-1.8,1.1-3,1.6c-1.1,0.3-2.4,0.6-3.9,0.6
			c-2.6,0-4.8-0.5-6.3-1.1c-1.5-0.8-2.2-1.9-2.2-3.3c0-0.5,0.1-1,0.5-1.4c0.2-0.5,0.7-0.8,1-1.1c0.5-0.3,0.9-0.7,1.5-1
			c0.6-0.3,1-0.7,1.6-1v-0.1c-1.3-0.1-2.2-0.5-2.9-1c-0.7-0.6-1-1.3-1-2.3c0-0.5,0.1-0.9,0.3-1.4c0.2-0.5,0.6-0.8,0.9-1.1
			c0.5-0.3,0.9-0.7,1.4-0.9c0.5-0.2,1.1-0.3,1.7-0.5v-0.1c-1-0.5-1.9-1-2.5-1.8c-0.6-0.8-0.9-1.8-0.9-3.1c0-0.8,0.2-1.5,0.6-2.2
			c0.3-0.7,0.9-1.3,1.5-1.8c0.7-0.5,1.4-0.9,2.3-1.1c0.9-0.3,1.8-0.5,2.9-0.5c0.9,0,1.7,0.1,2.5,0.2c0.7,0.2,1.5,0.5,2.3,0.9
			c0.3,0.1,0.6,0.1,0.8,0.2c0.2,0,0.5,0,0.8,0s0.6,0,0.8-0.1s0.5-0.2,0.7-0.3s0.5-0.2,0.7-0.3s0.5-0.1,0.8-0.1c0.5,0,0.8,0.1,1,0.5
			c0.2,0.3,0.5,0.7,0.5,1C66.4,20.7,66.3,21,66,21.3L66,21.3z M62.4,37.9c-0.3-0.5-0.7-0.9-1-1c-0.6-0.2-1.3-0.5-2.1-0.6
			C58.5,36.2,57.4,36,56,36c-0.5,0-1,0-1.6,0.1c-0.6,0-1,0.1-1.4,0.1c-1.1,0.3-1.9,0.8-2.4,1.4C50.2,38.3,50,39,50,39.7
			c0,0.7,0.2,1.5,0.7,2.1c0.5,0.6,0.9,1,1.6,1.5c0.7,0.5,1.3,0.7,2.1,0.9c0.7,0.2,1.4,0.3,2.1,0.3c0.7,0,1.4,0,1.9-0.1
			c0.6-0.1,1-0.2,1.4-0.3c0.9-0.3,1.6-0.9,2.3-1.7c0.7-0.8,1-1.7,1-2.7C62.8,39,62.7,38.3,62.4,37.9L62.4,37.9z M59.3,21.8
			c-0.2-0.6-0.5-1-0.8-1.5c-0.3-0.5-0.8-0.8-1.3-1c-0.5-0.2-1-0.3-1.7-0.3c-0.6,0-1.1,0.1-1.7,0.5c-0.5,0.2-0.9,0.7-1.3,1.1
			s-0.6,1-0.8,1.6s-0.2,1.3-0.2,1.8c0,1.5,0.3,2.6,1.1,3.6c0.8,0.9,1.7,1.4,2.7,1.4c0.7,0,1.3-0.1,1.7-0.5c0.5-0.3,0.9-0.7,1.3-1.1
			s0.6-1,0.8-1.7c0.2-0.7,0.2-1.3,0.2-1.9C59.6,23,59.5,22.4,59.3,21.8z"/>
		<path class="st2" d="M84.4,21.3c-0.2,0.2-0.6,0.5-0.9,0.5c-0.1,0-0.3,0-0.7-0.2c-0.3-0.1-0.7-0.2-1-0.5c-0.3-0.2-0.7-0.3-1-0.6
			s-0.7-0.5-1-0.6L79.6,20c0.3,0.6,0.7,1,0.9,1.6c0.2,0.5,0.3,1.1,0.3,1.9c0,1.9-0.7,3.4-2.1,4.4c-1.4,0.9-3.2,1.5-5.6,1.5
			c-0.3,0-0.7,0-1-0.1c-0.3,0-0.8-0.1-1.3-0.1c-0.8,0-1.4,0.2-1.8,0.6c-0.5,0.3-0.7,0.7-0.7,1.3c0,0.5,0.1,0.7,0.3,1
			c0.2,0.2,0.6,0.5,0.9,0.6c0.3,0.1,0.8,0.2,1.3,0.3c0.5,0,0.9,0.1,1.3,0.1h6c0.9,0,1.6,0.1,2.3,0.5c0.7,0.3,1.3,0.7,1.7,1.1
			s0.9,1,1.1,1.6s0.3,1.3,0.3,2.1c0,0.9-0.2,1.8-0.7,2.7c-0.5,0.9-1.1,1.6-1.9,2.3c-0.9,0.7-1.8,1.1-3,1.6c-1.1,0.3-2.4,0.6-3.9,0.6
			c-2.6,0-4.8-0.5-6.3-1.1c-1.5-0.8-2.2-1.9-2.2-3.3c0-0.5,0.1-1,0.5-1.4c0.2-0.5,0.7-0.8,1-1.1c0.5-0.3,0.9-0.7,1.5-1
			c0.6-0.3,1-0.7,1.6-1v-0.1c-1.3-0.1-2.2-0.5-2.9-1s-1-1.3-1-2.3c0-0.5,0.1-0.9,0.3-1.4c0.2-0.5,0.6-0.8,0.9-1.1
			c0.5-0.3,0.9-0.7,1.4-0.9c0.5-0.2,1.1-0.3,1.7-0.5v-0.1c-1-0.5-1.9-1-2.5-1.8c-0.6-0.8-0.9-1.8-0.9-3.1c0-0.8,0.2-1.5,0.6-2.2
			c0.3-0.7,0.9-1.3,1.5-1.8c0.7-0.5,1.4-0.9,2.3-1.1c0.9-0.3,1.8-0.5,2.9-0.5c0.9,0,1.7,0.1,2.5,0.2c0.7,0.2,1.5,0.5,2.3,0.9
			c0.3,0.1,0.6,0.1,0.8,0.2c0.2,0,0.5,0,0.8,0s0.6,0,0.8-0.1s0.5-0.2,0.7-0.3c0.2-0.1,0.5-0.2,0.7-0.3c0.2-0.1,0.5-0.1,0.8-0.1
			c0.5,0,0.8,0.1,1,0.5c0.2,0.3,0.5,0.7,0.5,1C84.8,20.7,84.7,21,84.4,21.3L84.4,21.3z M80.8,37.9c-0.3-0.5-0.7-0.9-1-1
			c-0.6-0.2-1.3-0.5-2.1-0.6S75.7,36,74.3,36c-0.5,0-1,0-1.6,0.1c-0.6,0-1,0.1-1.4,0.1c-1.1,0.3-1.9,0.8-2.4,1.4
			c-0.5,0.7-0.7,1.4-0.7,2.1c0,0.7,0.2,1.5,0.7,2.1c0.5,0.6,0.9,1,1.6,1.5c0.7,0.5,1.3,0.7,2.1,0.9c0.7,0.2,1.4,0.3,2.1,0.3
			c0.7,0,1.4,0,1.9-0.1c0.6-0.1,1-0.2,1.4-0.3c0.9-0.3,1.6-0.9,2.3-1.7c0.7-0.8,1-1.7,1-2.7C81.2,39,81,38.3,80.8,37.9L80.8,37.9z
			 M77.7,21.8c-0.2-0.6-0.5-1-0.8-1.5c-0.3-0.5-0.8-0.8-1.3-1s-1-0.3-1.7-0.3c-0.6,0-1.1,0.1-1.7,0.5c-0.5,0.2-0.9,0.7-1.3,1.1
			s-0.6,1-0.8,1.6s-0.2,1.3-0.2,1.8c0,1.5,0.3,2.6,1.1,3.6c0.8,0.9,1.7,1.4,2.7,1.4c0.7,0,1.3-0.1,1.7-0.5s0.9-0.7,1.3-1.1
			s0.6-1,0.8-1.7c0.2-0.6,0.2-1.3,0.2-1.9C78,23,77.9,22.4,77.7,21.8z"/>
		<path class="st2" d="M98.9,32.4c-0.3,0.7-0.8,1.3-1.4,1.8c-0.6,0.6-1.3,1-2.2,1.4c-0.8,0.3-1.7,0.6-2.7,0.6
			c-1.3,0-2.4-0.2-3.4-0.7c-1-0.5-1.9-1.1-2.6-1.9c-0.7-0.9-1.3-1.8-1.7-3s-0.6-2.4-0.6-3.7c0-1,0.2-2.1,0.6-3.1
			c0.3-1,0.9-1.9,1.6-2.7s1.5-1.5,2.5-1.9c0.9-0.5,2.1-0.8,3.2-0.8c0.9,0,1.8,0.1,2.7,0.3s1.6,0.7,2.2,1.1s1.1,1.1,1.5,1.9
			c0.5,0.8,0.7,1.7,0.7,2.7H87.4c0,0.2,0,0.5,0,0.7c0,0.2,0,0.6,0,0.8c0,1,0.1,2.1,0.5,3c0.3,0.9,0.7,1.8,1.3,2.5
			c0.6,0.7,1.3,1.3,2.2,1.7s1.8,0.7,3,0.7c1.3,0,2.3-0.3,3.2-0.9c0.9-0.7,1.5-1.4,1.8-2.3l0.3,0.1C99.4,31,99.2,31.7,98.9,32.4
			L98.9,32.4z M94.6,19.9c-0.7-0.7-1.5-1-2.5-1c-0.7,0-1.3,0.2-1.8,0.6c-0.6,0.5-1,0.9-1.5,1.4c-0.5,0.6-0.7,1-0.9,1.6
			c-0.2,0.6-0.3,1-0.5,1.3h1.5c0.5,0,0.9,0,1.3,0c0.5,0,0.9,0,1.4,0c0.5,0,1,0,1.5,0c0.3,0,0.7,0,1,0c0.3,0,0.6-0.1,0.9-0.2
			c0.2-0.2,0.3-0.3,0.3-0.6c0.1-0.2,0.1-0.5,0.1-0.8C95.5,21.4,95.3,20.6,94.6,19.9L94.6,19.9z"/>
		<path class="st2" d="M111.8,21.6c-0.3,0.3-0.7,0.6-1.1,0.6c-0.5,0-0.7-0.1-0.9-0.2c-0.2-0.1-0.5-0.2-0.6-0.5
			c-0.2-0.2-0.3-0.3-0.6-0.5c-0.2-0.1-0.5-0.2-0.8-0.2c-0.3,0-0.6,0.1-0.9,0.3c-0.2,0.2-0.6,0.5-0.8,0.8s-0.5,0.7-0.7,1
			c-0.2,0.5-0.3,0.8-0.5,1.1v10.7c0.1,0.2,0.2,0.5,0.5,0.5c0.2,0.1,0.6,0.2,0.8,0.2c0.3,0,0.7,0.1,0.9,0.1c0.3,0,0.7,0,0.9,0.1V36
			h-8.2v-0.3c0.6,0,1-0.1,1.5-0.3s0.6-0.5,0.6-0.9V22.1c0-0.2,0-0.3,0-0.5c0-0.1-0.1-0.2-0.3-0.3c-0.2-0.1-0.5-0.2-0.8-0.5
			c-0.3-0.2-0.6-0.3-0.9-0.5v-0.2l4.8-1.8h0.2l-0.1,5.2h0.1c0.1-0.3,0.3-0.7,0.6-1.3c0.2-0.6,0.6-1.1,1-1.7c0.5-0.6,0.9-1,1.5-1.5
			c0.6-0.5,1.3-0.7,2.1-0.7c0.6,0,1.1,0.2,1.6,0.6c0.5,0.3,0.7,0.8,0.7,1.4C112.3,20.8,112.1,21.3,111.8,21.6L111.8,21.6z"/>
		<path class="st2" d="M140,19.1c-0.3,0-0.6,0.1-0.9,0.2c-0.3,0.1-0.6,0.3-0.9,0.7c-0.3,0.3-0.6,0.7-0.8,1.1c-0.3,0.7-0.7,1.5-1,2.4
			c-0.5,0.9-0.8,1.9-1.3,2.9c-0.5,1-0.9,2.1-1.3,3s-0.8,1.9-1.1,2.7c-0.2,0.5-0.5,0.9-0.6,1.1c-0.1,0.3-0.2,0.7-0.5,0.9
			c-0.1,0.2-0.2,0.5-0.3,0.8c-0.1,0.2-0.2,0.5-0.3,0.8c-0.1,0.1-0.2,0.2-0.3,0.2c-0.1,0-0.2,0-0.2-0.1c0,0-0.1-0.1-0.1-0.2
			c-0.3-0.9-0.7-1.8-0.9-2.7c-0.3-0.9-0.6-1.7-0.9-2.7c-0.3-0.9-0.7-1.9-1-3.1c-0.3-1.1-0.8-2.4-1.3-3.8l-3.6,9.2
			c-0.3,0.7-0.6,1.3-0.8,1.7s-0.3,0.9-0.7,1.5c-0.1,0.1-0.2,0.2-0.3,0.2c-0.1,0-0.2-0.1-0.3-0.2c-0.9-2.3-1.9-4.6-2.9-6.9
			c-0.9-2.2-1.8-4.6-2.9-7.1c-0.1-0.3-0.3-0.7-0.5-1.1c-0.2-0.5-0.3-0.8-0.6-1c-0.1-0.1-0.3-0.2-0.7-0.5c-0.2-0.2-0.8-0.2-1.6-0.3
			v-0.5h8.2v0.5c-0.2,0-0.3,0-0.6,0.1c-0.2,0-0.5,0.1-0.7,0.1c-0.2,0-0.5,0.1-0.7,0.2c-0.2,0.1-0.3,0.2-0.5,0.3
			c0,0.2,0.2,0.7,0.6,1.6c0.3,0.9,0.7,1.9,1.3,3.1c0.5,1.3,1,2.5,1.6,3.9c0.6,1.4,1,2.6,1.5,3.7c0.2-0.5,0.5-1,0.7-1.7
			c0.2-0.7,0.6-1.5,0.9-2.3c0.3-0.8,0.7-1.7,1-2.6c0.3-0.9,0.7-1.8,1-2.7c-0.2-0.5-0.3-0.9-0.6-1.4c-0.2-0.5-0.5-0.9-0.7-1.4
			c-0.1-0.1-0.1-0.1-0.2-0.2c0-0.1-0.1-0.2-0.3-0.2c-0.1-0.1-0.3-0.1-0.6-0.2c-0.2,0-0.6-0.1-1-0.1v-0.5h8.5v0.5
			c-0.2,0-0.5,0-0.7,0.1c-0.3,0-0.6,0.1-0.9,0.2c-0.2,0.1-0.6,0.2-0.7,0.3c-0.2,0.1-0.3,0.3-0.3,0.6c0,0.1,0.1,0.5,0.2,0.9
			c0.1,0.5,0.3,1,0.6,1.7c0.2,0.7,0.5,1.4,0.8,2.2c0.2,0.8,0.6,1.6,0.9,2.4c0.3,0.8,0.6,1.6,0.9,2.4c0.2,0.8,0.6,1.5,0.8,2.1
			c0.1-0.3,0.3-0.8,0.7-1.4c0.2-0.7,0.6-1.4,0.9-2.1c0.3-0.8,0.7-1.6,0.9-2.4c0.3-0.8,0.7-1.6,0.9-2.3c0.2-0.7,0.5-1.4,0.7-1.9
			s0.2-0.9,0.2-1.1c0-0.3-0.1-0.6-0.2-0.8s-0.3-0.3-0.6-0.5c-0.2-0.1-0.5-0.1-0.8-0.2c-0.3-0.1-0.5,0-0.7-0.1v-0.5h6.8V19
			C140.5,19.1,140.3,19.1,140,19.1L140,19.1z"/>
		<path class="st2" d="M140.5,36.2v-0.3c0.3,0,0.6,0,0.9-0.1c0.3,0,0.6-0.1,0.8-0.2c0.2-0.1,0.5-0.2,0.6-0.3
			c0.1-0.1,0.2-0.3,0.2-0.6V21.9c0-0.2,0-0.3,0-0.5c0-0.1-0.1-0.2-0.3-0.5c-0.2-0.1-0.5-0.3-0.8-0.5c-0.3-0.1-0.7-0.2-1-0.5v-0.2
			l5-1.6h0.2v16.5c0,0.2,0.1,0.5,0.3,0.6c0.1,0.1,0.3,0.2,0.6,0.2c0.2,0,0.5,0.1,0.7,0.1c0.2,0,0.5,0,0.8,0.1v0.3L140.5,36.2
			L140.5,36.2z"/>
		<path class="st2" d="M159.9,36.2v-0.5c0.7,0,1.1-0.1,1.6-0.2c0.5-0.1,0.6-0.3,0.6-0.8v-9.3c0-1.4-0.2-2.6-0.8-3.4
			c-0.6-0.9-1.5-1.3-2.7-1.3c-0.8,0-1.5,0.2-2.1,0.5c-0.6,0.3-1.1,0.9-1.8,1.5v12.1c0,0.2,0.1,0.5,0.2,0.6c0.1,0.1,0.2,0.2,0.5,0.2
			c0.2,0,0.3,0.1,0.6,0.1c0.2,0,0.5,0,0.7,0.1v0.3h-7.1v-0.3c0.6,0,1-0.1,1.5-0.3c0.5-0.2,0.6-0.5,0.6-0.9V21.9c0-0.2,0-0.3,0-0.5
			c0-0.1-0.1-0.2-0.3-0.3c-0.2-0.1-0.5-0.2-0.8-0.5c-0.3-0.1-0.6-0.3-0.9-0.5V20l4.8-1.7h0.2v4h0.1c0.2-0.5,0.6-0.9,1-1.4
			s0.9-0.9,1.4-1.3c0.5-0.5,1-0.7,1.7-1c0.7-0.3,1.3-0.3,1.9-0.3c1.4,0,2.5,0.6,3.2,1.6s1.1,2.4,1.1,4.1v10.9c0,0.2,0.1,0.3,0.2,0.5
			c0.1,0.1,0.3,0.2,0.6,0.2c0.2,0.1,0.5,0.1,0.7,0.1c0.2,0,0.5,0.1,0.7,0.1v0.3H159.9L159.9,36.2z"/>
		<path class="st2" d="M185.9,21.3c-0.2,0.2-0.6,0.5-0.9,0.5c-0.1,0-0.3,0-0.7-0.2c-0.3-0.1-0.7-0.2-1-0.5c-0.3-0.2-0.7-0.3-1-0.6
			c-0.3-0.2-0.7-0.5-1-0.6l-0.1,0.1c0.3,0.6,0.7,1,0.9,1.6c0.2,0.5,0.3,1.1,0.3,1.9c0,1.9-0.7,3.4-2.1,4.4c-1.4,0.9-3.2,1.5-5.6,1.5
			c-0.3,0-0.7,0-1-0.1c-0.3,0-0.8-0.1-1.3-0.1c-0.8,0-1.4,0.2-1.8,0.6c-0.5,0.3-0.7,0.7-0.7,1.3c0,0.5,0.1,0.7,0.3,1
			c0.2,0.2,0.6,0.5,0.9,0.6s0.8,0.2,1.3,0.3c0.5,0,0.9,0.1,1.3,0.1h5.8c0.9,0,1.6,0.1,2.3,0.5c0.7,0.3,1.3,0.7,1.7,1.1
			c0.5,0.5,0.9,1,1.1,1.6c0.2,0.6,0.3,1.3,0.3,2.1c0,0.9-0.2,1.8-0.7,2.7s-1.1,1.6-2.1,2.3c-0.9,0.7-1.8,1.1-3,1.6
			c-1.1,0.3-2.4,0.6-3.9,0.6c-2.6,0-4.8-0.5-6.3-1.1c-1.5-0.8-2.2-1.9-2.2-3.3c0-0.5,0.1-1,0.5-1.4c0.2-0.5,0.7-0.8,1-1.1
			c0.5-0.3,0.9-0.7,1.5-1c0.6-0.3,1-0.7,1.6-1v-0.1c-1.3-0.1-2.2-0.5-2.9-1c-0.7-0.6-1-1.3-1-2.3c0-0.5,0.1-0.9,0.3-1.4
			c0.2-0.5,0.6-0.8,0.9-1.1c0.5-0.3,0.9-0.7,1.4-0.9c0.6-0.2,1.1-0.3,1.7-0.5v-0.1c-1-0.5-1.9-1-2.5-1.8c-0.6-0.8-0.9-1.8-0.9-3.1
			c0-0.8,0.2-1.5,0.6-2.2c0.3-0.7,0.9-1.3,1.5-1.8c0.7-0.5,1.4-0.9,2.3-1.1c0.9-0.3,1.8-0.5,2.9-0.5c0.9,0,1.7,0.1,2.5,0.2
			c0.7,0.2,1.5,0.5,2.3,0.9c0.3,0.1,0.6,0.1,0.8,0.2c0.2,0,0.5,0,0.8,0s0.6,0,0.8-0.1s0.5-0.2,0.7-0.3c0.2-0.1,0.5-0.2,0.7-0.3
			c0.2-0.1,0.5-0.1,0.8-0.1c0.5,0,0.8,0.1,1,0.5c0.2,0.3,0.5,0.7,0.5,1C186.3,20.7,186.2,21,185.9,21.3L185.9,21.3z M182.3,37.9
			c-0.3-0.5-0.7-0.9-1-1c-0.6-0.2-1.3-0.5-2.1-0.6s-1.9-0.2-3.3-0.2c-0.5,0-1,0-1.6,0.1c-0.6,0-1,0.1-1.4,0.1
			c-1.1,0.3-1.9,0.8-2.4,1.4c-0.5,0.7-0.7,1.4-0.7,2.1c0,0.7,0.2,1.5,0.7,2.1c0.5,0.6,0.9,1,1.6,1.5c0.7,0.5,1.3,0.7,2.1,0.9
			c0.7,0.2,1.4,0.3,2.1,0.3c0.7,0,1.4,0,1.9-0.1c0.6-0.1,1-0.2,1.4-0.3c0.9-0.3,1.6-0.9,2.3-1.7c0.7-0.8,1-1.7,1-2.7
			C182.8,39,182.6,38.3,182.3,37.9L182.3,37.9z M179.2,21.8c-0.2-0.6-0.5-1-0.8-1.5c-0.3-0.5-0.8-0.8-1.3-1c-0.5-0.2-1-0.3-1.7-0.3
			c-0.6,0-1.1,0.1-1.7,0.5c-0.5,0.2-0.9,0.7-1.3,1.1s-0.6,1-0.8,1.6s-0.2,1.3-0.2,1.8c0,1.5,0.3,2.6,1.1,3.6
			c0.8,0.9,1.7,1.4,2.7,1.4c0.7,0,1.3-0.1,1.7-0.5c0.5-0.3,0.9-0.7,1.3-1.1s0.6-1,0.8-1.7c0.2-0.7,0.2-1.3,0.2-1.9
			C179.5,23,179.4,22.4,179.2,21.8z"/>
		<path class="st2" d="M149,10c0,2.5-2.1,4.6-4.6,4.6s-4.6-2.1-4.6-4.6s2.1-4.6,4.6-4.6C147.1,5.5,149,7.5,149,10z"/>
		<path class="st2" d="M157.5,8c-0.2-0.2-0.6-0.5-0.9-0.6s-0.7-0.2-1.1-0.2s-0.9,0.1-1.3,0.2c-0.3,0.2-0.7,0.5-0.9,0.7
			c-0.2,0.2-0.5,0.7-0.6,1s-0.2,0.8-0.2,1.1c0,0.5,0.1,0.8,0.2,1.1c0.1,0.3,0.3,0.7,0.6,1c0.2,0.2,0.6,0.5,0.9,0.7s0.8,0.2,1.3,0.2
			s0.8,0,1.1-0.1s0.6-0.2,0.8-0.3v-2.2h-1.7v-0.6h2.4v3.2c-0.3,0.2-0.8,0.5-1.3,0.6s-0.9,0.2-1.4,0.2c-0.6,0-1-0.1-1.5-0.2
			c-0.5-0.2-0.9-0.5-1.1-0.8c-0.3-0.3-0.6-0.7-0.8-1.1s-0.2-0.9-0.2-1.5s0.1-1,0.2-1.5c0.2-0.5,0.5-0.9,0.8-1.1
			c0.3-0.2,0.7-0.6,1.1-0.8s0.9-0.2,1.5-0.2s1,0.1,1.5,0.2c0.5,0.2,0.8,0.5,1,0.7L157.5,8L157.5,8z"/>
		<path class="st2" d="M160.5,13.8h-0.7V6.7h2.2c0.3,0,0.7,0,1,0.1c0.3,0.1,0.6,0.2,0.8,0.3s0.3,0.3,0.5,0.6
			c0.1,0.2,0.2,0.6,0.2,0.9c0,0.2,0,0.5-0.1,0.7s-0.2,0.5-0.3,0.6c-0.1,0.1-0.3,0.2-0.6,0.3c-0.2,0.1-0.5,0.1-0.7,0.2l2.1,3.4h-0.9
			l-1.9-3.3h-1.3v3.2H160.5z M160.5,9.9h1.3c0.6,0,1-0.1,1.4-0.3c0.3-0.2,0.5-0.6,0.5-0.9c0-0.2,0-0.5-0.1-0.6
			c-0.1-0.1-0.2-0.3-0.3-0.5c-0.1-0.1-0.3-0.2-0.6-0.2s-0.5-0.1-0.7-0.1h-1.3L160.5,9.9L160.5,9.9L160.5,9.9z"/>
		<path class="st2" d="M172.7,10.3c0,0.6-0.1,1-0.2,1.5c-0.2,0.5-0.5,0.9-0.8,1.1c-0.3,0.3-0.7,0.6-1.1,0.8s-0.9,0.2-1.5,0.2
			s-1-0.1-1.5-0.2c-0.5-0.2-0.9-0.5-1.1-0.8c-0.3-0.3-0.6-0.7-0.8-1.1s-0.2-0.9-0.2-1.5c0-0.6,0.1-1,0.2-1.5
			c0.2-0.5,0.5-0.9,0.8-1.1c0.3-0.3,0.7-0.6,1.1-0.8c0.5-0.2,0.9-0.2,1.5-0.2s1,0.1,1.5,0.2c0.5,0.2,0.9,0.5,1.1,0.8
			c0.3,0.3,0.6,0.7,0.8,1.1C172.6,9.2,172.7,9.7,172.7,10.3z M171.9,10.3c0-0.5-0.1-0.8-0.2-1.1c-0.1-0.3-0.3-0.7-0.6-1
			c-0.2-0.2-0.6-0.5-0.9-0.7s-0.8-0.2-1.3-0.2c-0.5,0-0.9,0.1-1.3,0.2c-0.3,0.2-0.7,0.5-0.9,0.7c-0.2,0.2-0.5,0.7-0.6,1
			c-0.1,0.3-0.2,0.8-0.2,1.1c0,0.5,0.1,0.8,0.2,1.1c0.1,0.3,0.3,0.7,0.6,1c0.2,0.2,0.6,0.5,0.9,0.7c0.3,0.2,0.8,0.2,1.3,0.2
			c0.5,0,0.9-0.1,1.3-0.2c0.3-0.2,0.7-0.5,0.9-0.7s0.5-0.6,0.6-1C171.8,11.1,171.9,10.7,171.9,10.3z"/>
		<path class="st2" d="M176.5,14c-0.6,0-1-0.1-1.4-0.2c-0.3-0.2-0.7-0.5-0.8-0.7c-0.2-0.2-0.3-0.6-0.5-0.9c-0.1-0.3-0.1-0.7-0.1-0.9
			V6.7h0.7v4.5c0,0.2,0,0.6,0.1,0.8c0.1,0.2,0.2,0.6,0.3,0.7c0.1,0.2,0.3,0.3,0.6,0.5c0.2,0.1,0.6,0.2,0.9,0.2
			c0.3,0,0.7-0.1,0.9-0.2s0.5-0.3,0.6-0.5c0.1-0.2,0.2-0.5,0.3-0.7s0.1-0.6,0.1-0.8V6.7h0.7v4.5c0,0.3,0,0.6-0.1,0.9
			c-0.1,0.3-0.2,0.7-0.5,0.9c-0.2,0.2-0.5,0.6-0.8,0.7C177.4,13.9,177,14,176.5,14L176.5,14z"/>
		<path class="st2" d="M180.7,6.7h2.1c0.3,0,0.7,0,1,0.1c0.3,0.1,0.6,0.2,0.8,0.3s0.3,0.3,0.5,0.6c0.1,0.2,0.2,0.6,0.2,0.9
			s0,0.6-0.2,0.8c-0.1,0.2-0.2,0.5-0.5,0.6s-0.5,0.2-0.8,0.3c-0.3,0.1-0.7,0.1-1,0.1h-1.3v3.3h-0.7L180.7,6.7L180.7,6.7L180.7,6.7z
			 M181.4,9.9h1.3c0.6,0,1-0.1,1.3-0.3c0.3-0.2,0.5-0.6,0.5-1s-0.1-0.8-0.5-1c-0.3-0.2-0.7-0.3-1.3-0.3h-1.3V9.9L181.4,9.9
			L181.4,9.9z"/>
	</g>
</g>
<g id="Walterfedy" class="st0">
	<g class="st1">
		<g>
			<polygon class="st2" points="36.4,12.4 31.7,12.4 39,25 31.7,37.6 36.4,37.6 43.7,25 			"/>
			<polygon class="st2" points="17.2,37.6 9.9,25 17.2,12.4 31.7,12.4 31.7,12.4 29.4,8.4 10.2,8.4 0.6,25 10.2,41.6 29.4,41.6 
				31.7,37.6 			"/>
		</g>
		<g>
			<g>
				<path class="st2" d="M187.4,19.6v-1.1h2v6.3h-1.2v-5.2H187.4L187.4,19.6z"/>
				<path class="st2" d="M190.8,20.2c0.1-1.1,0.8-1.8,1.9-1.8s1.8,0.7,1.8,1.8c0,0.5-0.2,1-0.6,1.3c0.6,0.2,0.8,1,0.8,1.5
					c0,1.2-0.9,2-2.1,2s-2-0.9-2.1-2h1.2c0,0.5,0.4,0.9,0.9,0.9s0.8-0.5,0.8-1s-0.3-1-0.9-1l-0.2,0v-0.9h0.1c0.5,0,0.8-0.3,0.8-0.9
					c0-0.4-0.3-0.8-0.7-0.8c-0.4,0-0.7,0.4-0.7,0.8L190.8,20.2L190.8,20.2z"/>
				<path class="st2" d="M195.5,19.6v-1.1h4.5l-3.3,6.3h-1.3l2.8-5.2H195.5z"/>
			</g>
			<path class="st2" d="M62.4,18.3c-3.8,0-6.8,3-6.8,6.8s3,6.6,6.7,6.6c1.1,0,2.4-0.3,3.4-0.9l0.1-0.1v-2.5l-0.4,0.3
				c-0.9,0.8-2,1.2-3.2,1.2c-2.6,0-4.6-2.2-4.6-4.8s2.1-4.8,4.7-4.8c1.1,0,2.3,0.4,3.1,1.2l0.4,0.3v-2.4l-0.1-0.1
				C64.7,18.6,63.6,18.3,62.4,18.3L62.4,18.3z M90.8,20.4h3.9v11h2v-11h3.9v-1.9h-9.7L90.8,20.4L90.8,20.4z M128.8,18.6h-2v12.9h6.7
				v-1.9h-4.7L128.8,18.6L128.8,18.6z M146.1,23.8l-3.4-5.3h-2.3l4.7,7.3v5.6h2v-5.6l4.7-7.3h-2.3L146.1,23.8L146.1,23.8z
				 M165.5,25.8c-0.2-0.3-0.5-0.6-0.9-0.9c-0.4-0.3-0.9-0.6-1.4-0.9c-0.5-0.3-0.9-0.5-1.2-0.7c-0.3-0.2-0.5-0.4-0.7-0.5
				c-0.1-0.2-0.3-0.3-0.3-0.5c-0.1-0.2-0.1-0.3-0.1-0.5c0-0.5,0.2-0.9,0.5-1.2s0.9-0.5,1.5-0.5c0.4,0,0.8,0,1.2,0.1
				c0.4,0.1,0.8,0.2,1.1,0.4l0.2,0.1v-1.9l-0.1,0c-0.3-0.1-0.7-0.2-1.2-0.3c-1-0.2-2.1-0.2-3,0.1c-0.5,0.1-0.9,0.3-1.3,0.6
				c-0.4,0.3-0.7,0.6-0.9,1.1c-0.2,0.4-0.3,0.9-0.3,1.5c0,0.4,0,0.8,0.1,1.1c0.1,0.3,0.3,0.7,0.5,1c0.2,0.3,0.6,0.6,1,0.9
				c0.4,0.3,0.9,0.6,1.6,1c0.5,0.2,0.8,0.5,1.1,0.7c0.3,0.2,0.5,0.4,0.6,0.6c0.1,0.2,0.2,0.4,0.3,0.5c0,0.2,0.1,0.4,0.1,0.6
				s-0.1,0.5-0.2,0.7c-0.1,0.2-0.3,0.4-0.4,0.6s-0.4,0.3-0.7,0.4c-0.6,0.2-1.4,0.2-2.3-0.1c-0.5-0.2-0.9-0.3-1.3-0.6l-0.2-0.1v2
				l0.1,0c0.4,0.2,0.8,0.3,1.4,0.4c0.5,0.1,1.1,0.1,1.6,0.1c0.7,0,1.3-0.1,1.8-0.3c0.5-0.2,1-0.5,1.3-0.8c0.4-0.3,0.6-0.7,0.8-1.2
				c0.2-0.5,0.3-1,0.3-1.5c0-0.4-0.1-0.7-0.2-1.1C165.9,26.5,165.7,26.2,165.5,25.8L165.5,25.8z M173.9,18.6v1.9h3.9v11h2v-11h3.9
				v-1.9L173.9,18.6L173.9,18.6z M112.2,18.5l-5.9,12.9l0,0.1h2.1l3.8-8.6l1.7,3.8h-2.6l-0.8,1.8h4.3l1.3,2.9l0,0h2.1L112.2,18.5
				L112.2,18.5L112.2,18.5z M79.1,18.5l-5.9,12.9l0,0.1h2.1l3.8-8.6l1.7,3.8h-2.6l-0.8,1.8h4.3l1.3,2.9l0,0h2.1L79.1,18.5L79.1,18.5
				L79.1,18.5z"/>
		</g>
	</g>
</g>
<g id="Oxio" class="st0">
	<g id="Group_207" transform="translate(-47.398 -32.779)" class="st1">
		<g id="Group_15">
			<path id="Path_101" class="st2" d="M103.9,74.9c-9.3,0-16.9-7.6-16.9-16.9s7.6-16.9,16.9-16.9c9.3,0,16.9,7.6,16.9,16.9
				S113.3,74.9,103.9,74.9L103.9,74.9z M103.9,46.8c-6.2,0-11.2,5-11.2,11.2s5,11.2,11.2,11.2s11.2-5,11.2-11.2l0,0l0,0
				C115.1,51.8,110.1,46.9,103.9,46.8L103.9,46.8z"/>
			<rect id="Rectangle_40" x="157.8" y="41.2" class="st2" width="5.7" height="33.8"/>
			<g id="Group_13">
				<path id="Path_102" class="st2" d="M144.2,53.2l8.5-12h-7l-5,7.1L144.2,53.2z"/>
				<path id="Path_103" class="st2" d="M128.7,41.1h-7l12,17l-11.9,16.8h7l8.4-11.8l8.4,11.8h7L128.7,41.1z"/>
			</g>
			<g id="Group_14">
				<path id="Path_104" class="st2" d="M187.1,46.5l0.1-1.9c-0.8,0-1.5,0.1-2.3,0.2l0.4,1.8C185.9,46.6,186.5,46.5,187.1,46.5z"/>
				<path id="Path_105" class="st2" d="M183.9,47l-0.4-1.8c-0.7,0.2-1.5,0.5-2.1,0.8l0.9,1.7C182.8,47.4,183.3,47.2,183.9,47z"/>
				<path id="Path_106" class="st2" d="M199.1,58.6C199.1,58.6,199.1,58.7,199.1,58.6l1.9,0.2c0,0,0-0.1,0-0.1c0-0.7,0-1.4-0.1-2.1
					L199,57C199.1,57.6,199.1,58.1,199.1,58.6z"/>
				<path id="Path_107" class="st2" d="M197.3,64.4l1.6,1c0.4-0.6,0.7-1.2,0.9-1.8l-1.8-0.6C197.8,63.5,197.6,63.9,197.3,64.4z"/>
				<path id="Path_108" class="st2" d="M198.6,61.7l1.8,0.6c0.2-0.7,0.4-1.3,0.5-2l-1.9-0.1C198.8,60.6,198.7,61.1,198.6,61.7z"/>
				<path id="Path_109" class="st2" d="M198.8,55.6l1.8-0.4c-0.2-0.7-0.4-1.4-0.6-2.1l-1.7,0.9C198.5,54.5,198.7,55.1,198.8,55.6z"
					/>
				<path id="Path_110" class="st2" d="M195.5,66.6l1.3,1.4c0.5-0.5,0.9-1,1.3-1.5l-1.6-1C196.2,65.9,195.8,66.3,195.5,66.6z"/>
				<path id="Path_111" class="st2" d="M196.8,51.2c0.3,0.5,0.7,1,0.9,1.5l1.7-0.9c-0.3-0.7-0.8-1.3-1.2-1.9L196.8,51.2z"/>
				<path id="Path_112" class="st2" d="M190.4,46.9l0.6-1.8c-0.8-0.2-1.5-0.3-2.3-0.4l-0.1,1.9C189.2,46.6,189.8,46.7,190.4,46.9z"
					/>
				<path id="Path_113" class="st2" d="M195.9,50.1l1.4-1.3c-0.5-0.6-1.1-1.1-1.7-1.5l-1,1.6C195,49.3,195.5,49.7,195.9,50.1z"/>
				<path id="Path_114" class="st2" d="M193.4,48.1l1-1.6c-0.7-0.4-1.4-0.7-2.1-1l-0.6,1.8C192.3,47.5,192.8,47.8,193.4,48.1z"/>
				<path id="Path_115" class="st2" d="M198.3,47.8l1.3-1.2c-0.7-0.8-1.5-1.5-2.4-2.1l-1,1.5C197,46.6,197.7,47.2,198.3,47.8z"/>
				<path id="Path_116" class="st2" d="M183.2,43.8l-0.4-1.8c-1,0.3-2,0.7-3,1.2l0.8,1.6C181.5,44.3,182.3,44,183.2,43.8z"/>
				<path id="Path_117" class="st2" d="M202.5,58.7C202.5,58.7,202.5,58.8,202.5,58.7l1.8,0.2v-0.1c0-1,0-1.9-0.2-2.9l-1.8,0.4
					C202.4,57.1,202.5,57.9,202.5,58.7z"/>
				<path id="Path_118" class="st2" d="M200.2,66.1l1.5,1c0.5-0.8,1-1.7,1.3-2.6l-1.8-0.5C201,64.7,200.6,65.5,200.2,66.1z"/>
				<path id="Path_119" class="st2" d="M197.8,69.1l1.2,1.3c0.7-0.7,1.3-1.4,1.9-2.1l-1.5-1C198.9,67.9,198.3,68.5,197.8,69.1z"/>
				<path id="Path_120" class="st2" d="M195.1,45.3l1-1.5c-0.9-0.5-1.9-1-2.9-1.4l-0.5,1.7C193.6,44.4,194.4,44.8,195.1,45.3z"/>
				<path id="Path_121" class="st2" d="M187.4,39.8l0.1-2c-1.4,0-2.7,0.1-4.1,0.4l0.4,1.9C185,40,186.2,39.8,187.4,39.8z"/>
				<path id="Path_122" class="st2" d="M205.3,54.1l1.9-0.4c-0.3-1.3-0.7-2.6-1.2-3.8l-1.7,0.9C204.7,51.9,205.1,53,205.3,54.1z"/>
				<path id="Path_123" class="st2" d="M207.5,55.1l-1.9,0.4c0.2,1.1,0.2,2.2,0.2,3.3v0.1l2,0.1v-0.1
					C207.8,57.6,207.7,56.4,207.5,55.1z"/>
				<path id="Path_124" class="st2" d="M196.9,42.5l1-1.7c-1.2-0.7-2.4-1.3-3.7-1.8l-0.6,1.9C194.8,41.3,195.9,41.9,196.9,42.5z"/>
				<path id="Path_125" class="st2" d="M203.2,43.3l1.5-1.4c-1.1-1.2-2.4-2.3-3.7-3.2l-1.1,1.8C201,41.3,202.2,42.3,203.2,43.3z"/>
				<path id="Path_126" class="st2" d="M196.7,70c-0.6,0.5-1.3,0.9-2,1.3L194,70c0.6-0.3,1.1-0.7,1.6-1.1l-1.3-1.4
					c-0.4,0.3-0.8,0.6-1.2,0.8l0,0c-5.6,3.2-12.7,1.2-15.9-4.4c-2.7-4.8-1.7-10.7,2.4-14.4c-0.1,0,0,0,0,0c0.4-0.4,0.9-0.8,1.3-1.1
					l-0.9-1.7c-0.6,0.4-1.2,0.9-1.8,1.4l-1-1.1c0.7-0.6,1.4-1.1,2.1-1.6l-0.9-1.6c-0.9,0.5-1.7,1.2-2.5,1.9l0,0
					c-6.9,6.3-7.4,16.9-1.1,23.8c5.3,5.8,13.8,7.2,20.7,3.4c0,0,0,0,0,0c0.8-0.5,1.6-1,2.3-1.6L196.7,70z"/>
			</g>
		</g>
	</g>
</g>
<g id="Clearco" class="st0">
	<g class="st1">
		<path class="st2" d="M8.5,38.7v1.3h3.6v1.1H8.5v2.7H7.4v-6.3h6.5v1.1H8.5z M24.6,40.7c0,1-0.5,1.9-1.3,2.5
			c-0.3,0.2-0.8,0.5-1.3,0.6c-0.5,0.2-1,0.2-1.6,0.2s-1.1-0.1-1.6-0.2s-0.9-0.3-1.3-0.6c-0.9-0.6-1.3-1.5-1.3-2.5s0.5-1.8,1.3-2.5
			c0.4-0.2,0.8-0.5,1.3-0.6c0.5-0.2,1-0.2,1.5-0.2c0.6,0,1,0.1,1.5,0.2c0.5,0.2,0.9,0.3,1.3,0.6C24.2,38.9,24.6,39.7,24.6,40.7z
			 M23.4,40.7c0-0.3-0.1-0.6-0.2-0.9c-0.2-0.2-0.3-0.5-0.6-0.7c-0.2-0.2-0.6-0.3-0.9-0.5c-0.3-0.1-0.7-0.2-1.2-0.2
			c-0.4,0-0.8,0.1-1.2,0.2c-0.3,0.1-0.6,0.2-0.9,0.5c-0.2,0.2-0.5,0.4-0.6,0.7c-0.2,0.2-0.2,0.6-0.2,0.9c0,0.3,0.1,0.6,0.2,0.9
			c0.2,0.2,0.3,0.5,0.6,0.7c0.2,0.2,0.6,0.3,0.9,0.5c0.3,0.2,0.7,0.2,1.2,0.2c0.4,0,0.8-0.1,1.2-0.2c0.3-0.1,0.6-0.2,0.9-0.5
			c0.2-0.2,0.5-0.4,0.6-0.7C23.3,41.3,23.4,41,23.4,40.7z M34.5,43.9L33,41.6h-3.1v2.3h-1.2v-6.3h5.1c0.3,0,0.6,0.1,0.9,0.2
			c0.2,0.1,0.5,0.2,0.7,0.4c0.2,0.2,0.3,0.4,0.5,0.6c0.1,0.2,0.2,0.6,0.2,0.8c0,0.5-0.2,1-0.4,1.3c-0.2,0.3-0.6,0.6-1.2,0.6l1.7,2.4
			C36,43.9,34.5,43.9,34.5,43.9z M33.5,40.5c0.7,0,1.1-0.3,1.1-0.9c0-0.3-0.1-0.6-0.3-0.7c-0.2-0.2-0.5-0.2-0.9-0.2h-3.6v1.7
			L33.5,40.5L33.5,40.5z M47.5,43.9v-5.2v0.1L44.3,43l-3.2-4.3v0.1v5.2h-1.2v-6.3h1.8l2.5,3.6l2.5-3.6h1.8v6.3H47.5z M53,43.9v-6.3
			h6.5v1.1h-5.3v1.3h3.6v1.1h-3.6v1.6h5.5v1.1C59.7,43.9,53,43.9,53,43.9z M69.5,43.9l-1.7-2.3h-3.1v2.3h-1.2v-6.3h5.1
			c0.3,0,0.6,0.1,0.9,0.2c0.2,0.1,0.5,0.2,0.7,0.4c0.2,0.2,0.3,0.4,0.5,0.6c0.1,0.2,0.2,0.6,0.2,0.8c0,0.5-0.2,1-0.4,1.3
			c-0.2,0.3-0.6,0.6-1.2,0.6l1.7,2.4C70.9,43.9,69.5,43.9,69.5,43.9z M68.4,40.5c0.7,0,1.1-0.3,1.1-0.9c0-0.3-0.1-0.6-0.3-0.7
			s-0.5-0.2-0.9-0.2h-3.6v1.7L68.4,40.5L68.4,40.5z M74.9,43.9v-6.3h1.2v5.2h4.8v1.1H74.9z M86.4,41.4v2.5h-1.2v-2.5l-3.6-3.8h1.5
			l2.7,2.9l2.7-2.9H90L86.4,41.4z M104.9,39.4c-0.3-0.3-0.7-0.6-1.1-0.7s-0.9-0.2-1.4-0.2c-0.5,0-0.9,0.1-1.2,0.2
			c-0.4,0.1-0.6,0.2-1,0.5c-0.2,0.2-0.5,0.4-0.6,0.7c-0.2,0.2-0.2,0.6-0.2,0.9c0,0.3,0.1,0.6,0.2,0.9c0.2,0.2,0.3,0.5,0.6,0.7
			c0.2,0.2,0.6,0.3,1,0.5c0.4,0.1,0.8,0.2,1.3,0.2c0.6,0,1-0.1,1.4-0.2c0.4-0.2,0.8-0.4,1.1-0.8l1,0.6c-0.5,0.6-1,1-1.6,1.2
			c-0.6,0.2-1.3,0.4-2.1,0.4c-0.6,0-1.2-0.1-1.7-0.2c-0.6-0.2-1-0.4-1.3-0.7c-0.4-0.3-0.6-0.6-0.9-1c-0.2-0.4-0.3-0.9-0.3-1.3
			c0-1,0.5-1.8,1.3-2.5c0.3-0.2,0.8-0.5,1.3-0.6s1-0.2,1.6-0.2c0.8,0,1.5,0.2,2.1,0.4c0.6,0.3,1.2,0.7,1.7,1.3L104.9,39.4z
			 M109.9,43.9v-6.3h1.2v5.2h4.8v1.1H109.9z M119.3,43.9v-6.3h6.5v1.1h-5.3v1.3h3.6v1.1h-3.6v1.6h5.5v1.1
			C126.1,43.9,119.3,43.9,119.3,43.9z M135.8,43.9l-0.7-1.3h-4.2l-0.7,1.3h-1.3l3.4-6.3h1.5l3.4,6.3H135.8z M133,38.6l-1.5,2.8h3
			L133,38.6z M146.4,43.9l-1.7-2.3h-3v2.3h-1.2v-6.3h5.1c0.3,0,0.6,0.1,0.9,0.2c0.2,0.1,0.5,0.2,0.7,0.4c0.2,0.2,0.3,0.4,0.5,0.6
			c0.1,0.2,0.2,0.6,0.2,0.8c0,0.5-0.2,1-0.4,1.3c-0.2,0.3-0.6,0.6-1.2,0.6l1.7,2.4C147.9,43.9,146.4,43.9,146.4,43.9z M145.4,40.5
			c0.7,0,1.1-0.3,1.1-0.9c0-0.3-0.1-0.6-0.3-0.7c-0.2-0.2-0.5-0.2-0.9-0.2h-3.6v1.7L145.4,40.5L145.4,40.5z M158.3,40.6
			c0.3,0.2,0.6,0.4,0.8,0.6c0.2,0.2,0.2,0.6,0.2,1c0,0.6-0.2,1-0.6,1.3c-0.4,0.3-1,0.4-1.8,0.4h-5.1v-6.3h5.2c0.3,0,0.6,0.1,0.9,0.2
			c0.2,0.1,0.5,0.2,0.6,0.3c0.2,0.2,0.3,0.3,0.4,0.6s0.2,0.5,0.2,0.7C159.1,39.8,158.8,40.3,158.3,40.6z M157,40.1
			c0.3,0,0.6-0.1,0.7-0.2c0.2-0.2,0.2-0.3,0.2-0.6c0-0.2-0.1-0.4-0.2-0.5c-0.2-0.2-0.4-0.2-0.6-0.2h-4v1.4H157z M156.9,42.8
			c0.4,0,0.7-0.1,0.9-0.2c0.2-0.2,0.3-0.3,0.3-0.6s-0.1-0.4-0.3-0.6c-0.2-0.2-0.5-0.2-0.9-0.2h-4v1.5H156.9z M169.3,43.9l-0.7-1.3
			h-4.2l-0.7,1.3h-1.3l3.4-6.3h1.5l3.4,6.3H169.3z M166.5,38.6l-1.5,2.8h3L166.5,38.6z M179.4,43.9l-4.3-5.2v5.2h-1.2v-6.3h1.8
			l4.3,5.2v-5.2h1.2v6.3H179.4z M191.9,39.4c-0.3-0.3-0.7-0.6-1.1-0.7c-0.4-0.2-0.9-0.2-1.4-0.2c-0.5,0-0.9,0.1-1.2,0.2
			c-0.4,0.1-0.6,0.2-1,0.5c-0.2,0.2-0.5,0.4-0.6,0.7c-0.2,0.2-0.2,0.6-0.2,0.9c0,0.3,0.1,0.6,0.2,0.9c0.2,0.2,0.3,0.5,0.6,0.7
			c0.2,0.2,0.6,0.3,1,0.5c0.4,0.1,0.8,0.2,1.3,0.2c0.6,0,1-0.1,1.4-0.2c0.4-0.2,0.8-0.4,1.1-0.8l1,0.6c-0.5,0.6-1,1-1.6,1.2
			c-0.6,0.2-1.3,0.4-2.1,0.4c-0.6,0-1.2-0.1-1.7-0.2c-0.6-0.2-1-0.4-1.3-0.7c-0.4-0.3-0.6-0.6-0.9-1c-0.2-0.4-0.3-0.9-0.3-1.3
			c0-1,0.5-1.8,1.3-2.5c0.3-0.2,0.8-0.5,1.3-0.6s1-0.2,1.6-0.2c0.8,0,1.5,0.2,2.1,0.4c0.6,0.3,1.2,0.7,1.7,1.3L191.9,39.4z"/>
		<g>
			<g>
				<defs>
					<rect id="SVGID_1_" x="6.3" y="5.9" width="187.5" height="22.3"/>
				</defs>
				<clipPath id="SVGID_00000150064260001391167600000010670233403078340265_">
					<use xlink:href="#SVGID_1_"  style="overflow:visible;"/>
				</clipPath>
				<g style="clip-path:url(#SVGID_00000150064260001391167600000010670233403078340265_);">
					<path class="st2" d="M10.3,12c-0.9,0-1.5-0.7-1.5-1.5C8.8,9.6,9.5,9,10.3,9c0.9,0,1.5,0.7,1.5,1.5C11.9,11.4,11.2,12,10.3,12z"
						/>
					<path class="st2" d="M10.3,11.9c0.8,0,1.4-0.6,1.4-1.4s-0.6-1.4-1.4-1.4s-1.4,0.6-1.4,1.4S9.5,11.9,10.3,11.9z"/>
					<path class="st2" d="M7.8,21.3c-0.9,0-1.5-0.7-1.5-1.5c0-0.9,0.7-1.5,1.5-1.5c0.9,0,1.5,0.7,1.5,1.5
						C9.3,20.6,8.6,21.3,7.8,21.3z"/>
					<path class="st2" d="M7.8,21.2c0.8,0,1.4-0.6,1.4-1.4c0-0.8-0.6-1.4-1.4-1.4S6.3,19,6.3,19.8C6.3,20.6,7,21.2,7.8,21.2z"/>
					<path class="st2" d="M7.8,16c-0.8,0-1.5-0.6-1.5-1.5C6.3,13.7,7,13,7.8,13c0.9,0,1.6,0.6,1.6,1.5C9.3,15.4,8.6,16,7.8,16z"/>
					<path class="st2" d="M7.8,16c0.8,0,1.4-0.6,1.4-1.4s-0.6-1.4-1.4-1.4s-1.4,0.6-1.4,1.4S7,16,7.8,16z"/>
					<path class="st2" d="M14.8,9.6c-0.9,0-1.5-0.7-1.5-1.5s0.7-1.5,1.5-1.5c0.9,0,1.5,0.7,1.5,1.5S15.7,9.6,14.8,9.6z"/>
					<path class="st2" d="M14.8,9.5c0.8,0,1.4-0.6,1.4-1.4s-0.6-1.4-1.4-1.4s-1.4,0.6-1.4,1.4S14,9.5,14.8,9.5z"/>
					<path class="st2" d="M28.3,12.2c-0.6,0-1-0.3-1.3-0.8c-0.4-0.7-0.2-1.7,0.6-2.1c0.2-0.2,0.5-0.2,0.8-0.2c0.6,0,1,0.3,1.3,0.8
						c0.2,0.3,0.2,0.8,0.2,1.2c-0.1,0.4-0.4,0.7-0.7,1C28.8,12.2,28.5,12.2,28.3,12.2z"/>
					<path class="st2" d="M28.3,12.2c0.8,0,1.4-0.6,1.4-1.4s-0.6-1.4-1.4-1.4c-0.8,0-1.4,0.6-1.4,1.4S27.5,12.2,28.3,12.2z"/>
					<path class="st2" d="M24.3,9.9c-0.4,0-0.7-0.2-1-0.4C22.7,9,22.7,8,23.2,7.4c0.3-0.3,0.7-0.6,1.2-0.6c0.4,0,0.7,0.2,1,0.4
						c0.6,0.6,0.7,1.5,0.2,2.1C25.2,9.7,24.7,9.9,24.3,9.9z"/>
					<path class="st2" d="M24.3,9.9c0.8,0,1.4-0.6,1.4-1.4S25.1,7,24.3,7c-0.8,0-1.4,0.6-1.4,1.4S23.5,9.9,24.3,9.9z"/>
					<path class="st2" d="M19.8,9.1c-0.2,0-0.3,0-0.6-0.1c-0.4-0.2-0.7-0.4-0.9-0.8c-0.2-0.4-0.2-0.8-0.1-1.2c0.2-0.6,0.8-1,1.4-1
						c0.2,0,0.3,0,0.6,0.1c0.4,0.2,0.7,0.4,0.9,0.8s0.2,0.8,0.1,1.2C21,8.7,20.4,9.1,19.8,9.1z"/>
					<path class="st2" d="M19.8,9c0.8,0,1.4-0.6,1.4-1.4s-0.6-1.4-1.4-1.4c-0.8,0-1.4,0.6-1.4,1.4C18.3,8.4,19,9,19.8,9z"/>
					<path class="st2" d="M10.3,25.3c-0.9,0-1.5-0.7-1.5-1.5c0-0.9,0.7-1.5,1.5-1.5c0.9,0,1.5,0.7,1.5,1.5
						C11.9,24.7,11.2,25.3,10.3,25.3z"/>
					<path class="st2" d="M10.3,25.2c0.8,0,1.4-0.6,1.4-1.4c0-0.8-0.6-1.4-1.4-1.4S8.9,23,8.9,23.8C8.9,24.6,9.5,25.2,10.3,25.2z"/>
					<path class="st2" d="M14.8,27.6c0.9,0,1.5-0.7,1.5-1.5c0-0.9-0.7-1.5-1.5-1.5c-0.9,0-1.5,0.7-1.5,1.5
						C13.3,26.9,13.9,27.6,14.8,27.6z"/>
					<path class="st2" d="M14.8,27.5c0.8,0,1.4-0.6,1.4-1.4c0-0.8-0.6-1.4-1.4-1.4s-1.4,0.6-1.4,1.4C13.4,26.8,14,27.5,14.8,27.5z"
						/>
					<path class="st2" d="M28.3,25.2c-0.2,0-0.6-0.1-0.8-0.2c-0.3-0.2-0.6-0.6-0.7-1c-0.1-0.4-0.1-0.8,0.2-1.2
						c0.2-0.5,0.8-0.8,1.3-0.8c0.2,0,0.6,0.1,0.8,0.2c0.3,0.2,0.6,0.6,0.7,1c0.1,0.4,0.1,0.8-0.2,1.2C29.3,24.8,28.8,25.2,28.3,25.2
						z"/>
					<path class="st2" d="M28.3,25.1c0.8,0,1.4-0.6,1.4-1.4c0-0.8-0.6-1.4-1.4-1.4c-0.8,0-1.4,0.6-1.4,1.4S27.5,25.1,28.3,25.1z"/>
					<path class="st2" d="M24.3,27.5c-0.5,0-0.9-0.2-1.2-0.6c-0.6-0.6-0.5-1.6,0.2-2.1c0.2-0.2,0.6-0.4,1-0.4c0.5,0,0.9,0.2,1.2,0.6
						c0.6,0.6,0.5,1.6-0.2,2.1C25,27.3,24.6,27.5,24.3,27.5z"/>
					<path class="st2" d="M24.3,27.4c0.8,0,1.4-0.6,1.4-1.4c0-0.8-0.6-1.4-1.4-1.4c-0.8,0-1.4,0.6-1.4,1.4
						C22.9,26.7,23.5,27.4,24.3,27.4z"/>
					<path class="st2" d="M19.8,28.2c-0.6,0-1.2-0.4-1.4-1c-0.2-0.4-0.2-0.8,0.1-1.2c0.2-0.4,0.5-0.6,0.9-0.8
						c0.2-0.1,0.3-0.1,0.6-0.1c0.6,0,1.2,0.4,1.4,1c0.3,0.8-0.2,1.7-1,2C20.1,28.2,20,28.2,19.8,28.2z"/>
					<path class="st2" d="M19.8,28.2c0.8,0,1.4-0.6,1.4-1.4c0-0.8-0.6-1.4-1.4-1.4c-0.8,0-1.4,0.6-1.4,1.4
						C18.3,27.5,19,28.2,19.8,28.2z"/>
					<path class="st2" d="M144.3,12c-0.9,0-1.5-0.7-1.5-1.5c0-0.9,0.7-1.5,1.5-1.5c0.9,0,1.5,0.7,1.5,1.5
						C145.9,11.4,145.2,12,144.3,12z"/>
					<path class="st2" d="M144.3,11.9c0.8,0,1.4-0.6,1.4-1.4s-0.6-1.4-1.4-1.4c-0.8,0-1.4,0.6-1.4,1.4S143.5,11.9,144.3,11.9z"/>
					<path class="st2" d="M141.8,21.3c-0.9,0-1.5-0.7-1.5-1.5c0-0.9,0.7-1.5,1.5-1.5c0.9,0,1.5,0.7,1.5,1.5
						C143.3,20.6,142.6,21.3,141.8,21.3z"/>
					<path class="st2" d="M141.8,21.2c0.8,0,1.4-0.6,1.4-1.4c0-0.8-0.6-1.4-1.4-1.4s-1.4,0.6-1.4,1.4
						C140.3,20.6,141,21.2,141.8,21.2z"/>
					<path class="st2" d="M141.8,16c-0.9,0-1.5-0.7-1.5-1.5c0-0.9,0.7-1.5,1.5-1.5c0.9,0,1.5,0.7,1.5,1.5
						C143.3,15.4,142.6,16,141.8,16z"/>
					<path class="st2" d="M141.8,16c0.8,0,1.4-0.6,1.4-1.4s-0.6-1.4-1.4-1.4s-1.4,0.6-1.4,1.4S141,16,141.8,16z"/>
					<path class="st2" d="M148.8,9.6c-0.9,0-1.5-0.7-1.5-1.5s0.7-1.5,1.5-1.5c0.9,0,1.5,0.7,1.5,1.5S149.7,9.6,148.8,9.6z"/>
					<path class="st2" d="M148.8,9.5c0.8,0,1.4-0.6,1.4-1.4s-0.6-1.4-1.4-1.4c-0.8,0-1.4,0.6-1.4,1.4C147.4,8.9,148,9.5,148.8,9.5z"
						/>
					<path class="st2" d="M162.3,12.2c-0.6,0-1-0.3-1.3-0.8c-0.4-0.7-0.2-1.7,0.6-2.1c0.2-0.2,0.5-0.2,0.8-0.2c0.6,0,1,0.3,1.3,0.8
						c0.2,0.3,0.2,0.8,0.2,1.2c-0.1,0.4-0.4,0.7-0.7,1C162.8,12.2,162.5,12.2,162.3,12.2z"/>
					<path class="st2" d="M162.3,12.2c0.8,0,1.4-0.6,1.4-1.4s-0.6-1.4-1.4-1.4s-1.4,0.6-1.4,1.4C160.9,11.5,161.5,12.2,162.3,12.2z"
						/>
					<path class="st2" d="M158.3,9.9c-0.4,0-0.7-0.2-1-0.4c-0.3-0.2-0.5-0.6-0.6-1c0-0.4,0.1-0.8,0.3-1.1c0.3-0.3,0.7-0.6,1.2-0.6
						c0.4,0,0.7,0.2,1,0.4c0.3,0.2,0.5,0.6,0.6,1c0,0.4-0.1,0.8-0.3,1.1C159.2,9.7,158.7,9.9,158.3,9.9z"/>
					<path class="st2" d="M158.3,9.9c0.8,0,1.4-0.6,1.4-1.4S159.1,7,158.3,7s-1.4,0.6-1.4,1.4S157.5,9.9,158.3,9.9z"/>
					<path class="st2" d="M153.8,9.1c-0.2,0-0.3,0-0.6-0.1c-0.8-0.3-1.2-1.2-1-2c0.2-0.6,0.8-1,1.4-1c0.2,0,0.3,0,0.6,0.1
						c0.4,0.2,0.7,0.4,0.9,0.8c0.2,0.4,0.2,0.8,0.1,1.2C155,8.7,154.4,9.1,153.8,9.1z"/>
					<path class="st2" d="M153.8,9c0.8,0,1.4-0.6,1.4-1.4s-0.6-1.4-1.4-1.4s-1.4,0.6-1.4,1.4C152.3,8.4,153,9,153.8,9z"/>
					<path class="st2" d="M144.3,25.3c-0.9,0-1.5-0.7-1.5-1.5c0-0.9,0.7-1.5,1.5-1.5c0.9,0,1.5,0.7,1.5,1.5
						C145.9,24.7,145.2,25.3,144.3,25.3z"/>
					<path class="st2" d="M144.3,25.2c0.8,0,1.4-0.6,1.4-1.4c0-0.8-0.6-1.4-1.4-1.4c-0.8,0-1.4,0.6-1.4,1.4
						C142.9,24.6,143.5,25.2,144.3,25.2z"/>
					<path class="st2" d="M148.8,27.6c-0.9,0-1.5-0.7-1.5-1.5c0-0.9,0.7-1.5,1.5-1.5c0.9,0,1.5,0.7,1.5,1.5
						C150.3,26.9,149.7,27.6,148.8,27.6z"/>
					<path class="st2" d="M148.8,27.5c0.8,0,1.4-0.6,1.4-1.4c0-0.8-0.6-1.4-1.4-1.4c-0.8,0-1.4,0.6-1.4,1.4
						C147.4,26.8,148,27.5,148.8,27.5z"/>
					<path class="st2" d="M162.3,25.2c-0.2,0-0.6-0.1-0.8-0.2c-0.3-0.2-0.6-0.6-0.7-1c-0.1-0.4-0.1-0.8,0.2-1.2
						c0.2-0.5,0.8-0.8,1.3-0.8c0.2,0,0.6,0.1,0.8,0.2c0.3,0.2,0.6,0.6,0.7,1c0.1,0.4,0.1,0.8-0.2,1.2
						C163.3,24.8,162.8,25.2,162.3,25.2z"/>
					<path class="st2" d="M162.3,25.1c0.8,0,1.4-0.6,1.4-1.4c0-0.8-0.6-1.4-1.4-1.4s-1.4,0.6-1.4,1.4
						C160.9,24.4,161.5,25.1,162.3,25.1z"/>
					<path class="st2" d="M158.3,27.5c-0.5,0-0.9-0.2-1.2-0.6c-0.2-0.3-0.4-0.7-0.3-1.1c0-0.4,0.2-0.8,0.6-1c0.2-0.2,0.6-0.4,1-0.4
						c0.5,0,0.9,0.2,1.2,0.6c0.2,0.3,0.4,0.7,0.3,1.1c0,0.4-0.2,0.8-0.6,1C159,27.3,158.6,27.5,158.3,27.5z"/>
					<path class="st2" d="M158.3,27.4c0.8,0,1.4-0.6,1.4-1.4c0-0.8-0.6-1.4-1.4-1.4s-1.4,0.6-1.4,1.4
						C156.9,26.7,157.5,27.4,158.3,27.4z"/>
					<path class="st2" d="M153.8,28.2c-0.6,0-1.2-0.4-1.4-1c-0.3-0.8,0.2-1.7,1-2c0.2-0.1,0.3-0.1,0.6-0.1c0.6,0,1.2,0.4,1.4,1
						c0.2,0.4,0.2,0.8-0.1,1.2c-0.2,0.4-0.5,0.6-0.9,0.8C154.1,28.2,154,28.2,153.8,28.2z"/>
					<path class="st2" d="M153.8,28.2c0.8,0,1.4-0.6,1.4-1.4c0-0.8-0.6-1.4-1.4-1.4s-1.4,0.6-1.4,1.4
						C152.3,27.5,153,28.2,153.8,28.2z"/>
					<path class="st2" d="M35.9,9.5c-0.6,0-1-0.3-1.3-0.8c-0.2-0.3-0.2-0.8-0.2-1.2c0.1-0.4,0.4-0.7,0.7-1c0.2-0.2,0.5-0.2,0.8-0.2
						c0.6,0,1,0.3,1.3,0.8c0.4,0.7,0.2,1.7-0.6,2.1C36.4,9.4,36.2,9.5,35.9,9.5z"/>
					<path class="st2" d="M35.9,9.4c0.8,0,1.4-0.6,1.4-1.4s-0.6-1.4-1.4-1.4S34.5,7.2,34.5,8C34.5,8.8,35.1,9.4,35.9,9.4z"/>
					<path class="st2" d="M35.9,14c-0.6,0-1-0.3-1.3-0.8c-0.2-0.3-0.2-0.8-0.2-1.2c0.1-0.4,0.4-0.7,0.7-1c0.2-0.2,0.5-0.2,0.8-0.2
						c0.6,0,1,0.3,1.3,0.8c0.4,0.7,0.2,1.7-0.6,2.1C36.4,13.9,36.2,14,35.9,14z"/>
					<path class="st2" d="M35.9,13.9c0.8,0,1.4-0.6,1.4-1.4c0-0.8-0.6-1.4-1.4-1.4s-1.4,0.6-1.4,1.4C34.5,13.3,35.1,13.9,35.9,13.9z
						"/>
					<path class="st2" d="M35.9,18.5c-0.6,0-1-0.3-1.3-0.8c-0.2-0.3-0.2-0.8-0.2-1.2c0.1-0.4,0.4-0.7,0.7-1c0.2-0.2,0.5-0.2,0.8-0.2
						c0.6,0,1,0.3,1.3,0.8c0.4,0.7,0.2,1.7-0.6,2.1C36.4,18.4,36.2,18.5,35.9,18.5z"/>
					<path class="st2" d="M35.9,18.4c0.8,0,1.4-0.6,1.4-1.4c0-0.8-0.6-1.4-1.4-1.4s-1.4,0.6-1.4,1.4C34.5,17.8,35.1,18.4,35.9,18.4z
						"/>
					<path class="st2" d="M35.9,22.9c-0.6,0-1-0.3-1.3-0.8c-0.2-0.3-0.2-0.8-0.2-1.2c0.1-0.4,0.4-0.7,0.7-1c0.2-0.2,0.5-0.2,0.8-0.2
						c0.6,0,1,0.3,1.3,0.8c0.4,0.7,0.2,1.7-0.6,2.1C36.4,22.9,36.2,22.9,35.9,22.9z"/>
					<path class="st2" d="M35.9,22.9c0.8,0,1.4-0.6,1.4-1.4c0-0.8-0.6-1.4-1.4-1.4s-1.4,0.6-1.4,1.4C34.5,22.2,35.1,22.9,35.9,22.9z
						"/>
					<path class="st2" d="M54,27.5c-0.6,0-1-0.3-1.3-0.8c-0.4-0.7-0.2-1.7,0.6-2.1c0.2-0.2,0.5-0.2,0.8-0.2c0.6,0,1,0.3,1.3,0.8
						c0.4,0.7,0.2,1.7-0.6,2.1C54.6,27.5,54.4,27.5,54,27.5z"/>
					<path class="st2" d="M54,27.5c0.8,0,1.4-0.6,1.4-1.4c0-0.8-0.6-1.4-1.4-1.4c-0.8,0-1.4,0.6-1.4,1.4
						C52.6,26.8,53.2,27.5,54,27.5z"/>
					<path class="st2" d="M49.6,27.5c-0.6,0-1-0.3-1.3-0.8c-0.4-0.7-0.2-1.7,0.6-2.1c0.2-0.2,0.5-0.2,0.8-0.2c0.6,0,1,0.3,1.3,0.8
						c0.4,0.7,0.2,1.7-0.6,2.1C50.2,27.5,49.8,27.5,49.6,27.5z"/>
					<path class="st2" d="M49.6,27.5c0.8,0,1.4-0.6,1.4-1.4c0-0.8-0.6-1.4-1.4-1.4c-0.8,0-1.4,0.6-1.4,1.4
						C48.2,26.8,48.8,27.5,49.6,27.5z"/>
					<path class="st2" d="M45.1,27.5c-0.6,0-1-0.3-1.3-0.8c-0.4-0.7-0.2-1.7,0.6-2.1c0.2-0.2,0.5-0.2,0.8-0.2c0.6,0,1,0.3,1.3,0.8
						c0.4,0.7,0.2,1.7-0.6,2.1C45.6,27.5,45.4,27.5,45.1,27.5z"/>
					<path class="st2" d="M45.1,27.5c0.8,0,1.4-0.6,1.4-1.4c0-0.8-0.6-1.4-1.4-1.4c-0.8,0-1.4,0.6-1.4,1.4
						C43.7,26.8,44.3,27.5,45.1,27.5z"/>
					<path class="st2" d="M40.6,27.5c-0.6,0-1-0.3-1.3-0.8c-0.4-0.7-0.2-1.7,0.6-2.1c0.2-0.2,0.5-0.2,0.8-0.2c0.6,0,1,0.3,1.3,0.8
						c0.4,0.7,0.2,1.7-0.6,2.1C41.2,27.5,40.9,27.5,40.6,27.5z"/>
					<path class="st2" d="M40.6,27.5c0.8,0,1.4-0.6,1.4-1.4c0-0.8-0.6-1.4-1.4-1.4c-0.8,0-1.4,0.6-1.4,1.4
						C39.2,26.8,39.9,27.5,40.6,27.5z"/>
					<path class="st2" d="M35.9,27.5c-0.6,0-1-0.3-1.3-0.8c-0.4-0.7-0.2-1.7,0.6-2.1c0.2-0.2,0.5-0.2,0.8-0.2c0.6,0,1,0.3,1.3,0.8
						c0.4,0.7,0.2,1.7-0.6,2.1C36.4,27.4,36.2,27.5,35.9,27.5z"/>
					<path class="st2" d="M35.9,27.4c0.8,0,1.4-0.6,1.4-1.4c0-0.8-0.6-1.4-1.4-1.4s-1.4,0.6-1.4,1.4C34.5,26.7,35.1,27.4,35.9,27.4z
						"/>
					<path class="st2" d="M94.5,12.4c-0.9,0-1.5-0.7-1.5-1.5c0-0.9,0.7-1.5,1.5-1.5c0.9,0,1.5,0.7,1.5,1.5
						C96,11.7,95.4,12.4,94.5,12.4z"/>
					<path class="st2" d="M94.5,12.3c0.8,0,1.4-0.6,1.4-1.4s-0.6-1.4-1.4-1.4s-1.4,0.6-1.4,1.4S93.7,12.3,94.5,12.3z"/>
					<path class="st2" d="M96.8,9c-0.9,0-1.5-0.7-1.5-1.5C95.2,6.6,96,6,96.8,6c0.9,0,1.5,0.7,1.5,1.5C98.3,8.3,97.6,9,96.8,9z"/>
					<path class="st2" d="M96.8,8.9c0.8,0,1.4-0.6,1.4-1.4s-0.6-1.4-1.4-1.4s-1.4,0.6-1.4,1.4C95.3,8.2,96,8.9,96.8,8.9z"/>
					<path class="st2" d="M92.3,16.1c-0.9,0-1.5-0.7-1.5-1.5c0-0.9,0.7-1.5,1.5-1.5c0.9,0,1.5,0.7,1.5,1.5
						C93.8,15.4,93.1,16.1,92.3,16.1z"/>
					<path class="st2" d="M92.3,16c0.8,0,1.4-0.6,1.4-1.4c0-0.8-0.6-1.4-1.4-1.4s-1.4,0.6-1.4,1.4C90.9,15.4,91.5,16,92.3,16z"/>
					<path class="st2" d="M90.1,20c-0.9,0-1.5-0.7-1.5-1.5c0-0.9,0.7-1.5,1.5-1.5c0.9,0,1.5,0.7,1.5,1.5C91.6,19.3,90.9,20,90.1,20z
						"/>
					<path class="st2" d="M90.1,19.9c0.8,0,1.4-0.6,1.4-1.4c0-0.8-0.6-1.4-1.4-1.4s-1.4,0.6-1.4,1.4C88.7,19.3,89.3,19.9,90.1,19.9z
						"/>
					<path class="st2" d="M87.8,23.9c-0.9,0-1.5-0.7-1.5-1.5c0-0.9,0.7-1.5,1.5-1.5c0.9,0,1.5,0.7,1.5,1.5
						C89.4,23.2,88.7,23.9,87.8,23.9z"/>
					<path class="st2" d="M87.8,23.8c0.8,0,1.4-0.6,1.4-1.4c0-0.8-0.6-1.4-1.4-1.4s-1.4,0.6-1.4,1.4S87,23.8,87.8,23.8z"/>
					<path class="st2" d="M85.6,27.6c-0.9,0-1.5-0.7-1.5-1.5c0-0.9,0.7-1.5,1.5-1.5c0.9,0,1.5,0.7,1.5,1.5
						C87.1,26.9,86.4,27.6,85.6,27.6z"/>
					<path class="st2" d="M85.6,27.5c0.8,0,1.4-0.6,1.4-1.4c0-0.8-0.6-1.4-1.4-1.4s-1.4,0.6-1.4,1.4C84.2,26.9,84.8,27.5,85.6,27.5z
						"/>
					<path class="st2" d="M98.8,12.4c-0.9,0-1.5-0.7-1.5-1.5c0-0.9,0.7-1.5,1.5-1.5c0.9,0,1.5,0.7,1.5,1.5
						C100.3,11.7,99.7,12.4,98.8,12.4z"/>
					<path class="st2" d="M98.8,12.3c0.8,0,1.4-0.6,1.4-1.4s-0.6-1.4-1.4-1.4s-1.4,0.6-1.4,1.4S98,12.3,98.8,12.3z"/>
					<path class="st2" d="M101,16.1c-0.9,0-1.5-0.7-1.5-1.5c0-0.9,0.7-1.5,1.5-1.5c0.9,0,1.5,0.7,1.5,1.5
						C102.5,15.4,101.9,16.1,101,16.1z"/>
					<path class="st2" d="M101,16c0.8,0,1.4-0.6,1.4-1.4c0-0.8-0.6-1.4-1.4-1.4s-1.4,0.6-1.4,1.4C99.6,15.4,100.2,16,101,16z"/>
					<path class="st2" d="M103.2,20c-0.9,0-1.5-0.7-1.5-1.5c0-0.9,0.7-1.5,1.5-1.5c0.9,0,1.5,0.7,1.5,1.5
						C104.8,19.3,104.1,20,103.2,20z"/>
					<path class="st2" d="M103.2,19.9c0.8,0,1.4-0.6,1.4-1.4c0-0.8-0.6-1.4-1.4-1.4s-1.4,0.6-1.4,1.4
						C101.8,19.3,102.5,19.9,103.2,19.9z"/>
					<path class="st2" d="M105.5,23.9c-0.9,0-1.5-0.7-1.5-1.5c0-0.9,0.7-1.5,1.5-1.5c0.9,0,1.5,0.7,1.5,1.5
						C107.1,23.2,106.3,23.9,105.5,23.9z"/>
					<path class="st2" d="M105.5,23.8c0.8,0,1.4-0.6,1.4-1.4c0-0.8-0.6-1.4-1.4-1.4s-1.4,0.6-1.4,1.4
						C104,23.2,104.8,23.8,105.5,23.8z"/>
					<path class="st2" d="M107.8,27.6c-0.9,0-1.5-0.7-1.5-1.5c0-0.9,0.7-1.5,1.5-1.5c0.9,0,1.5,0.7,1.5,1.5
						C109.3,26.9,108.6,27.6,107.8,27.6z"/>
					<path class="st2" d="M107.8,27.5c0.8,0,1.4-0.6,1.4-1.4c0-0.8-0.6-1.4-1.4-1.4s-1.4,0.6-1.4,1.4
						C106.3,26.9,107,27.5,107.8,27.5z"/>
					<path class="st2" d="M60.6,9.5c-0.6,0-1-0.3-1.3-0.8C59,8.4,59,8,59.1,7.6c0.1-0.4,0.4-0.7,0.7-1c0.2-0.2,0.5-0.2,0.8-0.2
						c0.6,0,1,0.3,1.3,0.8c0.4,0.7,0.2,1.7-0.6,2.1C61.1,9.5,60.9,9.5,60.6,9.5z"/>
					<path class="st2" d="M60.6,9.5C61.4,9.5,62,8.8,62,8s-0.6-1.4-1.4-1.4S59.2,7.2,59.2,8S59.8,9.5,60.6,9.5z"/>
					<path class="st2" d="M60.6,14.1c-0.6,0-1-0.3-1.3-0.8C59,13,59,12.5,59.1,12.1c0.1-0.4,0.4-0.7,0.7-1c0.2-0.2,0.5-0.2,0.8-0.2
						c0.6,0,1,0.3,1.3,0.8c0.4,0.7,0.2,1.7-0.6,2.1C61.1,14,60.9,14.1,60.6,14.1z"/>
					<path class="st2" d="M60.6,14c0.8,0,1.4-0.6,1.4-1.4s-0.6-1.4-1.4-1.4s-1.4,0.6-1.4,1.4C59.2,13.4,59.8,14,60.6,14z"/>
					<path class="st2" d="M60.6,18.6c-0.6,0-1-0.3-1.3-0.8C59,17.5,59,17,59.1,16.6c0.1-0.4,0.4-0.7,0.7-1c0.2-0.2,0.5-0.2,0.8-0.2
						c0.6,0,1,0.3,1.3,0.8c0.4,0.7,0.2,1.7-0.6,2.1C61.1,18.5,60.9,18.6,60.6,18.6z"/>
					<path class="st2" d="M60.6,18.5c0.8,0,1.4-0.6,1.4-1.4c0-0.8-0.6-1.4-1.4-1.4s-1.4,0.6-1.4,1.3C59.2,17.8,59.8,18.5,60.6,18.5z
						"/>
					<path class="st2" d="M60.6,23c-0.6,0-1-0.3-1.3-0.8C59,21.9,59,21.4,59.1,21c0.1-0.4,0.4-0.7,0.7-1c0.2-0.2,0.5-0.2,0.8-0.2
						c0.6,0,1,0.3,1.3,0.8c0.4,0.7,0.2,1.7-0.6,2.1C61.1,23,60.9,23,60.6,23z"/>
					<path class="st2" d="M60.6,22.9c0.8,0,1.4-0.6,1.4-1.4c0-0.8-0.6-1.4-1.4-1.4s-1.4,0.6-1.4,1.4C59.2,22.3,59.8,22.9,60.6,22.9z
						"/>
					<path class="st2" d="M78.8,27.6c-0.6,0-1-0.3-1.3-0.8c-0.4-0.7-0.2-1.7,0.6-2.1c0.2-0.2,0.5-0.2,0.8-0.2c0.6,0,1,0.3,1.3,0.8
						c0.4,0.7,0.2,1.7-0.6,2.1C79.2,27.5,79,27.6,78.8,27.6z"/>
					<path class="st2" d="M78.8,27.5c0.8,0,1.4-0.6,1.4-1.4c0-0.8-0.6-1.4-1.4-1.4s-1.4,0.6-1.4,1.4C77.3,26.9,78,27.5,78.8,27.5z"
						/>
					<path class="st2" d="M74.2,27.6c-0.6,0-1-0.3-1.3-0.8c-0.4-0.7-0.2-1.7,0.6-2.1c0.2-0.2,0.5-0.2,0.8-0.2c0.6,0,1,0.3,1.3,0.8
						C76,26,75.8,27,75,27.4C74.8,27.5,74.6,27.6,74.2,27.6z"/>
					<path class="st2" d="M74.2,27.5c0.8,0,1.4-0.6,1.4-1.4c0-0.8-0.6-1.4-1.4-1.4s-1.4,0.6-1.4,1.4C72.8,26.9,73.5,27.5,74.2,27.5z
						"/>
					<path class="st2" d="M69.8,27.6c-0.6,0-1-0.3-1.3-0.8c-0.4-0.7-0.2-1.7,0.6-2.1c0.2-0.2,0.5-0.2,0.8-0.2c0.6,0,1,0.3,1.3,0.8
						c0.4,0.7,0.2,1.7-0.6,2.1C70.3,27.5,70,27.6,69.8,27.6z"/>
					<path class="st2" d="M69.8,27.5c0.8,0,1.4-0.6,1.4-1.4c0-0.8-0.6-1.4-1.4-1.4c-0.8,0-1.4,0.6-1.4,1.4
						C68.4,26.9,69,27.5,69.8,27.5z"/>
					<path class="st2" d="M65.3,27.6c-0.6,0-1-0.3-1.3-0.8c-0.4-0.7-0.2-1.7,0.6-2.1c0.2-0.2,0.5-0.2,0.8-0.2c0.6,0,1,0.3,1.3,0.8
						c0.4,0.7,0.2,1.7-0.6,2.1C65.8,27.5,65.6,27.6,65.3,27.6z"/>
					<path class="st2" d="M65.3,27.5c0.8,0,1.4-0.6,1.4-1.4c0-0.8-0.6-1.4-1.4-1.4c-0.8,0-1.4,0.6-1.4,1.4
						C63.9,26.9,64.5,27.5,65.3,27.5z"/>
					<path class="st2" d="M78.8,9.5c-0.6,0-1-0.3-1.3-0.8C77,8,77.3,7.1,78,6.7c0.2-0.2,0.5-0.2,0.8-0.2c0.6,0,1,0.3,1.3,0.8
						c0.2,0.3,0.2,0.8,0.2,1.2c-0.1,0.4-0.4,0.7-0.7,1C79.2,9.5,79,9.5,78.8,9.5z"/>
					<path class="st2" d="M78.8,9.5c0.8,0,1.4-0.6,1.4-1.4s-0.6-1.4-1.4-1.4S77.3,7.2,77.3,8S78,9.5,78.8,9.5z"/>
					<path class="st2" d="M74.2,9.5c-0.6,0-1-0.3-1.3-0.8c-0.2-0.3-0.2-0.8-0.2-1.2s0.4-0.7,0.7-1c0.2-0.2,0.5-0.2,0.8-0.2
						c0.6,0,1,0.3,1.3,0.8C76,7.9,75.8,8.8,75,9.2C74.8,9.5,74.6,9.5,74.2,9.5z"/>
					<path class="st2" d="M74.2,9.5c0.8,0,1.4-0.6,1.4-1.4S75,6.6,74.2,6.6S72.8,7.2,72.8,8S73.5,9.5,74.2,9.5z"/>
					<path class="st2" d="M69.8,9.5c-0.6,0-1-0.3-1.3-0.8c-0.4-0.6-0.2-1.6,0.6-2.1c0.2-0.2,0.5-0.2,0.8-0.2c0.6,0,1,0.3,1.3,0.8
						c0.2,0.3,0.2,0.8,0.2,1.2c-0.1,0.4-0.4,0.7-0.7,1C70.3,9.5,70,9.5,69.8,9.5z"/>
					<path class="st2" d="M69.8,9.5c0.8,0,1.4-0.6,1.4-1.4s-0.6-1.4-1.4-1.4c-0.8,0-1.4,0.6-1.4,1.4S69,9.5,69.8,9.5z"/>
					<path class="st2" d="M65.3,9.5c-0.6,0-1-0.3-1.3-0.8c-0.2-0.3-0.2-0.8-0.2-1.2c0.1-0.4,0.4-0.7,0.7-1c0.2-0.2,0.5-0.2,0.8-0.2
						c0.6,0,1,0.3,1.3,0.8c0.4,0.7,0.2,1.7-0.6,2.1C65.8,9.5,65.6,9.5,65.3,9.5z"/>
					<path class="st2" d="M65.3,9.5c0.8,0,1.4-0.6,1.4-1.4s-0.6-1.4-1.4-1.4c-0.8,0-1.4,0.6-1.4,1.4S64.5,9.5,65.3,9.5z"/>
					<path class="st2" d="M74.2,18.6c-0.6,0-1-0.3-1.3-0.8c-0.2-0.3-0.2-0.8-0.2-1.2c0.1-0.4,0.4-0.7,0.7-1c0.2-0.2,0.5-0.2,0.8-0.2
						c0.6,0,1,0.3,1.3,0.8c0.4,0.7,0.2,1.7-0.6,2.1C74.8,18.5,74.6,18.6,74.2,18.6z"/>
					<path class="st2" d="M74.2,18.4c0.8,0,1.4-0.6,1.4-1.4c0-0.8-0.6-1.4-1.4-1.4s-1.4,0.6-1.4,1.4C72.8,17.8,73.5,18.4,74.2,18.4z
						"/>
					<path class="st2" d="M69.8,18.6c-0.6,0-1-0.3-1.3-0.8c-0.4-0.7-0.2-1.7,0.6-2.1c0.2-0.2,0.5-0.2,0.8-0.2c0.6,0,1,0.3,1.3,0.8
						c0.2,0.3,0.2,0.8,0.2,1.2c-0.1,0.4-0.4,0.7-0.7,1C70.3,18.5,70,18.6,69.8,18.6z"/>
					<path class="st2" d="M69.8,18.4c0.8,0,1.4-0.6,1.4-1.4c0-0.8-0.6-1.4-1.4-1.4c-0.8,0-1.4,0.6-1.4,1.4
						C68.4,17.8,69,18.4,69.8,18.4z"/>
					<path class="st2" d="M65.3,18.6c-0.6,0-1-0.3-1.3-0.8c-0.2-0.3-0.2-0.8-0.2-1.2c0.1-0.4,0.4-0.7,0.7-1c0.2-0.2,0.5-0.2,0.8-0.2
						c0.6,0,1,0.3,1.3,0.8c0.4,0.7,0.2,1.7-0.6,2.1C65.8,18.5,65.6,18.6,65.3,18.6z"/>
					<path class="st2" d="M65.3,18.4c0.8,0,1.4-0.6,1.4-1.4c0-0.8-0.6-1.4-1.4-1.4c-0.8,0-1.4,0.6-1.4,1.4
						C63.9,17.8,64.5,18.4,65.3,18.4z"/>
					<path class="st2" d="M128.4,18.4c-0.6,0-1-0.3-1.3-0.8c-0.2-0.3-0.2-0.8-0.2-1.2c0.1-0.4,0.4-0.7,0.7-1
						c0.2-0.2,0.5-0.2,0.8-0.2c0.6,0,1,0.3,1.3,0.8c0.2,0.3,0.2,0.8,0.2,1.2s-0.4,0.7-0.7,1C128.9,18.4,128.7,18.4,128.4,18.4z"/>
					<path class="st2" d="M128.4,18.3c0.8,0,1.4-0.6,1.4-1.4c0-0.8-0.6-1.4-1.4-1.4s-1.4,0.6-1.4,1.4
						C126.9,17.7,127.6,18.3,128.4,18.3z"/>
					<path class="st2" d="M123.9,18.4c-0.6,0-1-0.3-1.3-0.8c-0.2-0.3-0.2-0.8-0.2-1.2c0.1-0.4,0.4-0.7,0.7-1
						c0.2-0.2,0.5-0.2,0.8-0.2c0.6,0,1,0.3,1.3,0.8c0.2,0.3,0.2,0.8,0.2,1.2c-0.1,0.4-0.4,0.7-0.7,1
						C124.5,18.4,124.2,18.4,123.9,18.4z"/>
					<path class="st2" d="M123.9,18.3c0.8,0,1.4-0.6,1.4-1.4c0-0.8-0.6-1.4-1.4-1.4s-1.4,0.6-1.4,1.4
						C122.5,17.7,123.1,18.3,123.9,18.3z"/>
					<path class="st2" d="M119.4,18.4c-0.6,0-1-0.3-1.3-0.8c-0.2-0.3-0.2-0.8-0.2-1.2c0.1-0.4,0.4-0.7,0.7-1
						c0.2-0.2,0.5-0.2,0.8-0.2c0.6,0,1,0.3,1.3,0.8c0.2,0.3,0.2,0.8,0.2,1.2c-0.1,0.4-0.4,0.7-0.7,1C120,18.4,119.7,18.4,119.4,18.4
						z"/>
					<path class="st2" d="M119.4,18.3c0.8,0,1.4-0.6,1.4-1.4c0-0.8-0.6-1.4-1.4-1.4s-1.4,0.6-1.4,1.4
						C118,17.7,118.6,18.3,119.4,18.3z"/>
					<path class="st2" d="M101.3,23.9c-0.6,0-1-0.3-1.3-0.8c-0.2-0.3-0.2-0.8-0.2-1.2s0.4-0.7,0.7-1c0.2-0.2,0.5-0.2,0.8-0.2
						c0.6,0,1,0.3,1.3,0.8c0.2,0.3,0.2,0.8,0.2,1.2c-0.1,0.4-0.4,0.7-0.7,1C101.8,23.8,101.6,23.9,101.3,23.9z"/>
					<path class="st2" d="M101.3,23.8c0.8,0,1.4-0.6,1.4-1.4c0-0.8-0.6-1.4-1.4-1.4c-0.8,0-1.4,0.6-1.4,1.4
						C99.8,23.2,100.5,23.8,101.3,23.8z"/>
					<path class="st2" d="M96.8,23.9c-0.6,0-1-0.3-1.3-0.8c-0.4-0.7-0.2-1.7,0.6-2.1c0.2-0.2,0.5-0.2,0.8-0.2c0.6,0,1,0.3,1.3,0.8
						c0.2,0.3,0.2,0.8,0.2,1.2s-0.4,0.7-0.7,1C97.4,23.8,97.1,23.9,96.8,23.9z"/>
					<path class="st2" d="M96.8,23.8c0.8,0,1.4-0.6,1.4-1.4c0-0.8-0.6-1.4-1.4-1.4c-0.8,0-1.4,0.6-1.4,1.4S96,23.8,96.8,23.8z"/>
					<path class="st2" d="M92.4,23.9c-0.6,0-1-0.3-1.3-0.8c-0.2-0.3-0.2-0.8-0.2-1.2c0.1-0.4,0.4-0.7,0.7-1c0.2-0.2,0.5-0.2,0.8-0.2
						c0.6,0,1,0.3,1.3,0.8c0.2,0.3,0.2,0.8,0.2,1.2c-0.1,0.4-0.4,0.7-0.7,1C92.9,23.8,92.6,23.9,92.4,23.9z"/>
					<path class="st2" d="M92.4,23.8c0.8,0,1.4-0.6,1.4-1.4c0-0.8-0.6-1.4-1.4-1.4S91,21.6,91,22.4C90.9,23.2,91.6,23.8,92.4,23.8z"
						/>
					<path class="st2" d="M60.6,27.5c-0.6,0-1-0.3-1.3-0.8c-0.4-0.7-0.2-1.7,0.6-2.1c0.2-0.2,0.5-0.2,0.8-0.2c0.6,0,1,0.3,1.3,0.8
						c0.4,0.7,0.2,1.7-0.6,2.1C61.1,27.5,60.9,27.5,60.6,27.5z"/>
					<path class="st2" d="M60.6,27.5c0.8,0,1.4-0.6,1.4-1.4c0-0.8-0.6-1.4-1.4-1.4s-1.4,0.6-1.4,1.4C59.2,26.8,59.8,27.5,60.6,27.5z
						"/>
					<path class="st2" d="M114.7,9.7c-0.6,0-1-0.3-1.3-0.8c-0.2-0.3-0.2-0.8-0.2-1.2c0.1-0.4,0.4-0.7,0.7-1c0.2-0.2,0.5-0.2,0.8-0.2
						c0.6,0,1,0.3,1.3,0.8c0.2,0.3,0.2,0.8,0.2,1.2c-0.1,0.4-0.4,0.7-0.7,1C115.3,9.6,115,9.7,114.7,9.7z"/>
					<path class="st2" d="M114.7,9.5c0.8,0,1.4-0.6,1.4-1.4s-0.6-1.4-1.4-1.4c-0.8,0-1.4,0.6-1.4,1.4C113.3,8.9,113.9,9.5,114.7,9.5
						z"/>
					<path class="st2" d="M114.7,14.1c-0.6,0-1-0.3-1.3-0.8c-0.2-0.3-0.2-0.7-0.2-1.1c0.1-0.4,0.4-0.7,0.7-1
						c0.2-0.2,0.5-0.2,0.8-0.2c0.6,0,1,0.3,1.3,0.8c0.2,0.3,0.2,0.8,0.2,1.2c-0.1,0.4-0.4,0.7-0.7,1C115.3,14.1,115,14.1,114.7,14.1
						z"/>
					<path class="st2" d="M114.7,14.1c0.8,0,1.4-0.6,1.4-1.4s-0.6-1.4-1.4-1.4c-0.8,0-1.4,0.6-1.4,1.4S113.9,14.1,114.7,14.1z"/>
					<path class="st2" d="M114.7,18.7c-0.6,0-1-0.3-1.3-0.8c-0.2-0.3-0.2-0.8-0.2-1.2c0.1-0.4,0.4-0.7,0.7-1
						c0.2-0.2,0.5-0.2,0.8-0.2c0.6,0,1,0.3,1.3,0.8c0.2,0.3,0.2,0.8,0.2,1.2c-0.1,0.4-0.4,0.7-0.7,1C115.3,18.6,115,18.7,114.7,18.7
						z"/>
					<path class="st2" d="M114.7,18.6c0.8,0,1.4-0.6,1.4-1.4s-0.6-1.4-1.4-1.4c-0.8,0-1.4,0.6-1.4,1.4S113.9,18.6,114.7,18.6z"/>
					<path class="st2" d="M114.7,23.2c-0.6,0-1-0.3-1.3-0.8c-0.2-0.3-0.2-0.8-0.2-1.2c0.1-0.4,0.4-0.7,0.7-1
						c0.2-0.2,0.5-0.2,0.8-0.2c0.6,0,1,0.3,1.3,0.8c0.2,0.3,0.2,0.8,0.2,1.2c-0.1,0.4-0.4,0.7-0.7,1C115.3,23.1,115,23.2,114.7,23.2
						z"/>
					<path class="st2" d="M114.7,23c0.8,0,1.4-0.6,1.4-1.4c0-0.8-0.6-1.4-1.4-1.4c-0.8,0-1.4,0.6-1.4,1.4
						C113.3,22.4,113.9,23,114.7,23z"/>
					<path class="st2" d="M132.8,10c-0.6,0-1-0.3-1.3-0.8c-0.4-0.7-0.2-1.7,0.6-2.1c0.2-0.2,0.5-0.2,0.8-0.2c0.6,0,1,0.3,1.3,0.8
						c0.4,0.7,0.2,1.7-0.6,2.1C133.3,9.9,133,10,132.8,10z"/>
					<path class="st2" d="M132.8,9.9c0.8,0,1.4-0.6,1.4-1.4S133.6,7,132.8,7s-1.4,0.6-1.4,1.4C131.3,9.2,132,9.9,132.8,9.9z"/>
					<path class="st2" d="M133,18.1c-0.6,0-1-0.3-1.3-0.8c-0.2-0.3-0.2-0.8-0.2-1.2c0.1-0.4,0.4-0.7,0.7-1c0.2-0.2,0.5-0.2,0.8-0.2
						c0.6,0,1,0.3,1.3,0.8c0.4,0.7,0.2,1.7-0.6,2.1C133.6,18,133.4,18.1,133,18.1z"/>
					<path class="st2" d="M133,18c0.8,0,1.4-0.6,1.4-1.4c0-0.8-0.6-1.4-1.4-1.4s-1.4,0.6-1.4,1.4C131.6,17.4,132.3,18,133,18z"/>
					<path class="st2" d="M134.7,14.1c-0.6,0-1-0.3-1.3-0.8c-0.4-0.7-0.2-1.7,0.6-2.1c0.2-0.2,0.5-0.2,0.8-0.2c0.6,0,1,0.3,1.3,0.8
						c0.4,0.7,0.2,1.7-0.6,2.1C135.3,14.1,135,14.1,134.7,14.1z"/>
					<path class="st2" d="M134.7,14.1c0.8,0,1.4-0.6,1.4-1.4s-0.6-1.4-1.4-1.4s-1.4,0.6-1.4,1.4C133.3,13.4,133.9,14.1,134.7,14.1z"
						/>
					<path class="st2" d="M128.4,9.5c-0.6,0-1-0.3-1.3-0.8c-0.2-0.3-0.2-0.8-0.2-1.2c0.1-0.4,0.4-0.7,0.7-1c0.2-0.2,0.5-0.2,0.8-0.2
						c0.6,0,1,0.3,1.3,0.8c0.2,0.3,0.2,0.8,0.2,1.2c-0.1,0.4-0.4,0.7-0.7,1C128.9,9.5,128.7,9.5,128.4,9.5z"/>
					<path class="st2" d="M128.4,9.5c0.8,0,1.4-0.6,1.4-1.4s-0.6-1.4-1.4-1.4s-1.4,0.6-1.4,1.4S127.6,9.5,128.4,9.5z"/>
					<path class="st2" d="M123.9,9.5c-0.6,0-1-0.3-1.3-0.8c-0.2-0.3-0.2-0.8-0.2-1.2c0.1-0.4,0.4-0.7,0.7-1c0.2-0.2,0.5-0.2,0.8-0.2
						c0.6,0,1,0.3,1.3,0.8c0.2,0.3,0.2,0.8,0.2,1.2c-0.1,0.4-0.4,0.7-0.7,1C124.5,9.5,124.2,9.5,123.9,9.5z"/>
					<path class="st2" d="M123.9,9.5c0.8,0,1.4-0.6,1.4-1.4s-0.6-1.4-1.4-1.4s-1.4,0.6-1.4,1.4S123.1,9.5,123.9,9.5z"/>
					<path class="st2" d="M119.4,9.5c-0.6,0-1-0.3-1.3-0.8c-0.2-0.3-0.2-0.8-0.2-1.2c0.1-0.4,0.4-0.7,0.7-1c0.2-0.2,0.5-0.2,0.8-0.2
						c0.6,0,1,0.3,1.3,0.8c0.2,0.3,0.2,0.8,0.2,1.2c-0.1,0.4-0.4,0.7-0.7,1C120,9.5,119.7,9.5,119.4,9.5z"/>
					<path class="st2" d="M119.4,9.5c0.8,0,1.4-0.6,1.4-1.4s-0.6-1.4-1.4-1.4S118,7.2,118,8S118.6,9.5,119.4,9.5z"/>
					<path class="st2" d="M114.7,27.6c-0.6,0-1-0.3-1.3-0.8c-0.4-0.7-0.2-1.7,0.6-2.1c0.2-0.2,0.5-0.2,0.8-0.2c0.6,0,1,0.3,1.3,0.8
						c0.2,0.3,0.2,0.8,0.2,1.2c-0.1,0.4-0.4,0.7-0.7,1C115.3,27.5,115,27.6,114.7,27.6z"/>
					<path class="st2" d="M114.7,27.5c0.8,0,1.4-0.6,1.4-1.4c0-0.8-0.6-1.4-1.4-1.4c-0.8,0-1.4,0.6-1.4,1.4
						C113.3,26.9,113.9,27.5,114.7,27.5z"/>
					<path class="st2" d="M131.3,23.2c-0.6,0-1-0.3-1.3-0.8c-0.2-0.3-0.2-0.8-0.2-1.2s0.4-0.7,0.7-1c0.2-0.2,0.5-0.2,0.8-0.2
						c0.6,0,1,0.3,1.3,0.8c0.4,0.7,0.2,1.7-0.6,2.1C131.9,23.1,131.6,23.2,131.3,23.2z"/>
					<path class="st2" d="M131.3,23c0.8,0,1.4-0.6,1.4-1.4c0-0.8-0.6-1.4-1.4-1.4s-1.4,0.6-1.4,1.4C129.9,22.4,130.5,23,131.3,23z"
						/>
					<path class="st2" d="M134.7,27.6c-0.6,0-1-0.3-1.3-0.8c-0.4-0.7-0.2-1.7,0.6-2.1c0.2-0.2,0.5-0.2,0.8-0.2c0.6,0,1,0.3,1.3,0.8
						c0.4,0.7,0.2,1.7-0.6,2.1C135.3,27.5,135,27.6,134.7,27.6z"/>
					<path class="st2" d="M134.7,27.5c0.8,0,1.4-0.6,1.4-1.4c0-0.8-0.6-1.4-1.4-1.4s-1.4,0.6-1.4,1.4
						C133.3,26.9,133.9,27.5,134.7,27.5z"/>
					<path class="st2" d="M171.9,12.3c-0.9,0-1.5-0.7-1.5-1.5s0.7-1.5,1.5-1.5c0.9,0,1.5,0.7,1.5,1.5S172.7,12.3,171.9,12.3z"/>
					<path class="st2" d="M171.9,12.2c0.8,0,1.4-0.6,1.4-1.4c0-0.8-0.6-1.4-1.4-1.4s-1.4,0.6-1.4,1.4
						C170.5,11.6,171.1,12.2,171.9,12.2z"/>
					<path class="st2" d="M169.3,21.2c-0.9,0-1.5-0.7-1.5-1.5c0-0.9,0.7-1.5,1.5-1.5c0.9,0,1.5,0.7,1.5,1.5
						C170.8,20.5,170.2,21.2,169.3,21.2z"/>
					<path class="st2" d="M169.3,21c0.8,0,1.4-0.6,1.4-1.4c0-0.8-0.6-1.4-1.4-1.4s-1.4,0.6-1.4,1.4C167.9,20.4,168.5,21,169.3,21z"
						/>
					<path class="st2" d="M169.3,16.4c-0.9,0-1.5-0.7-1.5-1.5s0.7-1.5,1.5-1.5c0.9,0,1.5,0.7,1.5,1.5S170.2,16.4,169.3,16.4z"/>
					<path class="st2" d="M169.3,16.3c0.8,0,1.4-0.6,1.4-1.4s-0.6-1.4-1.4-1.4s-1.4,0.6-1.4,1.4S168.5,16.3,169.3,16.3z"/>
					<path class="st2" d="M192.2,21.2c-0.9,0-1.5-0.7-1.5-1.5c0-0.9,0.7-1.5,1.5-1.5c0.9,0,1.5,0.7,1.5,1.5
						C193.7,20.5,193.1,21.2,192.2,21.2z"/>
					<path class="st2" d="M192.2,21c0.8,0,1.4-0.6,1.4-1.4c0-0.8-0.6-1.4-1.4-1.4s-1.4,0.6-1.4,1.4C190.8,20.4,191.5,21,192.2,21z"
						/>
					<path class="st2" d="M192.2,16.4c-0.9,0-1.5-0.7-1.5-1.5s0.7-1.5,1.5-1.5c0.9,0,1.5,0.7,1.5,1.5
						C193.7,15.7,193.1,16.4,192.2,16.4z"/>
					<path class="st2" d="M192.2,16.3c0.8,0,1.4-0.6,1.4-1.4s-0.6-1.4-1.4-1.4s-1.4,0.6-1.4,1.4S191.5,16.3,192.2,16.3z"/>
					<path class="st2" d="M176.4,9.9c-0.9,0-1.5-0.7-1.5-1.5c0-0.9,0.7-1.5,1.5-1.5c0.9,0,1.5,0.7,1.5,1.5
						C177.9,9.2,177.2,9.9,176.4,9.9z"/>
					<path class="st2" d="M176.4,9.9c0.8,0,1.4-0.6,1.4-1.4S177.2,7,176.4,7S175,7.6,175,8.4C174.9,9.2,175.6,9.9,176.4,9.9z"/>
					<path class="st2" d="M189.8,12.6c-0.6,0-1-0.3-1.3-0.8c-0.4-0.7-0.2-1.7,0.6-2.1c0.2-0.2,0.5-0.2,0.8-0.2c0.6,0,1,0.3,1.3,0.8
						c0.2,0.3,0.2,0.8,0.2,1.2c-0.1,0.4-0.4,0.7-0.7,1C190.3,12.5,190.1,12.6,189.8,12.6z"/>
					<path class="st2" d="M189.8,12.5c0.8,0,1.4-0.6,1.4-1.4s-0.6-1.4-1.4-1.4s-1.4,0.6-1.4,1.4S189,12.5,189.8,12.5z"/>
					<path class="st2" d="M185.8,10.3c-0.4,0-0.7-0.2-1-0.4c-0.6-0.6-0.7-1.5-0.2-2.1c0.3-0.3,0.7-0.6,1.2-0.6c0.4,0,0.7,0.2,1,0.4
						c0.3,0.2,0.5,0.6,0.6,1c0,0.4-0.1,0.8-0.3,1.1C186.8,10,186.3,10.3,185.8,10.3z"/>
					<path class="st2" d="M185.8,10.2c0.8,0,1.4-0.6,1.4-1.4s-0.6-1.4-1.4-1.4c-0.8,0-1.4,0.6-1.4,1.4S185,10.2,185.8,10.2z"/>
					<path class="st2" d="M181.3,9.4c-0.2,0-0.3,0-0.6-0.1c-0.8-0.3-1.2-1.2-1-2c0.2-0.6,0.8-1,1.4-1c0.2,0,0.3,0,0.6,0.1
						c0.4,0.2,0.7,0.4,0.9,0.8c0.2,0.4,0.2,0.8,0.1,1.2C182.6,9,181.9,9.4,181.3,9.4z"/>
					<path class="st2" d="M181.3,9.3c0.8,0,1.4-0.6,1.4-1.4c0-0.8-0.6-1.4-1.4-1.4s-1.4,0.6-1.4,1.4C179.9,8.7,180.5,9.3,181.3,9.3z
						"/>
					<path class="st2" d="M171.9,25.2c-0.9,0-1.5-0.7-1.5-1.5c0-0.9,0.7-1.5,1.5-1.5c0.9,0,1.5,0.7,1.5,1.5
						C173.4,24.5,172.7,25.2,171.9,25.2z"/>
					<path class="st2" d="M171.9,25.2c0.8,0,1.4-0.6,1.4-1.4c0-0.8-0.6-1.4-1.4-1.4s-1.4,0.6-1.4,1.4
						C170.5,24.4,171.1,25.2,171.9,25.2z"/>
					<path class="st2" d="M176.4,27.5c0.9,0,1.5-0.7,1.5-1.5c0-0.8-0.7-1.5-1.5-1.5c-0.9,0-1.5,0.7-1.5,1.5
						C174.9,26.7,175.5,27.5,176.4,27.5z"/>
					<path class="st2" d="M176.4,27.4c0.8,0,1.4-0.6,1.4-1.4c0-0.8-0.6-1.4-1.4-1.4S175,25.2,175,26
						C174.9,26.7,175.6,27.4,176.4,27.4z"/>
					<path class="st2" d="M189.8,25c-0.2,0-0.6-0.1-0.8-0.2c-0.7-0.4-1-1.3-0.6-2.1c0.2-0.5,0.8-0.8,1.3-0.8c0.2,0,0.6,0.1,0.8,0.2
						c0.3,0.2,0.6,0.6,0.7,1c0.1,0.4,0.1,0.8-0.2,1.2C190.9,24.7,190.3,25,189.8,25z"/>
					<path class="st2" d="M189.8,24.9c0.8,0,1.4-0.6,1.4-1.4c0-0.8-0.6-1.4-1.4-1.4s-1.4,0.6-1.4,1.4
						C188.4,24.3,189,24.9,189.8,24.9z"/>
					<path class="st2" d="M185.8,27.3c-0.5,0-0.9-0.2-1.2-0.6c-0.6-0.6-0.5-1.6,0.2-2.1c0.2-0.2,0.6-0.4,1-0.4
						c0.5,0,0.9,0.2,1.2,0.6c0.2,0.3,0.4,0.7,0.3,1.1c0,0.4-0.2,0.8-0.6,1C186.5,27.2,186.2,27.3,185.8,27.3z"/>
					<path class="st2" d="M185.8,27.2c0.8,0,1.4-0.6,1.4-1.4c0-0.8-0.6-1.4-1.4-1.4c-0.8,0-1.4,0.6-1.4,1.4
						C184.4,26.6,185,27.2,185.8,27.2z"/>
					<path class="st2" d="M181.3,28.1c-0.6,0-1.2-0.4-1.4-1c-0.3-0.8,0.2-1.7,1-2c0.2-0.1,0.3-0.1,0.6-0.1c0.6,0,1.2,0.4,1.4,1
						c0.3,0.8-0.2,1.7-1,2C181.7,28.1,181.5,28.1,181.3,28.1z"/>
					<path class="st2" d="M181.3,28c0.8,0,1.4-0.6,1.4-1.4c0-0.8-0.6-1.4-1.4-1.4s-1.4,0.6-1.4,1.4C179.9,27.4,180.5,28,181.3,28z"
						/>
				</g>
			</g>
		</g>
	</g>
</g>
<g id="Layer_13">
	<g>
		<path class="st4" d="M26.4,38.6c6.3,0,9.5-4.4,9.5-9.8c0-5.2-6.3-12.8-6.3-12.8s-2.7-3-3.2-4.6h-0.2c-0.5,1.6-3.2,4.6-3.2,4.6
			s-6.3,7.6-6.3,12.8C16.8,34.2,19.9,38.6,26.4,38.6L26.4,38.6z"/>
		<path class="st2" d="M26.4,34.4c2.8,0,4.3-1.9,4.3-4.1c0-2.4-2.8-5.5-2.8-5.5s-1.3-1.4-1.4-2.2l0,0c-0.3,0.8-1.6,2.2-1.6,2.2
			s-2.7,3.2-2.7,5.5C22.1,32.5,23.6,34.4,26.4,34.4L26.4,34.4z"/>
		<path class="st5" d="M55.1,38.5c6.3,0,9.5-4.4,9.5-9.8c0-5.2-6.3-12.8-6.3-12.8s-2.7-3-3.2-4.6h-0.2c-0.5,1.6-3.3,4.6-3.3,4.6
			s-6.3,7.6-6.3,12.8C45.5,34.1,48.6,38.5,55.1,38.5L55.1,38.5z"/>
		<path class="st2" d="M55.1,34.2c2.8,0,4.3-1.9,4.3-4.1s-2.8-5.5-2.8-5.5s-1.3-1.4-1.4-2.2l0,0c-0.2,0.8-1.4,2-1.4,2
			s-2.8,3.3-2.8,5.5C50.8,32.3,52.2,34.2,55.1,34.2L55.1,34.2z"/>
		<path class="st6" d="M40.6,38.6c6.3,0,9.5-4.4,9.5-9.8c0-5.2-6.3-12.8-6.3-12.8s-2.7-3-3.3-4.6h-0.2c-0.2,1.6-3,4.6-3,4.6
			S31,23.7,31,28.9C31,34.2,34.3,38.6,40.6,38.6L40.6,38.6z"/>
		<path class="st2" d="M40.6,34.4c2.8,0,4.3-1.9,4.3-4.1S42,24.8,42,24.8s-1.3-1.4-1.4-2l0,0c-0.2,0.8-1.4,2-1.4,2s-2.8,3.3-2.8,5.5
			C36.3,32.5,37.7,34.4,40.6,34.4L40.6,34.4z"/>
		<path class="st2" d="M71.8,14.7h8c3.2,0,5.4,0.5,6.9,1.4c1.6,0.9,2.2,2.4,2.2,4.3c0,1.3-0.3,2.4-0.9,3.3c-0.6,0.9-1.6,1.4-2.5,1.7
			v0.2c1.4,0.3,2.5,0.9,3.2,1.9c0.6,0.9,0.9,2,0.9,3.5c0,2-0.8,3.8-2.4,4.9c-1.6,1.3-3.6,1.7-6.3,1.7h-8.8V14.7H71.8z M77.9,23.5
			h1.9c0.9,0,1.6-0.2,2-0.5c0.5-0.3,0.8-0.9,0.8-1.6c0-1.3-0.9-1.9-2.8-1.9h-1.7v3.9H77.9z M77.9,27.9v4.7h2.2
			c1.9,0,2.8-0.8,2.8-2.4c0-0.8-0.3-1.4-0.8-1.7c-0.5-0.5-1.3-0.6-2.2-0.6H77.9z"/>
		<path class="st2" d="M108.7,28.5c0,2.8-0.8,5.2-2.4,6.8c-1.6,1.6-3.8,2.4-6.6,2.4c-2.7,0-4.9-0.8-6.5-2.5s-2.4-3.9-2.4-6.8
			s0.8-5.2,2.4-6.8s3.8-2.4,6.6-2.4c1.7,0,3.3,0.3,4.6,1.1s2.4,1.7,3.2,3.2C108.4,25.2,108.7,26.8,108.7,28.5 M97.2,28.5
			c0,1.6,0.2,2.7,0.6,3.5s1.1,1.3,2,1.3c0.9,0,1.6-0.5,2-1.3c0.3-0.8,0.6-1.9,0.6-3.5c0-1.6-0.2-2.7-0.6-3.5c-0.5-0.6-1.1-1.1-2-1.1
			c-0.9,0-1.6,0.3-2,1.1C97.3,26,97.2,27.1,97.2,28.5"/>
		<path class="st2" d="M122.1,37.5v-9.6c0-1.1-0.2-2-0.5-2.7c-0.3-0.6-0.9-0.9-1.6-0.9c-1.1,0-1.7,0.5-2.2,1.3
			c-0.5,0.8-0.6,2.2-0.6,4.3v7.7H111V19.9h4.6l0.8,2.2h0.3c0.5-0.8,1.3-1.4,2.2-1.9c0.9-0.5,2-0.6,3.2-0.6c1.9,0,3.5,0.6,4.6,1.7
			c1.1,1.1,1.6,2.7,1.6,4.7v11.5H122.1z"/>
		<path class="st2" d="M141.9,24.4h-3.8v13.1H132V24.4h-2.4v-3l2.5-1.6v-0.3c0-2.4,0.5-3.9,1.4-5c0.9-0.9,2.5-1.6,4.6-1.6
			c0.8,0,1.6,0,2.4,0.2c0.8,0.2,1.6,0.3,2.5,0.6l-1.3,3.9c-0.8-0.2-1.4-0.3-2.2-0.3c-0.5,0-0.8,0.2-0.9,0.5
			c-0.5,0.3-0.5,0.8-0.5,1.6v0.5h3.8V24.4z M144.1,15.5c0-0.9,0.3-1.6,0.8-2s1.3-0.6,2.5-0.6c1.1,0,1.9,0.2,2.5,0.6
			c0.5,0.5,0.8,1.1,0.8,2c0,1.7-1.1,2.7-3.3,2.7C145.2,18.1,144.1,17.2,144.1,15.5 M150.4,37.5h-6.1V19.9h6.1V37.5z"/>
		<path class="st2" d="M164.1,19.6c0.5,0,1.1,0,1.6,0.2h0.3l-0.5,5.8c-0.6-0.2-1.4-0.3-2.2-0.3c-1.3,0-2.4,0.3-2.8,0.9
			c-0.6,0.6-0.9,1.4-0.9,2.7v8.7h-6.1V19.9h4.6l0.9,2.8h0.3c0.5-0.9,1.3-1.7,2.2-2.2C162.3,19.7,163.2,19.6,164.1,19.6"/>
		<path class="st2" d="M175.6,37.8c-3,0-5.2-0.8-6.9-2.4c-1.6-1.6-2.5-3.8-2.5-6.8s0.8-5.4,2.2-6.9c1.6-1.6,3.6-2.4,6.5-2.4
			c2.7,0,4.7,0.6,6.1,2s2.2,3.5,2.2,6v2.8h-10.9c0,0.9,0.5,1.7,1.1,2.4c0.6,0.6,1.6,0.8,2.8,0.8c1.1,0,2-0.2,3-0.3
			c0.9-0.2,1.9-0.5,3-1.1v4.6c-0.9,0.5-1.9,0.8-3,0.9C178.3,37.7,177.1,37.8,175.6,37.8 M175.3,23.7c-0.8,0-1.3,0.2-1.7,0.6
			c-0.6,0.5-0.8,1.3-0.9,2.2h5.2c0-0.8-0.3-1.6-0.8-2C176.8,24,176.1,23.7,175.3,23.7"/>
	</g>
</g>
</svg>
