<?xml version="1.0" encoding="utf-8"?>
<!-- Generator: Adobe Illustrator 26.3.1, SVG Export Plug-In . SVG Version: 6.00 Build 0)  -->
<svg version="1.1" id="Layer_1" xmlns="http://www.w3.org/2000/svg" xmlns:xlink="http://www.w3.org/1999/xlink" x="0px" y="0px"
	 viewBox="0 0 200 50" style="enable-background:new 0 0 200 50;" xml:space="preserve">
<style type="text/css">
	.st0{fill:#FFFFFF;}
</style>
<g>
	<a xlink:href="67.836862745098" >
		<polygon id="fullLogo" class="st0" points="61.5,38.1 78.2,38.1 78.2,34.6 65.2,34.6 65.2,26.7 76.5,26.7 76.5,23.2 65.2,23.2 
			65.2,15.3 78.2,15.3 78.2,11.8 61.5,11.8 		"/>
	</a>
	<a xlink:href="67.836862745098" >
		<polygon id="fullLogo-2" class="st0" points="109.2,11.8 101.2,32 93.2,11.8 88.2,11.8 85.8,38.1 89.6,38.1 91.4,17.4 99.8,38.1 
			102.6,38.1 111,17.4 112.8,38.1 116.6,38.1 114.1,11.8 		"/>
	</a>
	<a xlink:href="67.836862745098" >
		<rect id="fullLogo-3" x="124.8" y="11.8" class="st0" width="3.7" height="26.2"/>
	</a>
	<a xlink:href="67.836862745098" >
		<polygon id="fullLogo-4" class="st0" points="154.9,30.8 141,11.8 137.8,11.8 137.8,38.1 141.6,38.1 141.6,19 155.6,38.1 
			158.7,38.1 158.7,11.8 154.9,11.8 		"/>
	</a>
	<a xlink:href="67.836862745098" >
		<rect id="fullLogo-5" x="168" y="11.8" class="st0" width="3.7" height="26.2"/>
	</a>
	<g id="logoMark">
		<a xlink:href="41.5035294117647" >
			<path id="logoMark__PathItem_" class="st0" d="M42.2,26.6c4.7,0.3,8.4,4.1,8.7,8.7h2.6V23.9H42.2V26.6z"/>
		</a>
		<a xlink:href="67.836862745098" >
			<path id="logoMark__PathItem_-2" class="st0" d="M42.2,38.6v-3.2c-3.6,0-6.7-1.7-8.6-4.3c-1.3-1.7-2-3.8-2-6
				c0-5.7,4.8-10.3,10.7-10.3c2.9,0,5.6,1.1,7.6,3.1l2.3-2.3c-2.6-2.6-6.1-4-9.9-4c-7.7,0-13.9,6.1-13.9,13.6c0,3.7,1.5,7,3.9,9.4
				C34.7,37,38.2,38.6,42.2,38.6z"/>
		</a>
	</g>
</g>
</svg>
