<?xml version="1.0" encoding="utf-8"?>
<!-- Generator: Adobe Illustrator 26.3.1, SVG Export Plug-In . SVG Version: 6.00 Build 0)  -->
<svg version="1.1" id="Horizontal" xmlns="http://www.w3.org/2000/svg" xmlns:xlink="http://www.w3.org/1999/xlink" x="0px" y="0px"
	 viewBox="0 0 446 179" style="enable-background:new 0 0 446 179;" xml:space="preserve">
<style type="text/css">
	.st0{fill:url(#SVGID_1_);}
	.st1{fill:#FFFFFF;}
	.st2{fill:#C46302;}
	.st3{fill:url(#SVGID_00000050629640022957607270000002075818705327708298_);}
	.st4{fill:url(#SVGID_00000025442405512336364840000000659606381493469118_);}
</style>
<g>
	
		<linearGradient id="SVGID_1_" gradientUnits="userSpaceOnUse" x1="1.2" y1="90.4" x2="1.2" y2="90.4" gradientTransform="matrix(1 0 0 -1 0 180)">
		<stop  offset="0" style="stop-color:#F89E22"/>
		<stop  offset="0" style="stop-color:#F89B21"/>
		<stop  offset="0" style="stop-color:#F6911E"/>
		<stop  offset="0" style="stop-color:#F68F1E"/>
		<stop  offset="0.3826" style="stop-color:#F7921D"/>
		<stop  offset="0.7021" style="stop-color:#F89D1B"/>
		<stop  offset="0.9986" style="stop-color:#FBAE17"/>
		<stop  offset="1" style="stop-color:#FBAE17"/>
	</linearGradient>
	<path class="st0" d="M1.2,89.6"/>
</g>
<g>
	<g>
		<path class="st1" d="M144.2,95.4c-11.7-2.5-14.4-5.3-14.4-10.4c0-4.9,4.4-8.7,11.3-8.7c5.5,0,10.4,1.8,15.3,5.8l3.5-4.6
			c-5.4-4.3-10.9-6.5-18.7-6.5c-10.1,0-17.5,6.1-17.5,14.6c0,8.8,5.6,12.8,17.9,15.4c11.2,2.4,13.8,5.2,13.8,10.2
			c0,5.4-4.7,9.1-11.9,9.1c-7.4,0-12.7-2.5-18.2-7.5l-3.7,4.4c6.4,5.7,13.3,8.5,21.7,8.5c10.6,0,18.2-5.9,18.2-15.1
			C161.6,102.3,156.1,97.9,144.2,95.4z"/>
		<polygon class="st1" points="174.4,77.2 192.2,77.2 192.2,124.8 198.3,124.8 198.3,77.2 216.2,77.2 216.2,71.7 174.4,71.7 		"/>
		<polygon class="st1" points="311.3,99.4 293.4,71.7 287.2,71.7 308.2,105 308.2,124.8 314.3,124.8 314.3,104.9 336.4,71.7 
			329.4,71.7 		"/>
		<polygon class="st1" points="370.4,112.1 351.5,71.7 344.8,71.7 370.3,125.2 395.9,71.7 389.4,71.7 		"/>
		<polygon class="st1" points="444.7,77.1 444.7,71.7 407.3,71.7 407.3,124.8 444.7,124.8 444.7,119.4 413.3,119.4 413.3,100.8 
			431.7,100.8 431.7,95.3 413.3,95.3 413.3,77.1 		"/>
		<path class="st1" d="M275.5,88c0-9-7.3-16.3-16.3-16.3H234v53.2h6V77.2h19.1l0,0c6,0,10.8,4.8,10.8,10.8s-4.8,10.8-10.8,10.8H251
			l4.2,5.4l0,0l15.4,20.7h7.4L262.4,104C269.8,102.5,275.5,95.9,275.5,88z"/>
	</g>
	<g>
		<polygon class="st2" points="21.6,124.9 42.3,124.9 43.9,123.6 83.3,55.1 83.2,54.2 62.5,54.2 61.6,54.2 21.6,123.4 		"/>
		
			<linearGradient id="SVGID_00000183250434715912728430000002662040339797671612_" gradientUnits="userSpaceOnUse" x1="37.1032" y1="-705.3684" x2="98.4968" y2="-599.0316" gradientTransform="matrix(1 0 0 -1 0 -536)">
			<stop  offset="0" style="stop-color:#FF8700"/>
			<stop  offset="0.3335" style="stop-color:#FF8A00"/>
			<stop  offset="0.6012" style="stop-color:#FF9400"/>
			<stop  offset="0.8453" style="stop-color:#FFA500"/>
			<stop  offset="1" style="stop-color:#FFB400"/>
		</linearGradient>
		<polygon style="fill:url(#SVGID_00000183250434715912728430000002662040339797671612_);" points="83.2,54.2 32,142.8 52.4,178.2 
			103.6,89.6 		"/>
		
			<linearGradient id="SVGID_00000052090070824865971310000012949980823987086722_" gradientUnits="userSpaceOnUse" x1="6.3206" y1="-652.0784" x2="67.7143" y2="-545.7418" gradientTransform="matrix(1 0 0 -1 0 -536)">
			<stop  offset="0" style="stop-color:#FF8700"/>
			<stop  offset="0.3335" style="stop-color:#FF8A00"/>
			<stop  offset="0.6012" style="stop-color:#FF9400"/>
			<stop  offset="0.8453" style="stop-color:#FFA500"/>
			<stop  offset="1" style="stop-color:#FFB400"/>
		</linearGradient>
		<polygon style="fill:url(#SVGID_00000052090070824865971310000012949980823987086722_);" points="52.4,0.9 1.2,89.6 21.6,124.9 
			72.8,36.3 		"/>
	</g>
</g>
</svg>
